<?xml version="1.0" encoding="UTF-8"?>
<svg width="193px" height="66px" viewBox="0 0 193 66" version="1.1" xmlns="http://www.w3.org/2000/svg" xmlns:xlink="http://www.w3.org/1999/xlink">
    <!-- Generator: Sketch 51.1 (57501) - http://www.bohemiancoding.com/sketch -->
    <title>Group</title>
    <desc>Created with Sketch.</desc>
    <defs></defs>
    <g id="Page-1" stroke="none" stroke-width="1" fill="none" fill-rule="evenodd">
        <g id="Group" fill="#231F20">
            <path d="M36.7168,55.8966 L36.7168,61.8946 L33.5468,61.8946 L33.5468,44.8546 L39.0968,44.8546 C40.2368,44.8546 41.2228,44.9886 42.0548,45.2546 C42.8868,45.5226 43.5748,45.8966 44.1168,46.3746 C44.6588,46.8546 45.0608,47.4306 45.3188,48.0966 C45.5788,48.7646 45.7088,49.4946 45.7088,50.2866 C45.7088,51.1126 45.5708,51.8686 45.2948,52.5566 C45.0208,53.2426 44.6088,53.8346 44.0588,54.3286 C43.5088,54.8246 42.8208,55.2086 41.9968,55.4846 C41.1708,55.7586 40.2048,55.8966 39.0968,55.8966 L36.7168,55.8966 Z M36.7168,53.4226 L39.0968,53.4226 C39.6788,53.4226 40.1848,53.3506 40.6168,53.2046 C41.0488,53.0586 41.4068,52.8526 41.6888,52.5786 C41.9728,52.3086 42.1848,51.9786 42.3268,51.5886 C42.4668,51.2006 42.5388,50.7686 42.5388,50.2866 C42.5388,49.8326 42.4668,49.4186 42.3268,49.0506 C42.1848,48.6826 41.9728,48.3666 41.6888,48.1066 C41.4068,47.8506 41.0488,47.6506 40.6168,47.5146 C40.1848,47.3746 39.6788,47.3066 39.0968,47.3066 L36.7168,47.3066 L36.7168,53.4226 Z" id="Fill-2"></path>
            <path d="M50.67,49.8048 L50.67,57.4888 C50.67,58.2268 50.84,58.7988 51.182,59.2028 C51.524,59.6048 52.036,59.8088 52.72,59.8088 C53.224,59.8088 53.694,59.6968 54.134,59.4728 C54.574,59.2508 54.99,58.9388 55.384,58.5488 L55.384,49.8048 L58.294,49.8048 L58.294,61.8948 L56.514,61.8948 C56.138,61.8948 55.89,61.7188 55.772,61.3648 L55.572,60.3988 C55.32,60.6508 55.062,60.8808 54.794,61.0888 C54.528,61.2968 54.242,61.4728 53.94,61.6188 C53.638,61.7628 53.312,61.8768 52.962,61.9608 C52.612,62.0428 52.238,62.0848 51.836,62.0848 C51.176,62.0848 50.594,61.9728 50.086,61.7488 C49.58,61.5228 49.154,61.2088 48.808,60.7988 C48.462,60.3908 48.202,59.9068 48.024,59.3448 C47.848,58.7828 47.76,58.1648 47.76,57.4888 L47.76,49.8048 L50.67,49.8048 Z" id="Fill-3"></path>
            <polygon id="Fill-4" points="61.594 61.8946 64.504 61.8946 64.504 44.3826 61.594 44.3826"></polygon>
            <path d="M71.3272,46.2812 C71.3272,46.5332 71.2752,46.7692 71.1732,46.9892 C71.0712,47.2092 70.9372,47.4012 70.7672,47.5652 C70.5992,47.7312 70.3992,47.8632 70.1732,47.9612 C69.9452,48.0592 69.7012,48.1072 69.4412,48.1072 C69.1912,48.1072 68.9532,48.0592 68.7292,47.9612 C68.5052,47.8632 68.3112,47.7312 68.1452,47.5652 C67.9812,47.4012 67.8492,47.2092 67.7512,46.9892 C67.6532,46.7692 67.6032,46.5332 67.6032,46.2812 C67.6032,46.0212 67.6532,45.7792 67.7512,45.5512 C67.8492,45.3232 67.9812,45.1272 68.1452,44.9612 C68.3112,44.7972 68.5052,44.6632 68.7292,44.5672 C68.9532,44.4692 69.1912,44.4172 69.4412,44.4172 C69.7012,44.4172 69.9452,44.4692 70.1732,44.5672 C70.3992,44.6632 70.5992,44.7972 70.7672,44.9612 C70.9372,45.1272 71.0712,45.3232 71.1732,45.5512 C71.2752,45.7792 71.3272,46.0212 71.3272,46.2812 Z M67.9812,61.8952 L70.8912,61.8952 L70.8912,49.8052 L67.9812,49.8052 L67.9812,61.8952 Z" id="Fill-5"></path>
            <path d="M78.1504,62.084 C77.1064,62.084 76.3004,61.788 75.7344,61.194 C75.1684,60.602 74.8864,59.782 74.8864,58.738 L74.8864,51.982 L73.6604,51.982 C73.5044,51.982 73.3684,51.934 73.2544,51.832 C73.1404,51.728 73.0824,51.576 73.0824,51.372 L73.0824,50.216 L75.0284,49.898 L75.6404,46.6 C75.6724,46.442 75.7444,46.32 75.8584,46.232 C75.9724,46.146 76.1164,46.104 76.2884,46.104 L77.7964,46.104 L77.7964,49.91 L80.9784,49.91 L80.9784,51.982 L77.7964,51.982 L77.7964,58.536 C77.7964,58.914 77.8904,59.208 78.0804,59.42 C78.2684,59.63 78.5204,59.738 78.8344,59.738 C79.0144,59.738 79.1664,59.716 79.2884,59.674 C79.4084,59.63 79.5144,59.586 79.6064,59.538 C79.6964,59.492 79.7764,59.446 79.8464,59.404 C79.9184,59.36 79.9884,59.338 80.0604,59.338 C80.1464,59.338 80.2164,59.36 80.2724,59.404 C80.3264,59.446 80.3844,59.512 80.4484,59.598 L81.3204,61.012 C80.8964,61.366 80.4084,61.63 79.8584,61.812 C79.3084,61.994 78.7404,62.084 78.1504,62.084" id="Fill-6"></path>
            <path d="M92.043,51.0058 C92.043,51.2118 92.005,51.4078 91.931,51.6018 C91.857,51.7958 91.767,51.9578 91.665,52.0898 L85.915,59.6558 L91.877,59.6558 L91.877,61.8938 L82.533,61.8938 L82.533,60.6798 C82.533,60.5478 82.565,60.3878 82.627,60.2058 C82.691,60.0198 82.789,59.8438 82.921,59.6798 L88.719,52.0318 L82.875,52.0318 L82.875,49.8038 L92.043,49.8038 L92.043,51.0058 Z" id="Fill-7"></path>
            <path d="M99.3614,49.6152 C100.1234,49.6152 100.8254,49.7392 101.4654,49.9832 C102.1054,50.2252 102.6574,50.5792 103.1214,51.0472 C103.5834,51.5152 103.9454,52.0872 104.2054,52.7672 C104.4634,53.4472 104.5934,54.2252 104.5934,55.0952 C104.5934,55.3172 104.5834,55.4972 104.5634,55.6452 C104.5454,55.7892 104.5094,55.9032 104.4574,55.9872 C104.4074,56.0692 104.3374,56.1252 104.2514,56.1612 C104.1654,56.1972 104.0554,56.2152 103.9214,56.2152 L96.4514,56.2152 C96.5374,57.4552 96.8714,58.3672 97.4534,58.9492 C98.0334,59.5292 98.8034,59.8232 99.7614,59.8232 C100.2334,59.8232 100.6394,59.7652 100.9814,59.6572 C101.3234,59.5452 101.6214,59.4232 101.8774,59.2892 C102.1334,59.1572 102.3574,59.0352 102.5494,58.9252 C102.7414,58.8172 102.9274,58.7592 103.1094,58.7592 C103.2274,58.7592 103.3294,58.7832 103.4154,58.8312 C103.5014,58.8772 103.5774,58.9452 103.6394,59.0312 L104.4874,60.0912 C104.1654,60.4712 103.8034,60.7852 103.4034,61.0392 C103.0034,61.2952 102.5854,61.4992 102.1494,61.6552 C101.7134,61.8072 101.2694,61.9132 100.8174,61.9792 C100.3654,62.0392 99.9274,62.0732 99.5034,62.0732 C98.6614,62.0732 97.8814,61.9312 97.1574,61.6552 C96.4354,61.3732 95.8054,60.9612 95.2734,60.4152 C94.7374,59.8692 94.3174,59.1932 94.0114,58.3912 C93.7054,57.5832 93.5514,56.6532 93.5514,55.5892 C93.5514,54.7652 93.6854,53.9912 93.9534,53.2632 C94.2194,52.5352 94.6034,51.9052 95.1014,51.3652 C95.6014,50.8272 96.2094,50.4032 96.9274,50.0872 C97.6474,49.7732 98.4574,49.6152 99.3614,49.6152 M99.4194,51.7012 C98.5714,51.7012 97.9074,51.9412 97.4294,52.4192 C96.9494,52.9012 96.6434,53.5792 96.5094,54.4592 L101.9774,54.4592 C101.9774,54.0812 101.9274,53.7272 101.8234,53.3932 C101.7214,53.0592 101.5654,52.7652 101.3534,52.5132 C101.1414,52.2632 100.8734,52.0672 100.5514,51.9192 C100.2294,51.7732 99.8514,51.7012 99.4194,51.7012" id="Fill-8"></path>
            <path d="M106.962,61.8946 L106.962,49.8046 L108.67,49.8046 C108.97,49.8046 109.178,49.8586 109.296,49.9686 C109.414,50.0786 109.492,50.2706 109.53,50.5346 L109.708,51.9966 C110.14,51.2506 110.646,50.6606 111.228,50.2286 C111.81,49.7966 112.462,49.5806 113.184,49.5806 C113.782,49.5806 114.276,49.7186 114.668,49.9926 L114.292,52.1726 C114.268,52.3146 114.218,52.4146 114.138,52.4726 C114.06,52.5326 113.954,52.5606 113.82,52.5606 C113.702,52.5606 113.542,52.5346 113.338,52.4786 C113.132,52.4246 112.862,52.3966 112.524,52.3966 C111.92,52.3966 111.4,52.5646 110.968,52.8966 C110.536,53.2306 110.172,53.7206 109.872,54.3646 L109.872,61.8946 L106.962,61.8946 Z" id="Fill-9"></path>
            <path d="M133.0166,57.877 C133.1886,57.877 133.3386,57.943 133.4646,58.077 L134.7126,59.431 C134.0226,60.289 133.1726,60.945 132.1626,61.401 C131.1526,61.857 129.9406,62.083 128.5266,62.083 C127.2626,62.083 126.1246,61.867 125.1146,61.433 C124.1066,61.001 123.2426,60.403 122.5286,59.633 C121.8146,58.863 121.2666,57.943 120.8846,56.875 C120.5046,55.807 120.3126,54.641 120.3126,53.375 C120.3126,52.093 120.5246,50.921 120.9506,49.857 C121.3746,48.793 121.9706,47.877 122.7406,47.107 C123.5106,46.335 124.4326,45.737 125.5046,45.309 C126.5766,44.881 127.7606,44.667 129.0566,44.667 C130.3226,44.667 131.4286,44.869 132.3746,45.273 C133.3206,45.677 134.1326,46.215 134.8086,46.883 L133.7466,48.355 C133.6846,48.449 133.6046,48.533 133.5066,48.603 C133.4066,48.671 133.2726,48.709 133.0986,48.709 C132.9186,48.709 132.7346,48.639 132.5446,48.497 C132.3566,48.355 132.1166,48.203 131.8266,48.037 C131.5366,47.873 131.1686,47.719 130.7246,47.577 C130.2806,47.437 129.7166,47.365 129.0346,47.365 C128.2326,47.365 127.4966,47.503 126.8246,47.783 C126.1526,48.063 125.5746,48.461 125.0926,48.979 C124.6086,49.499 124.2306,50.129 123.9606,50.871 C123.6886,51.613 123.5546,52.449 123.5546,53.375 C123.5546,54.333 123.6886,55.187 123.9606,55.931 C124.2306,56.677 124.5986,57.307 125.0626,57.817 C125.5266,58.329 126.0726,58.719 126.7006,58.991 C127.3286,59.259 128.0046,59.397 128.7266,59.397 C129.1586,59.397 129.5506,59.373 129.9006,59.327 C130.2486,59.279 130.5706,59.205 130.8666,59.103 C131.1606,59.001 131.4386,58.869 131.7026,58.707 C131.9666,58.547 132.2266,58.347 132.4866,58.113 C132.5646,58.041 132.6466,57.985 132.7346,57.941 C132.8206,57.899 132.9146,57.877 133.0166,57.877" id="Fill-10"></path>
            <path d="M141.9366,49.6152 C142.6986,49.6152 143.4006,49.7392 144.0406,49.9832 C144.6806,50.2252 145.2326,50.5792 145.6966,51.0472 C146.1586,51.5152 146.5206,52.0872 146.7806,52.7672 C147.0386,53.4472 147.1686,54.2252 147.1686,55.0952 C147.1686,55.3172 147.1586,55.4972 147.1386,55.6452 C147.1186,55.7892 147.0846,55.9032 147.0326,55.9872 C146.9826,56.0692 146.9126,56.1252 146.8266,56.1612 C146.7406,56.1972 146.6306,56.2152 146.4966,56.2152 L139.0266,56.2152 C139.1126,57.4552 139.4466,58.3672 140.0286,58.9492 C140.6086,59.5292 141.3786,59.8232 142.3366,59.8232 C142.8086,59.8232 143.2146,59.7652 143.5566,59.6572 C143.8986,59.5452 144.1966,59.4232 144.4526,59.2892 C144.7086,59.1572 144.9326,59.0352 145.1246,58.9252 C145.3166,58.8172 145.5026,58.7592 145.6846,58.7592 C145.8026,58.7592 145.9046,58.7832 145.9906,58.8312 C146.0766,58.8772 146.1506,58.9452 146.2146,59.0312 L147.0626,60.0912 C146.7406,60.4712 146.3786,60.7852 145.9786,61.0392 C145.5786,61.2952 145.1586,61.4992 144.7226,61.6552 C144.2866,61.8072 143.8446,61.9132 143.3926,61.9792 C142.9406,62.0392 142.5026,62.0732 142.0786,62.0732 C141.2366,62.0732 140.4566,61.9312 139.7326,61.6552 C139.0106,61.3732 138.3806,60.9612 137.8486,60.4152 C137.3126,59.8692 136.8926,59.1932 136.5866,58.3912 C136.2806,57.5832 136.1266,56.6532 136.1266,55.5892 C136.1266,54.7652 136.2606,53.9912 136.5286,53.2632 C136.7946,52.5352 137.1786,51.9052 137.6766,51.3652 C138.1746,50.8272 138.7846,50.4032 139.5026,50.0872 C140.2226,49.7732 141.0326,49.6152 141.9366,49.6152 M141.9946,51.7012 C141.1466,51.7012 140.4826,51.9412 140.0046,52.4192 C139.5246,52.9012 139.2186,53.5792 139.0846,54.4592 L144.5526,54.4592 C144.5526,54.0812 144.5006,53.7272 144.3986,53.3932 C144.2966,53.0592 144.1406,52.7652 143.9286,52.5132 C143.7166,52.2632 143.4486,52.0672 143.1266,51.9192 C142.8046,51.7732 142.4266,51.7012 141.9946,51.7012" id="Fill-11"></path>
            <path d="M149.5372,61.8946 L149.5372,49.8046 L151.3172,49.8046 C151.6932,49.8046 151.9412,49.9806 152.0592,50.3346 L152.2592,51.2886 C152.5032,51.0366 152.7592,50.8106 153.0312,50.6046 C153.3012,50.4006 153.5892,50.2246 153.8912,50.0746 C154.1932,49.9266 154.5172,49.8126 154.8632,49.7326 C155.2092,49.6546 155.5872,49.6146 155.9952,49.6146 C156.6552,49.6146 157.2392,49.7266 157.7512,49.9506 C158.2612,50.1746 158.6872,50.4886 159.0292,50.8946 C159.3712,51.2986 159.6312,51.7826 159.8072,52.3466 C159.9832,52.9046 160.0732,53.5246 160.0732,54.1986 L160.0732,61.8946 L157.1612,61.8946 L157.1612,54.1986 C157.1612,53.4606 156.9912,52.8886 156.6492,52.4846 C156.3072,52.0806 155.7952,51.8786 155.1112,51.8786 C154.6072,51.8786 154.1372,51.9926 153.6972,52.2206 C153.2572,52.4486 152.8412,52.7586 152.4472,53.1506 L152.4472,61.8946 L149.5372,61.8946 Z" id="Fill-12"></path>
            <path d="M166.9062,62.084 C165.8622,62.084 165.0562,61.788 164.4902,61.194 C163.9242,60.602 163.6422,59.782 163.6422,58.738 L163.6422,51.982 L162.4162,51.982 C162.2582,51.982 162.1242,51.934 162.0102,51.832 C161.8962,51.728 161.8382,51.576 161.8382,51.372 L161.8382,50.216 L163.7842,49.898 L164.3962,46.6 C164.4282,46.442 164.5002,46.32 164.6142,46.232 C164.7282,46.146 164.8722,46.104 165.0442,46.104 L166.5522,46.104 L166.5522,49.91 L169.7342,49.91 L169.7342,51.982 L166.5522,51.982 L166.5522,58.536 C166.5522,58.914 166.6462,59.208 166.8362,59.42 C167.0242,59.63 167.2762,59.738 167.5902,59.738 C167.7702,59.738 167.9222,59.716 168.0442,59.674 C168.1642,59.63 168.2702,59.586 168.3622,59.538 C168.4522,59.492 168.5322,59.446 168.6022,59.404 C168.6742,59.36 168.7442,59.338 168.8142,59.338 C168.9022,59.338 168.9722,59.36 169.0282,59.404 C169.0822,59.446 169.1402,59.512 169.2042,59.598 L170.0762,61.012 C169.6522,61.366 169.1642,61.63 168.6142,61.812 C168.0642,61.994 167.4962,62.084 166.9062,62.084" id="Fill-13"></path>
            <path d="M177.0528,49.6152 C177.8148,49.6152 178.5168,49.7392 179.1568,49.9832 C179.7968,50.2252 180.3488,50.5792 180.8128,51.0472 C181.2748,51.5152 181.6368,52.0872 181.8968,52.7672 C182.1548,53.4472 182.2848,54.2252 182.2848,55.0952 C182.2848,55.3172 182.2748,55.4972 182.2548,55.6452 C182.2348,55.7892 182.2008,55.9032 182.1488,55.9872 C182.0988,56.0692 182.0288,56.1252 181.9428,56.1612 C181.8568,56.1972 181.7468,56.2152 181.6128,56.2152 L174.1428,56.2152 C174.2288,57.4552 174.5628,58.3672 175.1448,58.9492 C175.7248,59.5292 176.4948,59.8232 177.4528,59.8232 C177.9248,59.8232 178.3308,59.7652 178.6728,59.6572 C179.0148,59.5452 179.3128,59.4232 179.5688,59.2892 C179.8248,59.1572 180.0488,59.0352 180.2408,58.9252 C180.4328,58.8172 180.6188,58.7592 180.8008,58.7592 C180.9188,58.7592 181.0208,58.7832 181.1068,58.8312 C181.1928,58.8772 181.2668,58.9452 181.3308,59.0312 L182.1788,60.0912 C181.8568,60.4712 181.4948,60.7852 181.0948,61.0392 C180.6948,61.2952 180.2748,61.4992 179.8388,61.6552 C179.4028,61.8072 178.9608,61.9132 178.5088,61.9792 C178.0568,62.0392 177.6188,62.0732 177.1948,62.0732 C176.3528,62.0732 175.5728,61.9312 174.8488,61.6552 C174.1268,61.3732 173.4988,60.9612 172.9648,60.4152 C172.4288,59.8692 172.0088,59.1932 171.7028,58.3912 C171.3968,57.5832 171.2428,56.6532 171.2428,55.5892 C171.2428,54.7652 171.3768,53.9912 171.6448,53.2632 C171.9108,52.5352 172.2948,51.9052 172.7928,51.3652 C173.2908,50.8272 173.9008,50.4032 174.6188,50.0872 C175.3388,49.7732 176.1488,49.6152 177.0528,49.6152 M177.1108,51.7012 C176.2628,51.7012 175.5988,51.9412 175.1208,52.4192 C174.6408,52.9012 174.3348,53.5792 174.2008,54.4592 L179.6688,54.4592 C179.6688,54.0812 179.6168,53.7272 179.5168,53.3932 C179.4128,53.0592 179.2568,52.7652 179.0448,52.5132 C178.8328,52.2632 178.5648,52.0672 178.2428,51.9192 C177.9208,51.7732 177.5428,51.7012 177.1108,51.7012" id="Fill-14"></path>
            <path d="M184.6534,61.8946 L184.6534,49.8046 L186.3614,49.8046 C186.6614,49.8046 186.8694,49.8586 186.9874,49.9686 C187.1054,50.0786 187.1834,50.2706 187.2214,50.5346 L187.3994,51.9966 C187.8314,51.2506 188.3374,50.6606 188.9194,50.2286 C189.5014,49.7966 190.1534,49.5806 190.8754,49.5806 C191.4734,49.5806 191.9674,49.7186 192.3594,49.9926 L191.9834,52.1726 C191.9594,52.3146 191.9094,52.4146 191.8294,52.4726 C191.7514,52.5326 191.6454,52.5606 191.5114,52.5606 C191.3934,52.5606 191.2334,52.5346 191.0294,52.4786 C190.8234,52.4246 190.5534,52.3966 190.2154,52.3966 C189.6114,52.3966 189.0914,52.5646 188.6594,52.8966 C188.2274,53.2306 187.8634,53.7206 187.5634,54.3646 L187.5634,61.8946 L184.6534,61.8946 Z" id="Fill-15"></path>
            <path d="M12.3194,49.6466 L12.3194,49.0866 C12.3194,47.4726 11.0174,46.1626 9.4174,46.1626 L2.1354,46.1626 C0.9654,48.0226 0.2774,50.2166 0.2454,52.5706 L9.4174,52.5706 C11.0174,52.5706 12.3194,51.2626 12.3194,49.6466" id="Fill-16"></path>
            <path d="M15.587,59.0234 L23.053,59.0234 C24.133,57.1854 24.751,55.0434 24.751,52.7534 C24.751,52.7054 24.749,52.6614 24.749,52.6134 L15.587,52.6134 C13.987,52.6134 12.685,53.9254 12.685,55.5374 L12.685,56.0994 C12.685,57.7134 13.987,59.0234 15.587,59.0234" id="Fill-17"></path>
            <path d="M9.418,44.213 C12.086,44.213 14.256,46.399 14.256,49.085 L14.256,49.647 C14.256,50.083 14.198,50.505 14.09,50.907 C14.562,50.751 15.066,50.665 15.588,50.665 L24.576,50.665 C23.59,44.843 18.558,40.413 12.496,40.413 C9.02,40.413 5.88,41.873 3.652,44.213 L9.418,44.213 Z" id="Fill-18"></path>
            <path d="M15.587,60.9726 C12.919,60.9726 10.749,58.7866 10.749,56.0986 L10.749,55.5366 C10.749,55.1006 10.809,54.6806 10.915,54.2786 C10.443,54.4346 9.941,54.5186 9.417,54.5186 L0.367,54.5186 C1.217,60.4986 6.323,65.0966 12.495,65.0966 C16.131,65.0966 19.393,63.5046 21.639,60.9726 L15.587,60.9726 Z" id="Fill-19"></path>
            <polygon id="Fill-20" points="43.3154 1.1406 43.3154 7.1146 42.0034 7.1146 42.0034 1.1406 39.8554 1.1406 39.8554 0.0006 45.4754 0.0006 45.4754 1.1406"></polygon>
            <polygon id="Fill-21" points="54.2568 7.1152 54.2568 4.1352 51.3848 4.1352 51.3848 7.1152 50.1348 7.1152 50.1348 -0.0008 51.3848 -0.0008 51.3848 2.9572 54.2568 2.9572 54.2568 -0.0008 55.5068 -0.0008 55.5068 7.1152"></polygon>
            <polygon id="Fill-22" points="60.5498 7.1152 60.5498 5.9972 61.5798 5.9972 61.5798 1.1152 60.5498 1.1152 60.5498 -0.0008 63.8618 -0.0008 63.8618 1.1152 62.8198 1.1152 62.8198 5.9972 63.8618 5.9972 63.8618 7.1152"></polygon>
            <path d="M72.4112,7.1406 L70.5212,7.1406 C69.5152,7.1406 68.7792,6.4406 68.7792,5.4846 L68.7792,5.0286 L70.0072,5.0286 L70.0072,5.5446 C70.0072,5.7906 70.2152,5.9986 70.4352,5.9986 L72.4972,5.9986 C72.7172,5.9986 72.9252,5.7906 72.9252,5.5446 L72.9252,4.6246 C72.9252,3.9006 71.4792,4.1466 70.5712,4.1206 C69.5772,4.0866 68.8292,3.4226 68.8292,2.4526 L68.8292,1.6566 C68.8292,0.6986 69.5652,0.0006 70.5712,0.0006 L72.3132,0.0006 C73.3192,0.0006 74.0552,0.6986 74.0552,1.6566 L74.0552,2.1226 L72.8272,2.1226 L72.8272,1.5946 C72.8272,1.3486 72.6192,1.1406 72.3992,1.1406 L70.4852,1.1406 C70.2632,1.1406 70.0552,1.3486 70.0552,1.5946 L70.0552,2.5266 C70.0552,3.2506 71.5032,3.0066 72.4112,3.0166 C73.3932,3.0426 74.1532,3.7166 74.1532,4.6846 L74.1532,5.4846 C74.1532,6.4406 73.4172,7.1406 72.4112,7.1406" id="Fill-23"></path>
            <path d="M90.3906,1.5704 C90.3906,1.3244 90.1826,1.1144 89.9606,1.1144 L87.6666,1.1144 L87.6666,3.0064 L89.9606,3.0064 C90.1826,3.0064 90.3906,2.7964 90.3906,2.5644 L90.3906,1.5704 Z M89.8746,4.1464 L87.6666,4.1464 L87.6666,7.1144 L86.4406,7.1144 L86.4406,0.0004 L89.8746,0.0004 C90.8826,0.0004 91.6166,0.6984 91.6166,1.6564 L91.6166,2.4784 C91.6166,3.4364 90.8826,4.1464 89.8746,4.1464 Z" id="Fill-24"></path>
            <path d="M100.6094,1.5704 C100.6094,1.3124 100.3894,1.0804 100.1794,1.0804 L97.7514,1.0804 L97.7514,2.9684 L100.0454,2.9684 C100.4994,2.9684 100.6094,2.8464 100.6094,2.4164 L100.6094,1.5704 Z M100.6094,7.1144 L100.6094,4.7344 C100.6094,4.2804 100.4994,4.1464 100.1074,4.1464 L97.7514,4.1464 L97.7514,7.1144 L96.5354,7.1144 L96.5354,0.0004 L100.1174,0.0004 C101.1234,0.0004 101.8594,0.6984 101.8594,1.6564 L101.8594,2.4304 C101.8594,3.0284 101.5914,3.3624 101.3814,3.5444 C101.6034,3.7044 101.8594,4.0244 101.8594,4.5764 L101.8594,7.1144 L100.6094,7.1144 Z" id="Fill-25"></path>
            <path d="M111.294,1.5938 C111.294,1.3498 111.086,1.1398 110.866,1.1398 L108.558,1.1398 C108.338,1.1398 108.128,1.3498 108.128,1.5938 L108.128,5.5198 C108.128,5.7658 108.338,5.9738 108.558,5.9738 L110.866,5.9738 C111.086,5.9738 111.294,5.7658 111.294,5.5198 L111.294,1.5938 Z M110.78,7.1158 L108.644,7.1158 C107.638,7.1158 106.902,6.4158 106.902,5.4598 L106.902,1.6558 C106.902,0.6998 107.638,-0.0002 108.644,-0.0002 L110.78,-0.0002 C111.786,-0.0002 112.522,0.6998 112.522,1.6558 L112.522,5.4598 C112.522,6.4158 111.786,7.1158 110.78,7.1158 Z" id="Fill-26"></path>
            <path d="M121.415,1.0918 L121.415,5.4598 C121.415,6.4038 120.691,7.1158 119.685,7.1158 L118.691,7.1158 C117.685,7.1158 116.949,6.4158 116.949,5.4598 L116.949,4.9438 L118.175,4.9438 L118.175,5.5698 C118.175,5.7918 118.373,5.9738 118.605,5.9738 L119.747,5.9738 C119.979,5.9738 120.175,5.7918 120.175,5.5698 L120.175,1.0918 L119.059,1.0918 L119.059,-0.0002 L122.433,-0.0002 L122.433,1.0918 L121.415,1.0918 Z" id="Fill-27"></path>
            <polygon id="Fill-28" points="127.1054 7.1152 127.1054 -0.0008 131.7194 -0.0008 131.7194 1.1412 128.3314 1.1412 128.3314 2.9812 130.9574 2.9812 130.9574 4.1472 128.3314 4.1472 128.3314 5.9752 131.7194 5.9752 131.7194 7.1152"></polygon>
            <path d="M140.379,7.1152 L138.489,7.1152 C137.483,7.1152 136.747,6.4152 136.747,5.4592 L136.747,1.6572 C136.747,0.6992 137.483,-0.0008 138.489,-0.0008 L140.403,-0.0008 C141.421,-0.0008 142.121,0.7852 142.121,1.7312 L142.121,2.1572 L140.869,2.1572 L140.869,1.6192 C140.869,1.3732 140.661,1.1652 140.439,1.1652 L138.427,1.1652 C138.207,1.1652 137.999,1.3732 137.999,1.6192 L137.999,5.5072 C137.999,5.7532 138.207,5.9632 138.427,5.9632 L140.439,5.9632 C140.661,5.9632 140.869,5.7532 140.869,5.5072 L140.869,4.9572 L142.121,4.9572 L142.121,5.4592 C142.121,6.4152 141.385,7.1152 140.379,7.1152" id="Fill-29"></path>
            <polygon id="Fill-30" points="150.254 1.1406 150.254 7.1146 148.942 7.1146 148.942 1.1406 146.794 1.1406 146.794 0.0006 152.414 0.0006 152.414 1.1406"></polygon>
            <path d="M170.3066,5.9004 L169.4846,7.1144 L168.3806,7.1144 L167.5966,5.8764 L166.8226,7.1144 L165.7066,7.1144 L164.8966,5.9004 C164.6386,5.5204 164.4546,5.1784 164.4546,4.6624 L164.4546,0.0004 L165.7186,0.0004 L165.7186,4.6744 C165.7186,5.1144 166.0866,5.5564 166.3066,5.9264 C166.4306,5.5324 166.9826,5.0284 166.9826,4.6364 L166.9826,1.8644 L168.2086,1.8644 L168.2086,4.6364 C168.2086,4.7964 168.2586,4.8944 168.3806,5.0924 L168.9206,5.8764 C169.1286,5.5204 169.4726,5.1144 169.4726,4.6744 L169.4726,0.0004 L170.7366,0.0004 L170.7366,4.6624 C170.7366,5.1784 170.5526,5.5204 170.3066,5.9004" id="Fill-31"></path>
            <path d="M179.9384,2.8458 C179.9384,2.5878 179.9264,2.5278 179.7784,2.3798 L178.4664,1.0798 C178.4044,1.1778 177.1784,2.3798 177.1784,2.3798 C177.0304,2.5278 177.0184,2.5878 177.0184,2.8458 L177.0184,3.7918 L179.9384,3.7918 L179.9384,2.8458 Z M181.1784,7.1158 L179.9384,7.1158 L179.9384,4.8718 L177.0184,4.8718 L177.0184,7.1158 L175.7784,7.1158 L175.7784,2.7858 C175.7784,2.2818 175.8644,1.9638 176.2444,1.6078 L177.9384,-0.0002 L179.0184,-0.0002 L180.7104,1.6078 C181.0924,1.9638 181.1784,2.2818 181.1784,2.7858 L181.1784,7.1158 Z" id="Fill-32"></path>
            <path d="M189.7276,7.1406 L187.8376,7.1406 C186.8316,7.1406 186.0956,6.4406 186.0956,5.4846 L186.0956,5.0286 L187.3236,5.0286 L187.3236,5.5446 C187.3236,5.7906 187.5316,5.9986 187.7516,5.9986 L189.8136,5.9986 C190.0336,5.9986 190.2416,5.7906 190.2416,5.5446 L190.2416,4.6246 C190.2416,3.9006 188.7956,4.1466 187.8876,4.1206 C186.8936,4.0866 186.1456,3.4226 186.1456,2.4526 L186.1456,1.6566 C186.1456,0.6986 186.8816,0.0006 187.8876,0.0006 L189.6296,0.0006 C190.6356,0.0006 191.3716,0.6986 191.3716,1.6566 L191.3716,2.1226 L190.1436,2.1226 L190.1436,1.5946 C190.1436,1.3486 189.9356,1.1406 189.7156,1.1406 L187.8016,1.1406 C187.5796,1.1406 187.3716,1.3486 187.3716,1.5946 L187.3716,2.5266 C187.3716,3.2506 188.8196,3.0066 189.7276,3.0166 C190.7096,3.0426 191.4696,3.7166 191.4696,4.6846 L191.4696,5.4846 C191.4696,6.4406 190.7336,7.1406 189.7276,7.1406" id="Fill-33"></path>
            <path d="M4.6132,19.3966 L4.6132,14.3186 L3.3132,15.8146 L2.5512,15.8146 L1.2512,14.3186 L1.2512,19.3966 L-0.0008,19.3966 L-0.0008,12.2806 L1.0192,12.2806 L2.9692,14.5506 C3.0172,14.4046 4.8452,12.2806 4.8452,12.2806 L5.8632,12.2806 L5.8632,19.3966 L4.6132,19.3966 Z" id="Fill-34"></path>
            <path d="M15.0654,15.127 C15.0654,14.869 15.0534,14.809 14.9054,14.661 L13.5934,13.361 C13.5314,13.459 12.3054,14.661 12.3054,14.661 C12.1574,14.809 12.1454,14.869 12.1454,15.127 L12.1454,16.073 L15.0654,16.073 L15.0654,15.127 Z M16.3054,19.397 L15.0654,19.397 L15.0654,17.153 L12.1454,17.153 L12.1454,19.397 L10.9054,19.397 L10.9054,15.067 C10.9054,14.563 10.9914,14.245 11.3714,13.889 L13.0654,12.281 L14.1454,12.281 L15.8374,13.889 C16.2194,14.245 16.3054,14.563 16.3054,15.067 L16.3054,19.397 Z" id="Fill-35"></path>
            <path d="M25.4922,13.875 C25.4922,13.631 25.2842,13.421 25.0622,13.421 L22.5722,13.421 L22.5722,18.255 L25.0622,18.255 C25.2842,18.255 25.4922,18.047 25.4922,17.801 L25.4922,13.875 Z M25.0022,19.397 L21.3462,19.397 L21.3462,12.281 L25.0022,12.281 C26.0082,12.281 26.7442,12.981 26.7442,13.937 L26.7442,17.741 C26.7442,18.697 26.0082,19.397 25.0022,19.397 Z" id="Fill-36"></path>
            <polygon id="Fill-37" points="31.7852 19.3966 31.7852 12.2806 36.3992 12.2806 36.3992 13.4226 33.0112 13.4226 33.0112 15.2626 35.6372 15.2626 35.6372 16.4286 33.0112 16.4286 33.0112 18.2566 36.3992 18.2566 36.3992 19.3966"></polygon>
            <path d="M52.746,13.8516 C52.746,13.6056 52.538,13.3956 52.316,13.3956 L50.022,13.3956 L50.022,15.2876 L52.316,15.2876 C52.538,15.2876 52.746,15.0776 52.746,14.8456 L52.746,13.8516 Z M52.23,16.4276 L50.022,16.4276 L50.022,19.3956 L48.796,19.3956 L48.796,12.2816 L52.23,12.2816 C53.238,12.2816 53.972,12.9796 53.972,13.9376 L53.972,14.7596 C53.972,15.7176 53.238,16.4276 52.23,16.4276 Z" id="Fill-38"></path>
            <path d="M63.2832,13.875 C63.2832,13.631 63.0752,13.421 62.8552,13.421 L60.5472,13.421 C60.3272,13.421 60.1172,13.631 60.1172,13.875 L60.1172,17.801 C60.1172,18.047 60.3272,18.255 60.5472,18.255 L62.8552,18.255 C63.0752,18.255 63.2832,18.047 63.2832,17.801 L63.2832,13.875 Z M62.7692,19.397 L60.6332,19.397 C59.6272,19.397 58.8912,18.697 58.8912,17.741 L58.8912,13.937 C58.8912,12.981 59.6272,12.281 60.6332,12.281 L62.7692,12.281 C63.7752,12.281 64.5112,12.981 64.5112,13.937 L64.5112,17.741 C64.5112,18.697 63.7752,19.397 62.7692,19.397 Z" id="Fill-39"></path>
            <path d="M73.0606,19.422 L71.1706,19.422 C70.1646,19.422 69.4286,18.722 69.4286,17.766 L69.4286,17.31 L70.6566,17.31 L70.6566,17.826 C70.6566,18.072 70.8646,18.28 71.0846,18.28 L73.1466,18.28 C73.3666,18.28 73.5766,18.072 73.5766,17.826 L73.5766,16.906 C73.5766,16.182 72.1286,16.428 71.2206,16.402 C70.2266,16.368 69.4786,15.704 69.4786,14.734 L69.4786,13.938 C69.4786,12.98 70.2146,12.282 71.2206,12.282 L72.9626,12.282 C73.9686,12.282 74.7046,12.98 74.7046,13.938 L74.7046,14.404 L73.4766,14.404 L73.4766,13.876 C73.4766,13.63 73.2686,13.422 73.0486,13.422 L71.1346,13.422 C70.9126,13.422 70.7046,13.63 70.7046,13.876 L70.7046,14.808 C70.7046,15.532 72.1526,15.288 73.0606,15.298 C74.0426,15.324 74.8026,15.998 74.8026,16.966 L74.8026,17.766 C74.8026,18.722 74.0666,19.422 73.0606,19.422" id="Fill-40"></path>
            <path d="M83.2304,19.422 L81.3404,19.422 C80.3344,19.422 79.5984,18.722 79.5984,17.766 L79.5984,17.31 L80.8264,17.31 L80.8264,17.826 C80.8264,18.072 81.0344,18.28 81.2544,18.28 L83.3164,18.28 C83.5364,18.28 83.7464,18.072 83.7464,17.826 L83.7464,16.906 C83.7464,16.182 82.2984,16.428 81.3904,16.402 C80.3964,16.368 79.6484,15.704 79.6484,14.734 L79.6484,13.938 C79.6484,12.98 80.3844,12.282 81.3904,12.282 L83.1324,12.282 C84.1384,12.282 84.8744,12.98 84.8744,13.938 L84.8744,14.404 L83.6464,14.404 L83.6464,13.876 C83.6464,13.63 83.4384,13.422 83.2184,13.422 L81.3044,13.422 C81.0824,13.422 80.8744,13.63 80.8744,13.876 L80.8744,14.808 C80.8744,15.532 82.3224,15.288 83.2304,15.298 C84.2124,15.324 84.9724,15.998 84.9724,16.966 L84.9724,17.766 C84.9724,18.722 84.2364,19.422 83.2304,19.422" id="Fill-41"></path>
            <polygon id="Fill-42" points="89.8906 19.3966 89.8906 18.2786 90.9206 18.2786 90.9206 13.3966 89.8906 13.3966 89.8906 12.2806 93.2026 12.2806 93.2026 13.3966 92.1606 13.3966 92.1606 18.2786 93.2026 18.2786 93.2026 19.3966"></polygon>
            <path d="M102.1924,16.9434 C102.1924,16.4874 102.0824,16.3534 101.6904,16.3534 L99.4564,16.3534 L99.4564,18.3054 L101.7624,18.3054 C101.9724,18.3054 102.1924,18.0714 102.1924,17.8154 L102.1924,16.9434 Z M102.1924,13.8754 C102.1924,13.6194 101.9724,13.3854 101.7624,13.3854 L99.4564,13.3854 L99.4564,15.2374 L101.6404,15.2374 C102.0824,15.2374 102.1924,15.1034 102.1924,14.6734 L102.1924,13.8754 Z M101.6784,19.3974 L98.2424,19.3974 L98.2424,12.2814 L101.6784,12.2814 C102.6844,12.2814 103.4424,13.0034 103.4424,13.9614 L103.4424,14.6854 C103.4424,15.2874 103.1864,15.6314 102.9664,15.8034 C103.1864,15.9754 103.4424,16.2814 103.4424,16.8314 L103.4424,17.7154 C103.4424,18.6714 102.6844,19.3974 101.6784,19.3974 Z" id="Fill-43"></path>
            <polygon id="Fill-44" points="108.4736 19.3966 108.4736 12.2806 109.7496 12.2806 109.7496 18.2566 112.9396 18.2566 112.9396 19.3966"></polygon>
            <polygon id="Fill-45" points="117.7344 19.3966 117.7344 12.2806 122.3484 12.2806 122.3484 13.4226 118.9604 13.4226 118.9604 15.2626 121.5864 15.2626 121.5864 16.4286 118.9604 16.4286 118.9604 18.2566 122.3484 18.2566 122.3484 19.3966"></polygon>
            <polygon id="Fill-46" points="137.836 13.422 137.836 19.396 136.524 19.396 136.524 13.422 134.376 13.422 134.376 12.282 139.996 12.282 139.996 13.422"></polygon>
            <polygon id="Fill-47" points="148.79 19.3966 148.79 16.4166 145.918 16.4166 145.918 19.3966 144.668 19.3966 144.668 12.2806 145.918 12.2806 145.918 15.2386 148.79 15.2386 148.79 12.2806 150.04 12.2806 150.04 19.3966"></polygon>
            <path d="M159.2422,15.127 C159.2422,14.869 159.2302,14.809 159.0822,14.661 L157.7702,13.361 C157.7082,13.459 156.4822,14.661 156.4822,14.661 C156.3342,14.809 156.3222,14.869 156.3222,15.127 L156.3222,16.073 L159.2422,16.073 L159.2422,15.127 Z M160.4802,19.397 L159.2422,19.397 L159.2422,17.153 L156.3222,17.153 L156.3222,19.397 L155.0822,19.397 L155.0822,15.067 C155.0822,14.563 155.1682,14.245 155.5482,13.889 L157.2422,12.281 L158.3222,12.281 L160.0142,13.889 C160.3962,14.245 160.4802,14.563 160.4802,15.067 L160.4802,19.397 Z" id="Fill-48"></path>
            <polygon id="Fill-49" points="169.6202 19.3966 169.6202 17.2386 166.7742 14.2686 166.7742 19.3966 165.5222 19.3966 165.5222 12.2806 166.5782 12.2806 169.6202 15.4826 169.6202 12.2806 170.8702 12.2806 170.8702 19.3966"></polygon>
            <polygon id="Fill-50" points="180.3174 19.6056 178.0114 16.2936 177.1774 17.2016 177.1774 19.4076 175.9134 19.4076 175.9134 12.2816 177.1774 12.2816 177.1774 15.5076 180.4514 12.1576 181.3714 12.9916 178.9554 15.4336 181.4214 18.9056"></polygon>
            <path d="M189.7022,19.422 L187.8122,19.422 C186.8062,19.422 186.0702,18.722 186.0702,17.766 L186.0702,17.31 L187.2982,17.31 L187.2982,17.826 C187.2982,18.072 187.5062,18.28 187.7262,18.28 L189.7882,18.28 C190.0082,18.28 190.2162,18.072 190.2162,17.826 L190.2162,16.906 C190.2162,16.182 188.7702,16.428 187.8622,16.402 C186.8682,16.368 186.1202,15.704 186.1202,14.734 L186.1202,13.938 C186.1202,12.98 186.8562,12.282 187.8622,12.282 L189.6042,12.282 C190.6102,12.282 191.3462,12.98 191.3462,13.938 L191.3462,14.404 L190.1182,14.404 L190.1182,13.876 C190.1182,13.63 189.9102,13.422 189.6902,13.422 L187.7762,13.422 C187.5542,13.422 187.3462,13.63 187.3462,13.876 L187.3462,14.808 C187.3462,15.532 188.7942,15.288 189.7022,15.298 C190.6842,15.324 191.4442,15.998 191.4442,16.966 L191.4442,17.766 C191.4442,18.722 190.7082,19.422 189.7022,19.422" id="Fill-51"></path>
            <polygon id="Fill-52" points="51.1876 25.7032 51.1876 31.6772 49.8756 31.6772 49.8756 25.7032 47.7276 25.7032 47.7276 24.5632 53.3476 24.5632 53.3476 25.7032"></polygon>
            <path d="M62.3984,26.1562 C62.3984,25.9122 62.1904,25.7022 61.9704,25.7022 L59.6624,25.7022 C59.4424,25.7022 59.2324,25.9122 59.2324,26.1562 L59.2324,30.0822 C59.2324,30.3282 59.4424,30.5362 59.6624,30.5362 L61.9704,30.5362 C62.1904,30.5362 62.3984,30.3282 62.3984,30.0822 L62.3984,26.1562 Z M61.8844,31.6782 L59.7484,31.6782 C58.7424,31.6782 58.0064,30.9782 58.0064,30.0222 L58.0064,26.2182 C58.0064,25.2622 58.7424,24.5622 59.7484,24.5622 L61.8844,24.5622 C62.8904,24.5622 63.6264,25.2622 63.6264,26.2182 L63.6264,30.0222 C63.6264,30.9782 62.8904,31.6782 61.8844,31.6782 Z" id="Fill-53"></path>
            <path d="M79.5458,31.7032 L77.6558,31.7032 C76.6498,31.7032 75.9138,31.0032 75.9138,30.0472 L75.9138,29.5912 L77.1418,29.5912 L77.1418,30.1072 C77.1418,30.3532 77.3498,30.5612 77.5698,30.5612 L79.6318,30.5612 C79.8518,30.5612 80.0598,30.3532 80.0598,30.1072 L80.0598,29.1872 C80.0598,28.4632 78.6138,28.7092 77.7058,28.6832 C76.7118,28.6492 75.9638,27.9852 75.9638,27.0152 L75.9638,26.2192 C75.9638,25.2612 76.6998,24.5632 77.7058,24.5632 L79.4478,24.5632 C80.4538,24.5632 81.1898,25.2612 81.1898,26.2192 L81.1898,26.6852 L79.9618,26.6852 L79.9618,26.1572 C79.9618,25.9112 79.7538,25.7032 79.5338,25.7032 L77.6198,25.7032 C77.3978,25.7032 77.1898,25.9112 77.1898,26.1572 L77.1898,27.0892 C77.1898,27.8132 78.6378,27.5692 79.5458,27.5792 C80.5278,27.6052 81.2878,28.2792 81.2878,29.2472 L81.2878,30.0472 C81.2878,31.0032 80.5518,31.7032 79.5458,31.7032" id="Fill-54"></path>
            <path d="M89.8378,31.6778 L87.9478,31.6778 C86.9418,31.6778 86.2058,30.9778 86.2058,30.0218 L86.2058,24.5618 L87.4818,24.5618 L87.4818,30.0818 C87.4818,30.3278 87.6898,30.5378 87.9118,30.5378 L89.8738,30.5378 C90.0938,30.5378 90.3038,30.3278 90.3038,30.0818 L90.3038,24.5618 L91.5798,24.5618 L91.5798,30.0218 C91.5798,30.9778 90.8438,31.6778 89.8378,31.6778" id="Fill-55"></path>
            <path d="M100.5712,26.1328 C100.5712,25.8868 100.3632,25.6768 100.1412,25.6768 L97.8472,25.6768 L97.8472,27.5688 L100.1412,27.5688 C100.3632,27.5688 100.5712,27.3588 100.5712,27.1268 L100.5712,26.1328 Z M100.0572,28.7088 L97.8472,28.7088 L97.8472,31.6768 L96.6212,31.6768 L96.6212,24.5628 L100.0572,24.5628 C101.0632,24.5628 101.7972,25.2608 101.7972,26.2188 L101.7972,27.0408 C101.7972,27.9988 101.0632,28.7088 100.0572,28.7088 Z" id="Fill-56"></path>
            <path d="M110.667,26.1328 C110.667,25.8868 110.459,25.6768 110.237,25.6768 L107.943,25.6768 L107.943,27.5688 L110.237,27.5688 C110.459,27.5688 110.667,27.3588 110.667,27.1268 L110.667,26.1328 Z M110.153,28.7088 L107.943,28.7088 L107.943,31.6768 L106.717,31.6768 L106.717,24.5628 L110.153,24.5628 C111.159,24.5628 111.893,25.2608 111.893,26.2188 L111.893,27.0408 C111.893,27.9988 111.159,28.7088 110.153,28.7088 Z" id="Fill-57"></path>
            <path d="M121.2042,26.1562 C121.2042,25.9122 120.9962,25.7022 120.7762,25.7022 L118.4682,25.7022 C118.2482,25.7022 118.0382,25.9122 118.0382,26.1562 L118.0382,30.0822 C118.0382,30.3282 118.2482,30.5362 118.4682,30.5362 L120.7762,30.5362 C120.9962,30.5362 121.2042,30.3282 121.2042,30.0822 L121.2042,26.1562 Z M120.6902,31.6782 L118.5542,31.6782 C117.5482,31.6782 116.8122,30.9782 116.8122,30.0222 L116.8122,26.2182 C116.8122,25.2622 117.5482,24.5622 118.5542,24.5622 L120.6902,24.5622 C121.6962,24.5622 122.4322,25.2622 122.4322,26.2182 L122.4322,30.0222 C122.4322,30.9782 121.6962,31.6782 120.6902,31.6782 Z" id="Fill-58"></path>
            <path d="M131.5468,26.1328 C131.5468,25.8748 131.3268,25.6428 131.1168,25.6428 L128.6888,25.6428 L128.6888,27.5308 L130.9828,27.5308 C131.4368,27.5308 131.5468,27.4088 131.5468,26.9788 L131.5468,26.1328 Z M131.5468,31.6768 L131.5468,29.2968 C131.5468,28.8428 131.4368,28.7088 131.0448,28.7088 L128.6888,28.7088 L128.6888,31.6768 L127.4728,31.6768 L127.4728,24.5628 L131.0548,24.5628 C132.0608,24.5628 132.7968,25.2608 132.7968,26.2188 L132.7968,26.9928 C132.7968,27.5908 132.5288,27.9248 132.3188,28.1068 C132.5408,28.2668 132.7968,28.5868 132.7968,29.1388 L132.7968,31.6768 L131.5468,31.6768 Z" id="Fill-59"></path>
            <polygon id="Fill-60" points="140.9316 25.7032 140.9316 31.6772 139.6196 31.6772 139.6196 25.7032 137.4716 25.7032 137.4716 24.5632 143.0916 24.5632 143.0916 25.7032"></polygon>
            <polygon id="Fill-61" points="156.3466 25.7032 156.3466 27.5432 158.8986 27.5432 158.8986 28.7092 156.3466 28.7092 156.3466 31.6772 155.1206 31.6772 155.1206 24.5632 159.6586 24.5632 159.6586 25.7032"></polygon>
            <path d="M168.5274,26.1328 C168.5274,25.8748 168.3074,25.6428 168.0974,25.6428 L165.6694,25.6428 L165.6694,27.5308 L167.9634,27.5308 C168.4174,27.5308 168.5274,27.4088 168.5274,26.9788 L168.5274,26.1328 Z M168.5274,31.6768 L168.5274,29.2968 C168.5274,28.8428 168.4174,28.7088 168.0254,28.7088 L165.6694,28.7088 L165.6694,31.6768 L164.4534,31.6768 L164.4534,24.5628 L168.0354,24.5628 C169.0414,24.5628 169.7774,25.2608 169.7774,26.2188 L169.7774,26.9928 C169.7774,27.5908 169.5094,27.9248 169.2994,28.1068 C169.5214,28.2668 169.7774,28.5868 169.7774,29.1388 L169.7774,31.6768 L168.5274,31.6768 Z" id="Fill-62"></path>
            <path d="M179.1992,26.1562 C179.1992,25.9122 178.9912,25.7022 178.7712,25.7022 L176.4632,25.7022 C176.2432,25.7022 176.0332,25.9122 176.0332,26.1562 L176.0332,30.0822 C176.0332,30.3282 176.2432,30.5362 176.4632,30.5362 L178.7712,30.5362 C178.9912,30.5362 179.1992,30.3282 179.1992,30.0822 L179.1992,26.1562 Z M178.6852,31.6782 L176.5492,31.6782 C175.5432,31.6782 174.8072,30.9782 174.8072,30.0222 L174.8072,26.2182 C174.8072,25.2622 175.5432,24.5622 176.5492,24.5622 L178.6852,24.5622 C179.6912,24.5622 180.4272,25.2622 180.4272,26.2182 L180.4272,30.0222 C180.4272,30.9782 179.6912,31.6782 178.6852,31.6782 Z" id="Fill-63"></path>
            <path d="M190.082,31.6778 L190.082,26.5998 L188.782,28.0958 L188.02,28.0958 L186.72,26.5998 L186.72,31.6778 L185.468,31.6778 L185.468,24.5618 L186.488,24.5618 L188.438,26.8318 C188.486,26.6858 190.314,24.5618 190.314,24.5618 L191.332,24.5618 L191.332,31.6778 L190.082,31.6778 Z" id="Fill-64"></path>
        </g>
    </g>
</svg>