<?xml version="1.0" encoding="UTF-8"?>
<svg width="100px" height="100px" viewBox="0 0 100 100" version="1.1" xmlns="http://www.w3.org/2000/svg" xmlns:xlink="http://www.w3.org/1999/xlink">
    <!-- Generator: Sketch 51.1 (57501) - http://www.bohemiancoding.com/sketch -->
    <title>Group 4</title>
    <desc>Created with Sketch.</desc>
    <defs></defs>
    <g id="Page-1" stroke="none" stroke-width="1" fill="none" fill-rule="evenodd">
        <g id="Group-4">
            <polygon id="Fill-1" fill="#231F20" points="0 99.2115385 99.2134615 99.2115385 99.2134615 0 0 0"></polygon>
            <path d="M88.3838462,57.7003846 C88.3838462,57.9753846 88.3684615,58.8119231 89.4473077,58.8119231 C90.13,58.8119231 90.5588462,58.4869231 90.5588462,57.9907692 C90.5588462,57.4734615 90.1934615,57.3830769 89.4473077,57.2042308 C88.0511538,56.8561538 87.2876923,56.4426923 87.2876923,55.4253846 C87.2876923,54.4580769 87.9780769,53.6080769 89.6107692,53.6080769 C90.2184615,53.6080769 90.9415385,53.7446154 91.38,54.2965385 C91.7107692,54.7215385 91.7107692,55.1888462 91.7107692,55.3869231 L90.5030769,55.3869231 C90.4857692,55.1811538 90.4223077,54.4946154 89.5511538,54.4946154 C88.9684615,54.4946154 88.5857692,54.81 88.5857692,55.2888462 C88.5857692,55.8311538 89.0165385,55.9311538 89.8607692,56.1388462 C90.8761538,56.3830769 91.8723077,56.6619231 91.8723077,57.8061538 C91.8723077,58.8619231 90.9973077,59.7138462 89.3742308,59.7138462 C87.1261538,59.7138462 87.1088462,58.2676923 87.1011538,57.7003846 L88.3838462,57.7003846 Z M72.1473077,58.3253846 C72.3261538,58.5696154 72.6261538,58.7946154 73.2107692,58.7946154 C73.7223077,58.7946154 74.0723077,58.6176923 74.3069231,58.2523077 C74.5011538,57.96 74.705,57.5042308 74.705,56.5715385 C74.705,56.2869231 74.68,55.8811538 74.5588462,55.5234615 C74.3146154,54.8023077 73.8203846,54.485 73.2184615,54.485 C72.7473077,54.485 72.3742308,54.6811538 72.1396154,54.9811538 C71.8069231,55.3869231 71.7088462,56.0196154 71.7088462,56.685 C71.7088462,57.2446154 71.7973077,57.8715385 72.1473077,58.3253846 Z M73.2107692,53.5811538 C73.8357692,53.5811538 74.6973077,53.7292308 75.2723077,54.3773077 C75.8973077,55.0946154 76.0203846,56.0119231 76.0203846,56.5888462 C76.0203846,57.4407692 75.7607692,58.3503846 75.2819231,58.885 C74.6319231,59.6157692 73.68,59.7215385 73.1953846,59.7215385 C72.4242308,59.7215385 71.6511538,59.4773077 71.1165385,58.9176923 C70.4742308,58.235 70.3934615,57.26 70.3934615,56.7253846 C70.3934615,55.1676923 71.1011538,53.5811538 73.2107692,53.5811538 Z M56.8280769,54.6811538 L55.0819231,54.6811538 L55.0819231,53.7061538 L59.8396154,53.7061538 L59.8396154,54.6811538 L58.0953846,54.6811538 L58.0953846,59.5753846 L56.8280769,59.5753846 L56.8280769,54.6811538 Z M40.6242308,58.3253846 C40.8030769,58.5696154 41.1030769,58.7946154 41.6876923,58.7946154 C42.1992308,58.7946154 42.5473077,58.6176923 42.7838462,58.2523077 C42.9780769,57.96 43.1819231,57.5042308 43.1819231,56.5715385 C43.1819231,56.2869231 43.1569231,55.8811538 43.0357692,55.5234615 C42.7915385,54.8023077 42.2953846,54.485 41.6953846,54.485 C41.2242308,54.485 40.8511538,54.6811538 40.6165385,54.9811538 C40.2819231,55.3869231 40.1857692,56.0196154 40.1857692,56.685 C40.1857692,57.2446154 40.2742308,57.8715385 40.6242308,58.3253846 Z M41.6876923,53.5811538 C42.3126923,53.5811538 43.1723077,53.7292308 43.7492308,54.3773077 C44.3742308,55.0946154 44.4973077,56.0119231 44.4973077,56.5888462 C44.4973077,57.4407692 44.2357692,58.3503846 43.7569231,58.885 C43.1088462,59.6157692 42.1588462,59.7215385 41.6703846,59.7215385 C40.8992308,59.7215385 40.1280769,59.4773077 39.5934615,58.9176923 C38.9511538,58.235 38.8703846,57.26 38.8703846,56.7253846 C38.8703846,55.1676923 39.5761538,53.5811538 41.6876923,53.5811538 Z M22.7646154,53.7061538 L24.0223077,53.7061538 L24.0223077,56.0523077 L26.2376923,56.0523077 L26.2376923,53.7061538 L27.5126923,53.7061538 L27.5126923,59.5753846 L26.255,59.5753846 L26.255,57.0023077 L24.0223077,57.0023077 L24.0223077,59.5753846 L22.7646154,59.5753846 L22.7646154,53.7061538 Z M8.58192308,56.36 L9.08384615,56.36 C9.48961538,56.36 10.2453846,56.36 10.2453846,55.4676923 C10.2453846,54.6715385 9.57230769,54.6715385 9.21461538,54.6715385 L8.58192308,54.6715385 L8.58192308,56.36 Z M7.33961538,53.7215385 L9.14923077,53.7215385 C9.99346154,53.7215385 10.6992308,53.7792308 11.1876923,54.3638462 C11.4953846,54.7369231 11.5453846,55.16 11.5453846,55.46 C11.5453846,56.1388462 11.2607692,56.7157692 10.7973077,57.0176923 C10.3665385,57.2946154 9.77423077,57.2946154 9.46653846,57.2946154 L8.61461538,57.2946154 L8.61461538,59.5753846 L7.33961538,59.5753846 L7.33961538,53.7215385 Z M76.9511538,49.6061538 L79.6011538,49.6061538 L79.6011538,38.2811538 L83.1261538,49.6061538 L85.4646154,49.6061538 L89.0626923,38.2811538 L89.0626923,49.6061538 L91.8761538,49.6061538 L91.8761538,36.3984615 L87.3819231,36.3984615 L84.3684615,46.0080769 L81.5723077,36.3984615 L76.9511538,36.3984615 L76.9511538,49.6061538 Z M63.6357692,36.435 L63.6357692,44.3273077 C63.6357692,45.5503846 63.6723077,46.5734615 64.3107692,47.5792308 C65.5530769,49.5696154 67.9646154,49.8619231 69.28,49.8619231 C71.9473077,49.8619231 75.0703846,48.6023077 75.0703846,44.6734615 L75.0703846,36.435 L72.3126923,36.435 L72.3126923,44.3273077 C72.3126923,45.66 72.1665385,46.1715385 71.8915385,46.5734615 C71.1607692,47.7061538 69.7915385,47.7253846 69.3338462,47.7253846 C66.5761538,47.7253846 66.4665385,45.9157692 66.4665385,44.4734615 L66.4665385,36.435 L63.6357692,36.435 Z M50.0992308,49.6061538 L52.7665385,49.6061538 L52.7665385,38.6465385 L57.8819231,49.6061538 L61.7723077,49.6061538 L61.7723077,36.3984615 L59.1415385,36.3984615 L59.1415385,46.7926923 L54.1915385,36.3984615 L50.0992308,36.3984615 L50.0992308,49.6061538 Z M48.4376923,40.4542308 C48.4184615,39.7426923 48.3646154,38.7003846 47.4876923,37.6965385 C46.4473077,36.51 44.6934615,36.035 42.9934615,36.035 C38.9934615,36.035 36.0703846,38.5369231 36.0703846,43.2119231 C36.0703846,44.6003846 36.3453846,46.7023077 37.8242308,48.1446154 C38.8665385,49.1676923 40.4184615,49.8984615 43.4319231,49.8984615 C46.0819231,49.8984615 47.4319231,49.4407692 48.255,49.1676923 L48.255,42.5734615 L42.8665385,42.5734615 L42.8665385,44.7657692 L45.4242308,44.7657692 L45.4242308,47.5426923 C45.1126923,47.6330769 44.6376923,47.7984615 43.2684615,47.7984615 C41.6973077,47.7984615 40.8203846,47.3965385 40.1626923,46.6657692 C39.1953846,45.6234615 39.0665385,44.0157692 39.0665385,43.1215385 C39.0665385,41.0946154 39.7069231,38.0984615 42.9203846,38.0984615 C43.5415385,38.0984615 44.5838462,38.2446154 45.1319231,39.1215385 C45.4607692,39.6330769 45.4780769,40.1080769 45.4973077,40.4542308 L48.4376923,40.4542308 Z M27.8146154,44.6196154 L29.7703846,38.9926923 L31.5953846,44.6196154 L27.8146154,44.6196154 Z M28.1626923,36.3984615 L23.3953846,49.6061538 L26.0973077,49.6061538 L27.0838462,46.7561538 L32.3088462,46.7561538 L33.2588462,49.6061538 L36.1088462,49.6061538 L31.5223077,36.3984615 L28.1626923,36.3984615 Z M7.33961538,49.6061538 L9.98769231,49.6061538 L9.98769231,38.2811538 L13.5146154,49.6061538 L15.8530769,49.6061538 L19.4511538,38.2811538 L19.4511538,49.6061538 L22.2646154,49.6061538 L22.2646154,36.3984615 L17.7703846,36.3984615 L14.7569231,46.0080769 L11.9607692,36.3984615 L7.33961538,36.3984615 L7.33961538,49.6061538 Z" id="Fill-2" fill="#FFFFFF"></path>
        </g>
    </g>
</svg>