<?xml version="1.0" encoding="UTF-8"?>
<svg width="161px" height="160px" viewBox="0 0 161 160" version="1.1" xmlns="http://www.w3.org/2000/svg" xmlns:xlink="http://www.w3.org/1999/xlink">
    <!-- Generator: Sketch 50.2 (55047) - http://www.bohemiancoding.com/sketch -->
    <title>Group</title>
    <desc>Created with Sketch.</desc>
    <defs></defs>
    <g id="Page-1" stroke="none" stroke-width="1" fill="none" fill-rule="evenodd">
        <g id="azerbaijan" transform="translate(-600.000000, -647.000000)" fill="#FFFFFF">
            <g id="Group" transform="translate(600.000000, 647.000000)">
                <polygon id="Fill-1" points="68.8159217 151.977247 70.774532 155.762182 68.0096812 157.845299 68.8075561 158.801143 72.5616461 155.936727 72.0963063 159.13361 73.3563839 159.309195 74.3853601 152.24426 73.1252825 152.068675 72.805296 154.258805 71.8421994 155.042182 70.0174397 151.438026"></polygon>
                <path d="M61.5057986,154.427844 C61.4325991,154.675117 61.4022736,154.730182 61.218229,154.829922 C61.218229,154.829922 59.6873132,155.633039 59.5994738,155.709922 L58.7053938,154.087065 C58.6050059,153.904208 58.6102344,153.84187 58.6855254,153.593558 L58.9563636,152.687584 L61.7776826,153.520831 L61.5057986,154.427844 Z M62.0882577,152.484987 L59.2669388,151.650701 L59.913186,149.495896 L58.7158509,149.14161 L57.4704132,153.299532 C57.3261056,153.782649 57.3166942,154.113039 57.5823039,154.562909 L58.7555878,156.588883 L59.7981582,156.897455 L61.8958475,155.837714 C62.3653702,155.604987 62.5400034,155.323429 62.6853567,154.840312 L63.9297487,150.683429 L62.7334593,150.330182 L62.0882577,152.484987 Z" id="Fill-2"></path>
                <polygon id="Fill-4" points="51.5970923 149.008727 50.4499511 149.479377 49.749327 145.492883 48.444284 145.660156 49.2222904 149.858597 45.9795514 151.053403 46.4658054 152.200416 50.8786912 150.545351 49.5088143 153.47626 50.6622297 154.011325 53.6885073 147.537558 52.5340462 147.002494"></polygon>
                <path d="M40.7386743,145.919273 C40.5964581,146.134338 40.5525384,146.179013 40.3475797,146.22161 C40.3475797,146.22161 38.6503964,146.553039 38.5426885,146.60187 L38.1578681,144.789922 C38.1139484,144.585247 38.1390454,144.527065 38.2802159,144.310961 L38.802024,143.520312 L41.2604824,145.127584 L40.7386743,145.919273 Z M41.8575814,144.222649 L39.399123,142.615377 L40.6403778,140.734857 L39.5967617,140.053299 L37.2031371,143.681351 C36.9260246,144.101091 36.8214539,144.416935 36.9458931,144.922909 L37.4833867,147.201351 L38.3921066,147.796675 L40.7062574,147.38213 C41.2217912,147.292779 41.4706696,147.073558 41.7488278,146.652779 L44.1414066,143.025766 L43.0977905,142.343169 L41.8575814,144.222649 Z" id="Fill-6"></path>
                <polygon id="Fill-8" points="31.1036296 134.956364 33.508757 137.076883 29.5423883 141.578701 30.5044392 142.426494 35.2279002 137.064416 31.8607219 134.097143"></polygon>
                <path d="M26.0364446,130.886857 L23.0394468,133.455169 C22.8522651,133.615169 22.5573756,133.592312 22.413068,133.421922 L20.9135234,131.658805 C20.7692157,131.490494 20.7922213,131.19439 20.9794029,131.03439 L23.9764007,128.466078 C24.1635824,128.306078 24.4584719,128.329974 24.6027796,128.498286 L26.1023242,130.261403 C26.2466318,130.431792 26.2236262,130.726857 26.0364446,130.886857 Z M25.5292764,127.817766 C24.8746635,127.048935 23.8613729,126.942961 23.1314691,127.569455 L20.2275392,130.055688 C19.4976354,130.682182 19.4432586,131.702442 20.0978715,132.471273 L21.4865711,134.104519 C22.1422297,134.873351 23.1544746,134.978286 23.8843785,134.352831 L26.7883083,131.865558 C27.5182122,131.240104 27.5736347,130.218805 26.9190218,129.449974 L25.5292764,127.817766 Z" id="Fill-10"></path>
                <path d="M20.1605094,121.075532 L19.1524473,119.470338 C18.6149536,118.616312 17.62676,118.364883 16.8121538,118.879169 L16.1334896,119.306182 C15.3084264,119.826701 15.1411132,120.835532 15.6440985,121.682286 C16.117804,122.459429 17.0997234,123.55761 16.4827559,123.947221 L15.6911553,124.445922 C15.4820138,124.57787 15.1923528,124.513455 15.0752336,124.325403 L14.0525316,122.69839 C13.9354124,122.512416 14.001292,122.222545 14.2104335,122.091636 L14.659042,121.808 L14.0033834,120.765922 L13.6070602,121.016312 C12.792454,121.529558 12.5916782,122.530078 13.1281262,123.385143 L14.0588059,124.863584 C14.5952538,125.718649 15.5824018,125.970078 16.3970079,125.456831 L17.0756721,125.028779 C17.9007354,124.509299 18.0649115,123.517091 17.566109,122.652675 C17.1018148,121.86826 16.1198954,120.770078 16.7368629,120.381506 L17.5200978,119.888 C17.7281936,119.756052 18.0168089,119.821506 18.1349739,120.009558 L19.2361039,121.761247 C19.3532231,121.94826 19.2862979,122.236052 19.0782021,122.368 L18.6390049,122.645403 L19.2936178,123.687481 L19.6805296,123.443325 C20.4951358,122.930078 20.698003,121.929558 20.1605094,121.075532" id="Fill-12"></path>
                <path d="M8.88955979,104.981818 L7.03133749,105.617662 C6.91317254,105.658182 6.85461292,105.782857 6.89121268,105.886753 L7.54896273,107.741299 C7.58556249,107.846234 7.71104739,107.906494 7.82816664,107.867013 L9.68743464,107.23013 C9.80455389,107.190649 9.85370214,107.07013 9.81605667,106.965195 L9.15935234,105.110649 C9.12170686,105.005714 9.00667904,104.941299 8.88955979,104.981818" id="Fill-14"></path>
                <path d="M3.6048676,90.5317403 C3.34657784,90.5556364 3.28383539,90.5504416 3.12384213,90.4184935 C3.12384213,90.4184935 1.80729634,89.3099221 1.70377129,89.257974 L2.89064935,87.8242078 C3.02554562,87.6610909 3.08619666,87.6434286 3.34448642,87.6184935 L4.29189745,87.5270649 L4.55227863,90.4403117 L3.6048676,90.5317403 Z M7.88808568,90.1192727 L5.63563164,90.3364156 L5.37525046,87.4231688 L7.6277045,87.206026 L7.5168595,85.9696623 L3.17299039,86.3894026 C2.66791364,86.4382338 2.3562928,86.5545974 2.03316917,86.9670649 L0.571270029,88.8122597 L0.667475122,89.8896623 L2.43053803,91.4221299 C2.82163265,91.7670649 3.14893911,91.8221299 3.65401585,91.7732987 L7.99893068,91.3545974 L7.88808568,90.1192727 Z" id="Fill-16"></path>
                <polygon id="Fill-18" points="1.28161916 76.9775584 6.26232417 80.697039 7.16372407 80.7406753 7.36136279 75.5593766 6.21317591 75.5043117 6.08037106 78.9785974 1.09966605 75.2580779 0.198266149 75.2154805 -0.000418283016 80.3957403 1.1488143 80.4518442"></polygon>
                <polygon id="Fill-21" points="8.60763704 65.7700779 7.4782729 65.5560519 6.83620847 68.886961 5.02608872 68.5451429 5.52489121 65.9633247 4.36938438 65.7451429 3.87162759 68.3259221 2.05000506 67.980987 2.69206949 64.6511169 1.56270535 64.4370909 0.687448136 68.9742338 7.73237983 70.3072208"></polygon>
                <path d="M6.84300557,55.9416104 L6.07545623,58.1088831 L4.27161073,57.4969351 L5.08517119,55.2029091 C5.1552336,55.0065455 5.45221454,54.8725195 5.69795581,54.9556364 L6.50628774,55.2288831 C6.91515939,55.3681039 6.99567887,55.5125195 6.84300557,55.9416104 M7.84061056,54.8642078 C7.7360398,54.6086234 7.51016698,54.246026 6.93607354,54.0527792 L6.19884972,53.8013506 C5.28594704,53.4927792 4.37304436,53.9613506 4.03528082,54.910961 L2.83585428,58.2958961 L9.62354191,60.5961558 L10.0313679,59.4501818 L7.19854613,58.4891429 L7.98805532,56.2647273 C8.11981447,55.8938182 8.28503626,55.8335584 8.71795918,55.9800519 L10.9881903,56.7488831 L11.4064733,55.5686234 L8.9835689,54.7468052 C8.4565323,54.5681039 8.06752909,54.7083636 7.84061056,54.8642078" id="Fill-23"></path>
                <path d="M11.0075358,48.1453506 L12.0574262,46.1671688 C12.2425164,45.8201558 12.4150582,45.7837922 12.8218384,45.9905455 L13.602982,46.3895065 C13.8340833,46.5058701 13.9396998,46.8082078 13.8414033,46.9931429 L12.7559588,49.0357403 L11.0075358,48.1453506 Z M8.34411874,46.7884675 L9.42851746,44.7458701 C9.52681397,44.5609351 9.83948052,44.4715844 10.0705819,44.590026 L10.7868916,44.9547013 C11.1717119,45.150026 11.2407286,45.310026 11.0315871,45.7006753 L10.0047023,47.6352208 L8.34411874,46.7884675 Z M14.7794029,47.5676883 C15.2541542,46.6772987 14.9624018,45.6726234 14.1038759,45.2352208 L13.3112295,44.8321039 C12.8155642,44.5796364 12.419241,44.6669091 12.161997,44.7853506 C12.111803,44.5110649 11.9246214,44.1256104 11.3850363,43.8513247 L10.7366976,43.5209351 C9.8781717,43.0835325 8.87220105,43.4274286 8.39849553,44.3178182 L6.78287738,47.3598961 L13.1648305,50.6108052 L14.7794029,47.5676883 Z" id="Fill-25"></path>
                <path d="M16.5556418,35.3632208 C16.7637376,35.3289351 16.8222972,35.3549091 17.0335301,35.5055584 L17.8083994,36.0530909 L16.0746163,38.4156883 L15.299747,37.8671169 C15.0885141,37.7185455 15.0445944,37.6728312 15.0111317,37.4671169 C15.0111317,37.4671169 14.7517963,35.7756883 14.7078765,35.6697143 L16.5556418,35.3632208 Z M14.5123292,38.8343896 L18.0677349,41.3507532 L18.803913,40.3481558 L16.9613763,39.0432208 L18.6951594,36.6816623 L20.5387418,37.9845195 L21.2749199,36.982961 L17.7184685,34.4665974 C17.3064598,34.1736104 16.9927475,34.0582857 16.4751223,34.1601039 L14.1505144,34.5964675 L13.5094957,35.4702338 L13.8221623,37.7725714 C13.8880418,38.2868571 14.0992748,38.5424416 14.5123292,38.8343896 Z" id="Fill-27"></path>
                <polygon id="Fill-29" points="20.7926396 27.9231169 24.3877821 31.2623377 23.6808838 32.0166234 24.5028099 32.7802597 26.7772238 30.3532468 25.9552977 29.5896104 25.238988 30.3532468 21.6438455 27.0150649 22.3591095 26.2514286 21.538229 25.4867532 19.2627694 27.9148052 20.0846956 28.6794805"></polygon>
                <path d="M28.6283353,20.2039481 L31.5092596,23.6564156 C31.6514758,23.8268052 31.6180132,24.0958961 31.4391972,24.2475844 L30.5608028,24.9852468 C30.3819868,25.1348571 30.1121943,25.1203117 29.9699781,24.9499221 L29.5673807,24.4678442 L28.6231068,25.2605714 L28.9545961,25.6574545 C29.5705178,26.3961558 30.5869455,26.4595325 31.3607691,25.8091429 L32.126227,25.166026 C32.9000506,24.5156364 33.0004385,23.4984935 32.3918367,22.7701818 L29.5820206,19.4029091 L30.3652555,18.7442078 L29.6635858,17.9036883 L27.0670939,20.0855065 L27.7698094,20.926026 L28.6283353,20.2039481 Z" id="Fill-31"></path>
                <path d="M36.7907101,15.5631169 C36.7907101,15.5631169 37.2048103,13.8872727 37.2048103,13.7698701 L39.01493,14.1844156 C39.218843,14.2311688 39.261717,14.2779221 39.3987047,14.4971429 L39.8975072,15.3023377 L37.4014033,16.8503896 L36.9005094,16.0451948 C36.7666588,15.825974 36.7436532,15.7667532 36.7907101,15.5631169 Z M38.0978445,20.3433766 L39.1581919,19.6867532 L37.9713139,17.7719481 L40.4674178,16.2238961 L41.6532501,18.1376623 L42.7135976,17.481039 L40.4266352,13.7864935 C40.1610255,13.3584416 39.9173756,13.1309091 39.4049789,13.0301299 L37.1096509,12.5563636 L36.1862911,13.1288312 L35.586055,15.3979221 C35.4490673,15.9028571 35.5452724,16.2207792 35.8108821,16.6498701 L38.0978445,20.3433766 Z" id="Fill-33"></path>
                <polygon id="Fill-35" points="48.4303761 14.3476364 46.3912464 9.62867532 50.1997133 11.2193247 51.0592849 13.2058182 52.213746 12.704 49.3851071 6.15542857 48.2296003 6.65828571 49.5022263 9.60477922 45.4197841 7.87906494 44.4451847 8.30296104 47.275915 14.8494545"></polygon>
                <path d="M64.6398887,6.20031169 L66.5922247,5.87927273 C66.702024,5.86161039 66.7856806,5.75979221 66.7637207,5.63823377 L66.43014,3.71303896 C66.4092258,3.59148052 66.294198,3.51251948 66.1854444,3.53122078 L64.2320627,3.85122078 C64.1222635,3.86992208 64.0427897,3.98109091 64.0626581,4.10264935 L64.3972845,6.02784416 C64.4181987,6.1494026 64.5300894,6.21901299 64.6398887,6.20031169" id="Fill-37"></path>
                <path d="M82.1973183,7.11449351 L83.9990724,7.22774026 C85.0102715,7.29215584 85.7966436,6.64072727 85.8583404,5.68384416 L85.9116714,4.86202597 C85.9388598,4.43293506 85.7903694,4.05475325 85.5488109,3.75553247 C85.8259234,3.4905974 86.0225164,3.13319481 86.0507505,2.70514286 L86.1030359,1.88228571 C86.1657784,0.926441558 85.4693372,0.181506494 84.4570923,0.11812987 L82.6553382,0.00384415584 C81.644139,-0.0595324675 80.8588126,0.591896104 80.7960702,1.54774026 L80.757379,2.15033766 L81.9923596,2.22722078 L82.0352336,1.56436364 C82.0509192,1.32020779 82.2736549,1.12384416 82.4963906,1.13838961 L84.4706865,1.26202597 C84.6923765,1.27657143 84.8889695,1.49890909 84.8732839,1.74306494 L84.8115871,2.69890909 C84.7948558,2.94514286 84.611857,3.10618182 84.4769607,3.09787013 L82.5267161,2.97527273 L82.4503795,4.15137662 L84.3995783,4.27501299 C84.5344746,4.28228571 84.697605,4.46514286 84.6819194,4.71033766 L84.6191769,5.66618182 C84.604537,5.91241558 84.3807556,6.1067013 84.1590656,6.09319481 L82.1847698,5.96851948 C81.9620341,5.95501299 81.7664868,5.73371429 81.7821724,5.48851948 L81.8187721,4.9254026 L80.5837915,4.84644156 L80.5513746,5.35033766 C80.4896779,6.30618182 81.1850734,7.05007792 82.1973183,7.11449351" id="Fill-39"></path>
                <path d="M92.562476,6.43875325 L92.7632518,5.50057143 C92.8144915,5.26057143 93.0194502,5.12862338 93.152255,5.15771429 L95.4601316,5.65641558 C95.5939821,5.68550649 95.7257413,5.89018182 95.6755473,6.13018182 L95.4737258,7.06732468 C95.4224861,7.30836364 95.1736077,7.46732468 94.9561005,7.42057143 L92.8897824,6.97485714 C92.6722753,6.92706494 92.5112363,6.67771429 92.562476,6.43875325 M93.1867634,3.52966234 L93.3864935,2.59355844 C93.4377332,2.35251948 93.6866116,2.19251948 93.9041187,2.23927273 L95.9704368,2.68706494 C96.187944,2.73381818 96.348983,2.98212987 96.2977433,3.22212987 L96.0980132,4.15927273 C96.0457278,4.39927273 95.8418148,4.53122078 95.7079642,4.50316883 L93.4000877,4.00342857 C93.2672828,3.97537662 93.134478,3.7707013 93.1867634,3.52966234 M92.7350177,8.1094026 L94.6319312,8.52083117 C95.6232619,8.73485714 96.4943363,8.20602597 96.6951122,7.26888312 L96.8676539,6.46368831 C96.9575848,6.04290909 96.8655625,5.64602597 96.6836094,5.31771429 C96.9847731,5.0932987 97.2305144,4.76914286 97.3204453,4.34836364 L97.4940327,3.54316883 C97.6937629,2.60706494 97.1154866,1.76550649 96.1241558,1.55044156 L94.2282881,1.14005195 C93.238003,0.926025974 92.3658829,1.45381818 92.1651071,2.39096104 L91.9915196,3.19615584 C91.9015888,3.6158961 91.9936111,4.01381818 92.1902041,4.34524675 C91.8754461,4.56758442 91.6286591,4.8907013 91.5387283,5.31148052 L91.3661865,6.11563636 C91.1654107,7.05381818 91.7447327,7.89537662 92.7350177,8.1094026" id="Fill-42"></path>
                <path d="M101.83602,10.273974 L103.026035,10.6905974 C103.095051,10.7155325 103.159885,10.6854026 103.182891,10.6147532 L103.595945,9.43033766 C103.619997,9.36072727 103.588625,9.29942857 103.518563,9.27449351 L102.329594,8.85787013 C102.259531,8.83293506 102.196789,8.86306494 102.171692,8.93267532 L101.759683,10.1170909 C101.734586,10.1867013 101.767003,10.2500779 101.83602,10.273974" id="Fill-44"></path>
                <path d="M110.217993,11.6254545 L110.837052,10.3651948 L112.984935,11.427013 C113.184665,11.5236364 113.286099,11.7937662 113.177345,12.0150649 L112.753834,12.8774026 C112.64508,13.0966234 112.36483,13.1922078 112.1651,13.0945455 L110.405175,12.2238961 C110.205444,12.1262338 110.109239,11.8446753 110.217993,11.6254545 M109.978526,13.2898701 L111.583687,14.0825974 C112.491361,14.5314286 113.464915,14.2290909 113.889472,13.3688312 L114.251287,12.6280519 C114.675844,11.7677922 114.325532,10.7994805 113.417858,10.3506494 L111.346311,9.32831169 L111.401734,9.21922078 C111.817925,8.36831169 112.886639,8.04415584 113.715885,8.45350649 L114.556633,8.87012987 L115.062756,7.8425974 L114.188544,7.41038961 C112.748605,6.70077922 111.021096,7.19116883 110.244136,8.77038961 L109.718145,9.84155844 L109.138823,11.0228571 C108.710083,11.8955844 109.080263,12.8472727 109.978526,13.2898701" id="Fill-46"></path>
                <polygon id="Fill-48" points="121.23975 18.2569351 120.269334 17.6221299 123.622918 12.5945974 122.786352 12.0470649 120.613372 12.5239481 120.851793 13.5473247 121.572285 13.4444675 119.236175 16.9468052 118.286672 16.3255065 117.678071 17.2377143 120.632194 19.1691429"></polygon>
                <path d="M129.634063,24.6124675 L126.730133,22.0524675 C127.670224,21.2223377 130.904598,23.0883117 132.173041,21.6441558 L132.49721,21.2732468 C133.139275,20.5418182 132.961504,19.5475325 132.222189,18.8950649 L130.98198,17.8020779 C130.214431,17.1257143 129.167678,17.2535065 128.541299,17.9672727 L128.257912,18.2914286 L129.20114,19.1225974 L129.558772,18.7153247 C129.720857,18.5303896 130.015746,18.5116883 130.182014,18.6581818 L131.514245,19.8311688 C131.680513,19.9787013 131.700381,20.2748052 131.537251,20.4607792 L131.245498,20.7932468 C130.514549,21.6275325 127.071034,19.6431169 125.584038,21.3387013 L124.97439,22.0337662 L128.878017,25.4737662 L129.634063,24.6124675 Z" id="Fill-50"></path>
                <path d="M135.885826,27.982026 L136.074053,27.822026 L138.98112,28.0599481 L137.227468,29.5581299 L135.885826,27.982026 Z M134.966649,31.4874805 L135.781255,32.4443636 L137.160543,31.2672208 L137.703265,31.9051429 L138.584797,31.1529351 L138.042075,30.515013 L141.222071,27.8002078 L140.533996,26.993974 L135.602439,26.6033247 L134.206419,27.7960519 L136.344891,30.3103377 L134.966649,31.4874805 Z" id="Fill-52"></path>
                <path d="M146.31634,32.7872208 L146.911348,32.3892987 C146.95213,32.3622857 147.021147,32.3747532 147.05461,32.4267013 L147.441521,33.0116364 C147.474984,33.0625455 147.462435,33.1311169 147.421653,33.1591688 L146.826645,33.5570909 C146.77436,33.5913766 146.716846,33.5705974 146.683383,33.5196883 L146.295426,32.9347532 C146.260918,32.8828052 146.2651,32.8204675 146.31634,32.7872208 Z M146.135433,33.8999481 C146.36758,34.249039 146.833965,34.3508571 147.183232,34.1170909 L147.788696,33.713974 C148.136917,33.4802078 148.234168,33.0002078 148.003066,32.6511169 L147.601515,32.0454026 C147.370413,31.6963117 146.900891,31.6121558 146.551624,31.8459221 L145.94616,32.2500779 C145.597939,32.4828052 145.503825,32.9451429 145.733881,33.2942338 L146.135433,33.8999481 Z" id="Fill-54"></path>
                <polygon id="Fill-56" points="147.356924 50.5185455 152.179727 48.6712727 150.407252 52.4042597 148.376488 53.1814026 148.824051 54.3533506 155.51658 51.7902338 155.067971 50.6193247 152.057379 51.7725714 153.978344 47.7704935 153.600843 46.7834805 146.908315 49.3465974"></polygon>
                <path d="M154.869914,66.9358961 L155.144935,68.8839481 C155.159575,68.993039 155.259963,69.0792727 155.382311,69.0636883 L157.33151,68.8039481 C157.455949,68.7873247 157.53856,68.6771948 157.522874,68.5670649 L157.248899,66.619013 C157.233213,66.5099221 157.122368,66.4257662 156.998975,66.4413506 L155.050821,66.7010909 C154.928474,66.7177143 154.855274,66.8268052 154.869914,66.9358961" id="Fill-58"></path>
                <path d="M156.12905,86.1678961 L156.313095,84.1117922 L156.559882,84.1367273 L158.429607,86.4006234 L156.12905,86.1678961 Z M157.098421,82.9575065 L155.266342,82.7715325 L154.973544,86.0515325 L153.16447,85.8686753 L153.053625,87.1175065 L154.861653,87.3003636 L154.787408,88.1325714 L155.942914,88.2489351 L156.018205,87.4167273 L160.188487,87.8375065 L160.282601,86.7860779 L157.098421,82.9575065 Z" id="Fill-60"></path>
                <path d="M157.767047,96.102961 L157.266153,98.1434805 C157.212822,98.3585455 156.95976,98.5091948 156.720293,98.449974 L155.784385,98.2162078 C155.543872,98.1559481 155.418388,97.9471169 155.449759,97.8151688 L156.010258,95.5346494 C156.042675,95.4037403 156.250771,95.2790649 156.491284,95.3393247 L157.426146,95.5730909 C157.665613,95.6333506 157.819332,95.8878961 157.767047,96.102961 Z M154.298435,97.5263377 C154.266018,97.6582857 154.057922,97.782961 153.818455,97.7237403 L152.882547,97.4889351 C152.64308,97.4286753 152.488315,97.1751688 152.541646,96.9601039 L153.04254,94.9185455 C153.094825,94.7034805 153.348932,94.5528312 153.588399,94.6120519 L154.524308,94.8468571 C154.76482,94.9071169 154.890305,95.1159481 154.858934,95.2458182 L154.298435,97.5263377 Z M157.659339,94.3647792 L156.85519,94.1642597 C156.436907,94.0593247 156.035355,94.1351688 155.697591,94.318026 C155.483221,93.998026 155.165326,93.7414026 154.744952,93.6354286 L153.942894,93.4349091 C153.00594,93.2001039 152.147414,93.7434805 151.906902,94.7232208 L151.44679,96.5964675 C151.207323,97.5751688 151.713446,98.4624416 152.649354,98.6972468 L153.452457,98.8977662 C153.871786,99.0037403 154.273338,98.9268571 154.607964,98.7575065 C154.825471,99.065039 155.143367,99.3227013 155.562695,99.4265974 L156.366844,99.6291948 C157.301707,99.8619221 158.161278,99.3175065 158.400745,98.3377662 L158.861903,96.4655584 C159.10137,95.4858182 158.594201,94.5995844 157.659339,94.3647792 Z" id="Fill-63"></path>
                <path d="M149.551445,103.603948 C149.482429,103.577974 149.418641,103.607065 149.393544,103.674597 L148.944935,104.846545 C148.918792,104.916156 148.945981,104.979532 149.014997,105.006545 L150.191418,105.459532 C150.261481,105.486545 150.324223,105.457455 150.350366,105.389922 L150.798975,104.216935 C150.825117,104.148364 150.796883,104.084987 150.727866,104.057974 L149.551445,103.603948 Z" id="Fill-65"></path>
                <path d="M151.400884,114.393351 L150.414782,116.251013 C150.310211,116.447377 150.026824,116.532571 149.809317,116.415169 L148.960202,115.962182 C148.74165,115.844779 148.670541,115.612052 148.733284,115.492571 L149.83546,113.417766 C149.899248,113.297247 150.132441,113.226597 150.350993,113.342961 L151.200108,113.796987 C151.417615,113.913351 151.505455,114.198026 151.400884,114.393351 Z M147.687576,114.93361 C147.624834,115.053091 147.391641,115.12374 147.174134,115.007377 L146.325019,114.552312 C146.107512,114.436987 146.019673,114.153351 146.123198,113.956987 L147.1093,112.098286 C147.213871,111.904 147.498303,111.817766 147.71581,111.93413 L148.564925,112.388156 C148.782432,112.505558 148.85354,112.738286 148.789752,112.856727 L147.687576,114.93361 Z M151.722962,112.682182 L150.992012,112.291532 C150.61242,112.087896 150.203549,112.065039 149.832322,112.159584 C149.7037,111.796987 149.457959,111.470753 149.076276,111.266078 L148.346372,110.876468 C147.497258,110.422442 146.531024,110.742442 146.057318,111.63387 L145.15069,113.339844 C144.67803,114.231273 144.952005,115.215169 145.802166,115.670234 L146.532069,116.059844 C146.912707,116.262442 147.320533,116.28426 147.685485,116.201143 C147.820381,116.552312 148.067168,116.880623 148.447806,117.08426 L149.17771,117.47387 C150.026824,117.927896 150.993058,117.607896 151.465718,116.716468 L152.372346,115.010494 C152.846052,114.119065 152.571031,113.135169 151.722962,112.682182 Z" id="Fill-67"></path>
                <path d="M142.124308,123.843429 L143.348831,122.176935 L143.547516,122.323429 L143.980439,125.213818 L142.124308,123.843429 Z M143.145964,120.493818 L141.191537,123.154597 L139.732774,122.077195 L138.990322,123.089143 L140.449084,124.167584 L139.953419,124.84187 L140.885144,125.53174 L141.381855,124.856416 L144.746942,127.340571 L145.372275,126.486545 L144.624594,121.585766 L143.145964,120.493818 Z" id="Fill-69"></path>
                <path d="M135.349691,132.971844 C135.168784,133.156779 134.855072,133.158857 134.591553,132.898078 L133.533297,131.847688 C133.358664,131.674182 133.356573,131.377039 133.511337,131.219117 L134.936637,129.767688 C135.093493,129.609766 135.388383,129.608727 135.563016,129.782234 L135.965613,130.180156 L136.829368,129.302234 L136.47069,128.946909 C135.787843,128.269506 134.771415,128.301714 134.063471,129.022753 L132.758428,130.350545 C132.050484,131.071584 132.02957,132.091844 132.713463,132.770286 L133.711068,133.759377 C134.393915,134.43574 135.533736,134.455481 136.2856,133.655481 L137.701488,132.142753 L138.532825,133.037299 L136.045087,135.569247 L136.858647,136.376519 L140.175632,133.000935 L137.751682,130.457558 L135.349691,132.971844 Z" id="Fill-71"></path>
                <path d="M130.683849,139.17413 L129.685198,139.897247 L130.084658,140.429195 C130.232103,140.625558 130.188184,140.917506 130.008322,141.047377 L128.409435,142.205818 C128.229573,142.335688 127.934684,142.291013 127.786193,142.094649 L127.210008,141.326857 C127.061518,141.130494 127.098118,140.890494 127.207917,140.811532 L128.786935,139.668675 L128.075854,138.722182 L126.497882,139.866078 C126.388082,139.945039 126.144432,139.908675 125.996988,139.712312 L125.419757,138.943481 C125.271267,138.747117 125.315186,138.457247 125.495048,138.327377 L127.092889,137.167896 C127.273797,137.036987 127.568686,137.081662 127.717177,137.279065 L128.057032,137.731013 L129.056728,137.007896 L128.753473,136.604779 C128.177288,135.836987 127.155632,135.710234 126.335797,136.303481 L124.877035,137.361143 C124.058246,137.95439 123.880476,138.949714 124.457706,139.717506 L124.953372,140.377247 C125.212707,140.722182 125.573476,140.916468 125.954114,140.990234 C125.913331,141.368416 125.996988,141.766338 126.255277,142.110234 L126.749897,142.769974 C127.327128,143.537766 128.348784,143.664519 129.167573,143.071273 L130.626335,142.01361 C131.44617,141.420364 131.622894,140.425039 131.046709,139.657247 L130.683849,139.17413 Z" id="Fill-73"></path>
                <path d="M123.255665,149.104104 L122.649155,149.460468 C122.595824,149.491636 122.528899,149.473974 122.503802,149.431377 L122.145124,148.815273 C122.113753,148.760208 122.13885,148.704104 122.191135,148.672935 L122.798691,148.316571 C122.850977,148.285403 122.912673,148.291636 122.942999,148.345662 L123.302722,148.961766 C123.326773,149.004364 123.308996,149.072935 123.255665,149.104104 Z M123.501407,148.002805 C123.291219,147.642286 122.837382,147.522805 122.475568,147.735792 L121.846052,148.103584 C121.485283,148.316571 121.354569,148.779948 121.564756,149.140468 L121.928663,149.769039 C122.139895,150.130597 122.610464,150.253195 122.972279,150.040208 L123.600749,149.672416 C123.962564,149.459429 124.076546,148.993974 123.866359,148.631377 L123.501407,148.002805 Z" id="Fill-75"></path>
                <polygon id="Fill-77" points="101.834974 149.186286 102.177966 150.276156 105.425934 149.228883 105.977021 150.975377 103.460003 151.787844 103.811361 152.90161 106.328379 152.089143 106.88365 153.847065 103.637774 154.894338 103.981811 155.984208 108.403063 154.557714 106.257271 147.759792"></polygon>
                <path d="M88.7829752,154.415584 L86.8118165,154.589091 C86.7020172,154.599481 86.6110406,154.692987 86.6235891,154.815584 L86.817045,156.758442 C86.8295935,156.882078 86.9383471,156.97039 87.0491921,156.96 L89.0203508,156.786494 C89.1301501,156.776104 89.2190353,156.672208 89.2064868,156.548571 L89.0130309,154.605714 C89.0004824,154.482078 88.8927745,154.405195 88.7829752,154.415584" id="Fill-79"></path>
                <path d="M80.3366908,143.262026 C45.0921639,143.262026 16.4188632,114.773714 16.4188632,79.7565714 C16.4188632,44.7394286 45.0921639,16.2511169 80.3366908,16.2511169 C115.581218,16.2511169 144.255564,44.7394286 144.255564,79.7565714 C144.255564,114.773714 115.581218,143.262026 80.3366908,143.262026 M146.293648,79.7565714 C146.293648,43.6225455 116.705353,14.2261818 80.3366908,14.2261818 C43.9680283,14.2261818 14.3807792,43.6225455 14.3807792,79.7565714 C14.3807792,115.890597 43.9680283,145.286961 80.3366908,145.286961 C116.705353,145.286961 146.293648,115.890597 146.293648,79.7565714" id="Fill-81"></path>
                <path d="M120.213493,75.2505974 C120.032586,75.1072208 119.807758,75.0303377 119.577703,75.0303377 L115.037241,75.0303377 C114.850059,75.0303377 114.66706,75.0812468 114.508113,75.1778701 L110.52083,77.5841039 C109.158273,78.406961 108.240142,79.8396883 108.066554,81.4178701 L107.420307,87.3576104 L106.527273,88.0443636 C106.356822,88.1752727 106.233429,88.3560519 106.172778,88.5617662 L105.008905,92.5274805 C104.903289,92.8828052 105.002631,93.2661818 105.266149,93.528 L106.372508,94.6261818 L106.372508,95.1633247 L105.046551,95.5373506 C104.639771,95.6526753 104.348018,96.0038442 104.310373,96.4204675 L104.13574,98.3435844 L102.319346,97.206961 C102.022365,97.022026 101.652184,97.0022857 101.337426,97.1487792 C101.021623,97.2983896 100.805161,97.5976104 100.763333,97.9425455 L99.0807893,111.761766 L96.8178782,112.706182 C96.4801147,112.850597 96.0932029,112.711377 95.9206612,112.390338 L94.0457075,108.897351 C93.9212683,108.66774 93.7142182,108.494234 93.4653399,108.412156 L91.1438691,107.650597 L88.240985,105.057351 C88.1510541,104.977351 88.0998145,104.865143 88.0998145,104.74774 L88.0998145,104.318649 C88.0998145,104.142026 88.2075223,103.98826 88.3716984,103.926961 L90.0667904,103.297351 C90.9660988,102.968 91.6332602,102.213714 91.8518131,101.282805 C92.0682746,100.352935 91.8047563,99.3856623 91.1470062,98.6937143 L90.4160567,97.9259221 C90.1703154,97.6672208 90.0563333,97.3015065 90.1117558,96.9492987 C90.1671783,96.5970909 90.3878226,96.2822857 90.6994434,96.1098182 L91.4335301,95.7087792 C92.0243549,95.3846234 92.4374093,94.7944935 92.5409344,94.1285195 C92.6434137,93.4635844 92.4248609,92.7768312 91.9542925,92.2895584 L88.7502446,88.9752727 C87.2747512,87.4448831 84.8183842,87.2911169 83.1598921,88.6292987 L73.2654073,96.6064416 L70.1627931,97.8781299 C70.0132569,97.9404675 69.8794063,98.0360519 69.7758813,98.1586494 L65.8680722,102.719688 C65.8283353,102.764364 65.7718671,102.795532 65.725856,102.783065 L65.6045539,102.764364 C65.5261258,102.753974 65.4654748,102.692675 65.4560634,102.615792 L64.4396357,94.5430649 L65.5407657,93.5518961 C65.7540901,93.3607273 65.8753921,93.0874805 65.8753921,92.8017662 L65.8753921,91.020987 C65.8753921,90.462026 65.4194637,90.008 64.8558273,90.008 L61.2951931,90.008 L54.7637038,83.5383896 C54.6716816,83.448 54.5650194,83.3742338 54.444763,83.3243636 L53.0633834,82.7352727 L55.7759487,82.7352727 C56.182729,82.7352727 56.550818,82.4952727 56.711857,82.1243636 L57.3277787,80.7072208 C57.966706,79.2370909 57.5777028,77.5467013 56.3573621,76.4994286 L49.9388092,70.993974 C49.8175072,70.8900779 49.7463991,70.7394286 49.7463991,70.5815065 L49.7463991,69.8126753 C49.7463991,69.6204675 49.8509698,69.4407273 50.018283,69.3430649 L51.9612076,68.2095584 C52.5185697,67.8854026 52.8835217,67.3098182 52.9399899,66.6729351 C52.9985495,66.0360519 52.7413054,65.4054026 52.2519143,64.9877403 L50.1479508,63.1944935 C49.5874515,62.7144935 48.849182,62.5098182 48.1182324,62.6376104 L47.579693,62.7311169 L45.8448642,61.6578701 L46.171125,61.4895584 C46.4576488,61.340987 46.6552876,61.0687792 46.7065272,60.7529351 C46.7588126,60.4381299 46.657379,60.1170909 46.4335976,59.8864416 L44.7698769,58.1731948 C44.6841289,58.086961 44.6391634,57.9674805 44.6454377,57.8542338 C44.6527576,57.7295584 44.7113173,57.6121558 44.8043852,57.5342338 L47.2335638,55.500987 C47.4364311,55.3295584 47.715635,55.2828052 47.9666048,55.3825455 L52.9096644,57.3067013 C52.8563333,57.5581299 52.8563333,57.820987 52.9138472,58.0807273 C53.0341036,58.6292987 53.393827,59.0885195 53.9020408,59.3399481 L57.3528757,61.0417662 C57.6477652,61.1892987 57.9970315,61.180987 58.2898297,61.0272208 L59.7078091,60.2667013 C60.0037443,60.1056623 60.3739248,60.1503377 60.6855456,60.4194286 L64.1206949,63.0189091 C64.3580705,63.1976104 64.6613257,63.2661818 64.9541238,63.2028052 L66.9827964,62.7664416 C67.3665711,62.6833247 67.6687806,62.3892987 67.7597571,62.009039 L68.4070501,59.2807273 C68.686254,58.0963117 68.2355541,56.8568312 67.2588632,56.1233247 L62.8480688,52.8059221 L62.8480688,51.8854026 C62.8480688,51.3264416 62.3910946,50.8724156 61.828504,50.8724156 L61.2711418,50.8724156 L61.2439534,50.2635844 L64.6153146,46.9628052 L65.257379,46.9628052 L65.1998651,47.7846234 C65.1758138,48.1160519 65.3169843,48.4370909 65.5784112,48.6459221 C65.8387924,48.8537143 66.1849216,48.9222857 66.5059538,48.8267013 L67.9845842,48.3934545 L71.5556755,51.7918961 L71.7376286,52.8485195 C71.8212852,53.3337143 72.2458425,53.689039 72.7425536,53.689039 L73.9493001,53.689039 L74.7837747,55.8760519 C75.3212683,57.2807273 76.5206949,58.3383896 77.9940968,58.702026 L82.8399055,59.8926753 C84.2861191,60.2500779 85.7814809,59.5872208 86.4841963,58.2770909 L88.198111,55.0698182 L90.9462304,54.0287792 C92.4144038,53.475013 93.6180132,52.4048831 94.3364142,51.0126753 L95.8966099,47.9903377 L102.590184,57.5051429 L104.097048,63.0313766 C104.145151,63.2059221 104.239265,63.3659221 104.369978,63.4926753 L108.745218,67.7316364 L108.67411,68.2947532 C108.505751,69.5965714 109.248204,70.8381299 110.480047,71.3160519 L113.434171,72.4568312 C113.589981,72.5160519 113.757295,72.5347532 113.922516,72.5181299 L116.903829,72.169039 L120.697656,75.0043636 L120.813729,75.7264416 L120.213493,75.2505974 Z M122.645809,74.2802078 C122.60398,74.0204675 122.46281,73.7877403 122.251577,73.6298182 L117.802091,70.3061818 C117.59295,70.1492987 117.328386,70.0828052 117.070096,70.1098182 L113.936111,70.4755325 L111.219362,69.4282597 C110.863822,69.289039 110.648406,68.9295584 110.695463,68.5503377 L110.831405,67.4843636 C110.872188,67.1705974 110.761343,66.8547532 110.532333,66.6324156 L105.99187,62.2355325 L104.512194,56.8048831 C104.481869,56.6926753 104.430629,56.5846234 104.363704,56.489039 L97.1263619,46.2012468 C96.8074212,45.7492987 96.2803846,45.4895584 95.7407995,45.5363117 C95.1886659,45.5685195 94.6888177,45.8916364 94.4347107,46.3841039 L92.5231574,50.088 C92.0348119,51.0324156 91.2170686,51.7596883 90.2205094,52.1357922 L87.1137123,53.3129351 C86.8826109,53.4002078 86.6922921,53.5674805 86.5762186,53.7846234 L84.6834879,57.3254026 C84.4231068,57.8116364 83.875156,58.0589091 83.3303424,57.9259221 L78.4845336,56.7363117 C77.6615618,56.5316364 76.9902176,55.9415065 76.6900995,55.1560519 L75.6067465,52.3176104 C75.4551189,51.9238442 75.0765728,51.6641039 74.6530612,51.6641039 L73.6021251,51.6641039 L73.5080115,51.1196883 C73.4714117,50.9067013 73.3657952,50.7103377 73.2089391,50.5596883 L68.968595,46.5243636 C68.704031,46.2708571 68.3223478,46.1804675 67.9741272,46.2843636 L67.3184685,46.4765714 C67.2891887,46.1046234 67.1323326,45.7472208 66.8709057,45.4656623 C66.555102,45.1300779 66.1085849,44.9378701 65.6463822,44.9378701 L64.4762355,44.9378701 C64.0276269,44.9378701 63.6041154,45.1092987 63.2841289,45.4230649 L59.8113341,48.8225455 C59.4474279,49.1799481 59.2372407,49.6786494 59.2372407,50.1877403 L59.2372407,50.993974 C59.2372407,51.928 59.9159049,52.7061818 60.8089391,52.8672208 L60.8089391,53.3108571 C60.8089391,53.6277403 60.9584753,53.926961 61.2136279,54.1181299 L66.0291111,57.7389091 C66.3626919,57.9903377 66.5164109,58.4142338 66.4222972,58.8183896 L65.922449,60.9222857 L64.9823579,61.1238442 L61.9801316,58.8547532 C61.0860516,58.0682597 59.7820543,57.9207273 58.7373925,58.4838442 L57.7868443,58.995013 L55.0125822,57.6256623 L55.1725755,57.4334545 C55.3775342,57.182026 55.4507337,56.8485195 55.3681228,56.5357922 C55.2855119,56.2230649 55.0565019,55.9674805 54.7532468,55.849039 L48.7121943,53.4968312 C47.7700118,53.128 46.7012987,53.3015065 45.9212009,53.9498182 L43.4899308,55.9851429 C42.9702142,56.4215065 42.649182,57.0594286 42.6094451,57.7441039 C42.5749368,58.4246234 42.827998,59.0947532 43.3037949,59.5830649 L44.0190589,60.3186494 L43.3184348,60.6812468 C42.9932198,60.8495584 42.7840783,61.1768312 42.7694384,61.5415065 C42.7568899,61.9041039 42.9398887,62.246961 43.2494181,62.4402078 L46.8330579,64.6573506 C47.0474279,64.7892987 47.304672,64.8360519 47.5493675,64.7944935 L48.4716816,64.6324156 C48.5961208,64.6116364 48.7216057,64.646961 48.8188565,64.7300779 L50.9290943,66.462026 L48.9861697,67.5965714 C48.1977062,68.0547532 47.7083151,68.9046234 47.7083151,69.8126753 L47.7083151,70.5815065 C47.7083151,71.3274805 48.0345758,72.0360519 48.6044864,72.5274805 L55.024085,78.033974 C55.5668072,78.4983896 55.7403947,79.2505974 55.4549165,79.9041039 L55.1056502,80.7103377 L52.0427728,80.7103377 C51.1455557,80.7103377 50.4166976,81.4344935 50.4166976,82.3259221 L50.4166976,82.7477403 C50.4166976,83.4002078 50.8057008,83.9830649 51.4027998,84.2334545 L53.4628436,85.1092987 L60.1532805,91.7378701 C60.344645,91.928 60.6039804,92.0329351 60.873773,92.0329351 L63.8373081,92.0329351 L63.8373081,92.3518961 L62.6776185,93.3960519 C62.4308315,93.6183896 62.3095294,93.9446234 62.350312,94.2729351 L63.4315736,102.866182 C63.5549671,103.850078 64.3329735,104.633455 65.3086187,104.769558 L65.4320121,104.78826 C66.187013,104.895273 66.9294653,104.607481 67.4209479,104.032935 L71.1687637,99.6578701 L74.1814471,98.4225455 C74.2724237,98.3851429 74.3581717,98.3342338 74.4355541,98.2718961 L84.4450666,90.2022857 C85.2858155,89.5228052 86.5302075,89.6007273 87.2799798,90.3789091 L90.4819362,93.6911169 C90.5174903,93.7274805 90.5321302,93.7752727 90.5248103,93.822026 C90.518536,93.8698182 90.4882105,93.9134545 90.4474279,93.9352727 L89.7122955,94.3373506 C88.8516782,94.8121558 88.2483049,95.6724156 88.0956316,96.6386494 C87.9460955,97.6059221 88.258762,98.6064416 88.9332434,99.3170909 L89.6641929,100.085922 C89.8524203,100.283325 89.9266655,100.558649 89.8649688,100.823584 C89.8032721,101.089558 89.613999,101.303584 89.3567549,101.399169 L87.6564345,102.028779 C86.7017035,102.385143 86.0617305,103.305662 86.0617305,104.318649 L86.0617305,104.74774 C86.0617305,105.438649 86.3587114,106.100468 86.8773824,106.564883 L89.9402597,109.29839 C90.0437848,109.391896 90.168224,109.463584 90.3020745,109.507221 L92.4374093,110.208519 L94.1220442,113.345143 C94.6156181,114.261506 95.5536178,114.790338 96.5365829,114.790338 C96.8942149,114.790338 97.2581211,114.719688 97.6084331,114.574234 L100.416158,113.401247 C100.753921,113.259948 100.989206,112.950338 101.033125,112.588779 L102.594367,99.7742338 L103.480081,100.328 C103.990386,100.646961 104.617811,100.680208 105.17099,100.412156 C105.704301,100.147221 106.069253,99.6163117 106.119447,99.0324156 L106.278394,97.2963117 L107.250902,97.020987 C107.933749,96.8267013 108.410592,96.1981299 108.410592,95.4926753 L108.410592,94.6261818 C108.410592,94.0952727 108.193085,93.5726753 107.812447,93.1924156 L107.134829,92.5191688 L108.037274,89.4448831 L109.010828,88.6947532 C109.230427,88.5264416 109.370552,88.2770909 109.400877,88.0028052 L110.094181,81.6360519 C110.198752,80.6812468 110.754023,79.8137143 111.579086,79.315013 L115.322719,77.0552727 L119.221117,77.0552727 L121.599055,78.942026 C121.928453,79.2017662 122.385428,79.2360519 122.749334,79.0241039 C123.112194,78.8142338 123.308787,78.4028052 123.241862,77.9903377 L122.645809,74.2802078 Z" id="Fill-83"></path>
                <path d="M51.1365627,100.168416 L50.3501906,98.4021818 C49.7740057,97.1055584 48.6028133,96.1289351 47.2151594,95.7902338 L46.4225131,95.598026 L41.7450632,88.0655584 L41.7450632,87.4889351 L44.3164581,86.7751688 L45.4154967,87.7455584 L45.4416394,89.464 C45.4458222,89.7684156 45.5880385,90.0562078 45.8295969,90.2442597 C46.0690639,90.4333506 46.386959,90.502961 46.6828942,90.4375065 L47.7076876,90.209974 L49.9821015,91.7923117 C50.2717625,91.9928312 50.6461258,92.0323117 50.9692495,91.8930909 L53.9463788,90.6224416 L54.7829448,91.8442597 L54.6156316,93.3112727 C54.5779862,93.6468571 54.7086996,93.9772468 54.9659437,94.1964675 L57.2079406,96.0998442 L56.970565,96.5382857 C56.816846,96.822961 56.8084804,97.1637403 56.9496509,97.4567273 L59.3035385,102.327377 L51.1365627,100.168416 Z M59.0117861,97.0442597 L59.3934694,96.3398442 C59.6203879,95.9201039 59.5231371,95.3995844 59.1581852,95.089974 L56.7028639,93.0058182 L56.8524001,91.7008831 C56.8795885,91.4588052 56.8199831,91.2167273 56.6819497,91.0151688 L55.1583539,88.7907532 C54.8833328,88.3886753 54.3552505,88.2390649 53.9129162,88.4302338 L50.6858627,89.8089351 L48.5086996,88.2930909 C48.2744611,88.129974 47.9795716,88.0738701 47.7014134,88.1351688 L47.4609007,88.1881558 L47.4483522,87.2686753 C47.4441693,86.985039 47.3197301,86.7149091 47.1064058,86.5258182 L45.2544578,84.8936104 C44.9951223,84.665039 44.6333075,84.5860779 44.3039096,84.6754286 L40.451523,85.7434805 C39.9799089,85.8743896 39.6787452,86.3138701 39.7069793,86.7803636 C39.7059335,86.8001039 39.7059335,86.8188052 39.7059335,86.8385455 L39.7059335,88.3523117 C39.7059335,88.5403636 39.7582189,88.7242597 39.8575611,88.8842597 L44.9062371,97.0151688 C45.0474077,97.2416623 45.2722348,97.4047792 45.532616,97.4671169 L46.7299511,97.7590649 C47.5058661,97.9471169 48.1625704,98.4946494 48.485694,99.2208831 L49.4697048,101.432831 C49.594144,101.713351 49.8419767,101.922182 50.1400034,102.002182 L59.0034205,104.346078 C59.1686423,104.388675 59.3349098,104.409455 59.5001316,104.409455 C60.0679508,104.409455 60.6190386,104.160104 60.9913105,103.712312 C61.4660617,103.137766 61.5654039,102.334649 61.2422803,101.661403 L59.0117861,97.0442597 Z" id="Fill-85"></path>
            </g>
        </g>
    </g>
</svg>