<?xml version="1.0" encoding="UTF-8"?>
<svg width="161px" height="159px" viewBox="0 0 161 159" version="1.1" xmlns="http://www.w3.org/2000/svg" xmlns:xlink="http://www.w3.org/1999/xlink">
    <!-- Generator: Sketch 50.2 (55047) - http://www.bohemiancoding.com/sketch -->
    <title>Group</title>
    <desc>Created with Sketch.</desc>
    <defs></defs>
    <g id="Page-1" stroke="none" stroke-width="1" fill="none" fill-rule="evenodd">
        <g id="greenland" transform="translate(-599.000000, -643.000000)" fill="#FFFFFF">
            <g id="Group" transform="translate(599.000000, 643.000000)">
                <path d="M67.590181,156.980288 C67.5493238,157.222902 67.722181,157.465516 67.942181,157.501072 L70.2385619,157.881725 C70.4596095,157.917281 70.7026571,157.744732 70.7435143,157.502118 L71.4035143,153.600418 C71.445419,153.355712 71.2725619,153.114144 71.0525619,153.078588 L68.7551333,152.696889 C68.5340857,152.661333 68.2920857,152.833882 68.250181,153.078588 L67.590181,156.980288 Z M69.0327524,151.577935 L71.159419,151.930353 C72.1609429,152.095582 72.7769429,152.911268 72.6166571,153.863948 L71.9765619,157.643294 C71.8152286,158.593882 70.9656095,159.168 69.9630381,159.002771 L67.8363714,158.650353 C66.8338,158.484078 66.2178,157.667346 66.3780857,156.716758 L67.018181,152.937412 C67.1784667,151.985778 68.030181,151.412706 69.0327524,151.577935 Z" id="Fill-1"></path>
                <path d="M55.8903714,154.154458 C55.8118,154.389752 55.9469429,154.654327 56.1585619,154.722301 L58.3973238,155.448052 C58.6089429,155.517072 58.8750381,155.38217 58.9536095,155.146876 L60.2044667,151.380078 C60.2903714,151.121778 60.1918952,150.907399 60.0148476,150.849882 L59.2490381,150.602039 C59.0363714,150.53302 58.9745619,150.525699 58.834181,150.59681 L58.4098952,150.81119 L58.993419,151.844392 L57.8913238,152.372497 L57.3580857,151.381124 C56.9264667,151.578771 56.7431333,151.582954 56.5996095,152.017987 L55.8903714,154.154458 Z M57.1768476,148.473935 L57.8536095,149.773804 C58.3679905,149.523869 58.8153238,149.239425 59.4386571,149.441255 L60.264181,149.708967 C61.2300857,150.021647 61.6795143,150.868706 61.3746571,151.783739 L60.1510381,155.471059 C59.8503714,156.374588 58.9190381,156.826353 57.9520857,156.512627 L55.8767524,155.840209 C54.9118952,155.527529 54.4268476,154.629229 54.7317048,153.714196 L55.3969429,151.707399 C55.6829429,150.849882 56.0464667,150.733804 56.8038952,150.342693 L56.0747524,148.999948 L57.1768476,148.473935 Z" id="Fill-4"></path>
                <path d="M45.561581,148.562092 C45.4442476,148.794248 45.4264381,148.853856 45.4934857,149.052549 L46.0832952,150.808366 C46.1838667,150.748758 47.8453905,150.219608 47.8453905,150.219608 C48.0454857,150.15268 48.0842476,150.103529 48.2026286,149.872418 L48.6363429,149.023268 L45.9952952,147.713987 L45.561581,148.562092 Z M46.3996762,144.173072 L47.519581,144.728366 L46.490819,146.744575 L49.130819,148.054902 L50.1606286,146.037647 L51.2805333,146.592941 L49.2942476,150.483137 C49.0637714,150.934902 48.839581,151.182745 48.333581,151.331242 L46.0644381,152.016209 L45.0880571,151.53098 L44.2950095,149.327582 C44.1137714,148.83817 44.1829143,148.512941 44.4133905,148.061176 L46.3996762,144.173072 Z" id="Fill-6"></path>
                <path d="M35.6111905,142.618562 C35.4603333,142.829804 35.4351905,142.88732 35.4687143,143.096471 L35.7777619,144.944314 C35.8867143,144.900392 37.5911905,144.642092 37.5911905,144.642092 C37.7975714,144.607582 37.8436667,144.564706 37.9934762,144.352418 L38.5476667,143.577516 L36.1643333,141.842614 L35.6111905,142.618562 Z M37.1019524,138.375948 L38.1129048,139.112157 L36.7970952,140.955817 L39.179381,142.690719 L40.4951905,140.848105 L41.5061429,141.583268 L38.9688095,145.138824 C38.6744286,145.552941 38.4177619,145.763137 37.8991905,145.82902 L35.576619,146.143791 L34.6955714,145.501699 L34.2555714,143.176993 C34.1539524,142.659346 34.2702381,142.345621 34.564619,141.933595 L37.1019524,138.375948 Z" id="Fill-8"></path>
                <polygon id="Fill-10" points="26.5131429 137.510275 30.681619 133.155765 31.6297143 134.080209 27.4612381 138.434719 29.0138095 139.946876 28.217619 140.778248 24.1570476 136.821124 24.9532381 135.989752"></polygon>
                <path d="M23.2730667,125.21349 L24.4338286,126.724601 C25.0519238,127.52983 24.9482095,128.551529 24.1865905,129.146562 L23.8251619,129.427869 L23.0719238,128.446954 L23.4815429,128.126954 C23.6774476,127.974275 23.7151619,127.678327 23.5789714,127.501595 L22.3124,125.852444 C22.1762095,125.675712 21.8828762,125.638065 21.6869714,125.791791 L20.9557333,126.362771 C20.3795429,126.811399 21.4638286,127.817412 22.0023048,128.55885 C22.584781,129.376627 22.5166857,130.386824 21.7456381,130.988131 L21.1118286,131.483817 C20.3502095,132.077804 19.3413524,131.923033 18.7232571,131.117804 L17.6536381,129.724863 C17.0355429,128.92068 17.1392571,127.896889 17.8998286,127.302902 L18.2717333,127.014275 L19.0249714,127.99519 L18.6059238,128.32251 C18.410019,128.47519 18.3723048,128.770092 18.5084952,128.946824 L19.6839238,130.47885 C19.8201143,130.655582 20.1134476,130.693229 20.3093524,130.540549 L21.0510667,129.961203 C21.6262095,129.511529 20.5429714,128.506562 19.994019,127.772444 C19.4094476,126.972444 19.4796381,125.944471 20.2506857,125.343163 L20.8855429,124.847477 C21.6461143,124.25349 22.6549714,124.408261 23.2730667,125.21349" id="Fill-12"></path>
                <path d="M17.105,116.351163 L18.0363333,118.013908 C18.5308095,118.89966 18.279381,119.89417 17.4381429,120.369987 L12.6431905,123.083712 L12.014619,121.961621 L16.8640476,119.216523 C17.0809048,119.095216 17.1605238,118.807634 17.0515714,118.613124 L16.0835714,116.886588 C15.9756667,116.692078 15.688619,116.611556 15.4738571,116.733908 L10.6244286,119.479007 L9.99480952,118.355869 L14.7908095,115.641098 C15.6320476,115.165281 16.6084286,115.465412 17.105,116.351163" id="Fill-14"></path>
                <polygon id="Fill-16" points="6.85289524 109.232105 12.4786095 107.055895 12.9489905 108.29302 7.32327619 110.468183 8.09537143 112.491712 7.02051429 112.907922 5.00384762 107.612235 6.07870476 107.197072"></polygon>
                <path d="M5.33154286,90.2900915 L5.60601905,92.2498301 C5.62068571,92.359634 5.54944762,92.4694379 5.42687619,92.4861699 L3.47411429,92.7434248 C3.34944762,92.7591111 3.2384,92.6744052 3.22268571,92.5646013 L2.94925714,90.6048627 C2.93354286,90.4940131 3.01630476,90.3831634 3.13992381,90.3664314 L5.09268571,90.1091765 C5.21630476,90.0934902 5.31582857,90.1802876 5.33154286,90.2900915" id="Fill-18"></path>
                <path d="M7.37565714,72.3601569 L7.15565714,74.2770196 C7.04146667,75.2840784 6.25470476,75.9439477 5.2940381,75.837281 L1.47546667,75.4147974 C0.515847619,75.3081307 -0.1012,74.4945359 0.0140380952,73.4864314 L0.234038095,71.5706144 C0.34927619,70.5625098 1.13499048,69.9015948 2.09460952,70.0082614 L2.5995619,70.064732 L2.45708571,71.3175425 L1.86622857,71.2516601 C1.61899048,71.2244706 1.38746667,71.4116601 1.36232381,71.6323137 L1.12870476,73.6715294 C1.1035619,73.8932288 1.28689524,74.1243399 1.53413333,74.1525752 L5.48575238,74.5896993 C5.73299048,74.6158431 5.96660952,74.4296993 5.9928,74.2100915 L6.22537143,72.1698301 C6.2515619,71.9481307 6.06508571,71.7170196 5.81889524,71.6887843 L4.42765714,71.5361046 L4.25899048,72.9980654 L3.11499048,72.8715294 L3.42508571,70.1557124 L5.91318095,70.4307451 C6.87384762,70.5374118 7.49089524,71.3520523 7.37565714,72.3601569" id="Fill-20"></path>
                <path d="M3.91872381,59.7406536 C3.66624762,59.6747712 3.38129524,59.8284967 3.32681905,60.0324183 L2.68567619,62.3947712 L4.52948571,62.884183 L5.13500952,60.652549 C5.25339048,60.2101961 5.16329524,60.0711111 4.74424762,59.9602614 L3.91872381,59.7406536 Z M9.33072381,61.1754248 L7.00710476,60.5594771 C6.56500952,60.4423529 6.40367619,60.5155556 6.30100952,60.8962092 L5.67977143,63.1884967 L8.5764381,63.9560784 L8.25691429,65.1388235 L1.31224762,63.2972549 L2.25615238,59.8117647 C2.52224762,58.8339869 3.39805714,58.2985621 4.33253333,58.5453595 L5.08577143,58.7461438 C5.67348571,58.900915 5.9259619,59.2491503 6.04958095,59.5001307 C6.26434286,59.3265359 6.64358095,59.1581699 7.18100952,59.3014379 L9.66072381,59.9581699 L9.33072381,61.1754248 Z" id="Fill-22"></path>
                <polygon id="Fill-24" points="11.1691905 54.6293333 4.56080952 51.8131242 6.42871429 47.552732 7.48680952 48.0044967 6.11652381 51.1312941 7.82519048 51.860183 8.88747619 49.435085 9.97071429 49.8973072 8.90842857 52.3213595 10.6055714 53.0450196 11.9769048 49.9182222 13.0360476 50.3699869"></polygon>
                <polygon id="Fill-26" points="15.3514952 45.3309281 9.19987619 41.6247843 11.5706381 37.6226928 12.5564476 38.2166797 10.8174 41.1552418 12.4066381 42.1131503 13.757019 39.8344575 14.763781 40.4420392 13.4154952 42.720732 14.9953048 43.672366 16.7354 40.7338039 17.7222571 41.3277908"></polygon>
                <polygon id="Fill-28" points="23.2915048 33.4477386 21.6069333 32.0683922 17.4856 32.4030327 21.4885524 35.6825098 20.6955048 36.6644706 15.1420762 32.115451 15.8104571 31.2872157 20.2366476 30.9452549 17.7370286 28.8976732 18.5300762 27.9157124 24.0845524 32.4657778"></polygon>
                <polygon id="Fill-30" points="27.7438857 28.3057778 22.8881714 23.0184575 23.8320762 22.1421176 27.9073143 26.5823791 30.2665524 24.3915294 31.0438857 25.2385882"></polygon>
                <path d="M36.0286667,15.7884444 C35.8809524,15.5740654 35.8359048,15.529098 35.6295238,15.4924967 L33.7982857,15.163085 C33.8035238,15.2812549 33.4714286,16.9868758 33.4714286,16.9868758 C33.431619,17.1928889 33.4578095,17.2504052 33.6044762,17.4658301 L34.1419048,18.2501438 L36.5671429,16.5738039 L36.0286667,15.7884444 Z M39.4910476,18.6287059 L38.4622857,19.339817 L37.1831429,17.4721046 L34.7579048,19.1484444 L36.0391429,21.0172026 L35.010381,21.7283137 L32.5411429,18.1246536 C32.2540952,17.7063529 32.1440952,17.3915817 32.2561905,16.8781176 L32.7454286,14.569098 L33.6421905,13.9479216 L35.9637143,14.3139346 C36.4812381,14.3913203 36.7347619,14.6067451 37.0207619,15.0250458 L39.4910476,18.6287059 Z" id="Fill-32"></path>
                <polygon id="Fill-34" points="47.8358571 13.8051765 46.8867143 11.8454379 43.0063333 10.4284444 45.2618571 15.0820392 44.1304286 15.6436078 41.0011905 9.18713725 41.9555714 8.71445752 46.1135714 10.2538039 44.706619 7.34870588 45.8380476 6.78713725 48.9672857 13.2436078"></polygon>
                <path d="M56.3282762,4.37814379 C56.2549429,4.14180392 55.9909429,4.00062745 55.7772286,4.06337255 L53.3666571,4.77971242 L54.8155143,9.43226144 L57.2250381,8.71592157 C57.4398,8.65317647 57.5780857,8.39383007 57.5047524,8.15644444 L56.3282762,4.37814379 Z M57.5078952,9.83383007 L53.9700857,10.8848105 L51.8371333,4.0340915 L55.3759905,2.98415686 C56.3502762,2.69448366 57.2711333,3.15566013 57.558181,4.07592157 L58.6979905,7.73709804 C58.9850381,8.65945098 58.482181,9.54415686 57.5078952,9.83383007 Z" id="Fill-36"></path>
                <path d="M74.7178667,3.94509804 L72.7389143,4.07058824 C72.626819,4.0779085 72.5241524,3.99738562 72.5157714,3.87503268 L72.3994857,1.91215686 C72.3911048,1.78771242 72.4832952,1.68313725 72.5964381,1.67581699 L74.5743429,1.5503268 C74.6853905,1.54405229 74.7912,1.63503268 74.7974857,1.75947712 L74.9158667,3.72235294 C74.9221524,3.84470588 74.8278667,3.93882353 74.7178667,3.94509804" id="Fill-38"></path>
                <path d="M93.3325905,4.79372549 C93.3776381,4.55111111 93.2058286,4.31686275 92.9868762,4.27503268 L90.6265905,3.82326797 L90.3741143,5.20993464 C90.3301143,5.45359477 90.498781,5.70039216 90.7177333,5.74222222 L92.6526857,6.1124183 C92.8716381,6.15424837 93.1157333,5.9869281 93.1597333,5.74326797 L93.3325905,4.79372549 Z M92.3593524,7.22614379 L90.5962095,6.88941176 C89.6093524,6.70013072 88.9933524,5.87816993 89.1683048,4.91607843 L89.4061143,3.6151634 L89.6208762,2.4345098 C89.9393524,0.694379085 91.4699238,-0.245751634 93.050781,0.0564705882 L94.0114476,0.240522876 L93.8050667,1.37202614 L92.880019,1.19529412 C91.9685905,1.02065359 91.0288762,1.62091503 90.8581143,2.55686275 L90.8350667,2.68026144 L93.1094476,3.11529412 C94.1078286,3.30562092 94.7091619,4.15058824 94.5363048,5.10013072 L94.3885905,5.91477124 C94.2157333,6.86326797 93.3577333,7.41751634 92.3593524,7.22614379 Z" id="Fill-40"></path>
                <path d="M104.826752,4.5894902 C104.906371,4.35419608 104.773324,4.08962092 104.560657,4.02164706 L102.665514,3.4067451 C102.4518,3.33772549 102.184657,3.47262745 102.10399,3.70687582 L101.794943,4.62086275 C101.720562,4.84256209 101.85361,5.10713725 102.066276,5.17615686 L104.375229,5.92386928 L104.826752,4.5894902 Z M101.416752,9.33406536 L100.486467,9.03288889 L100.855229,7.94321569 L101.749895,8.23288889 C102.64561,8.52360784 103.65761,8.04569935 103.963514,7.14216993 L104.002276,7.0260915 L101.776086,6.30452288 C100.810181,5.99079739 100.331419,5.08203922 100.640467,4.16805229 L100.906562,3.38373856 C101.21561,2.46975163 102.149038,2.0315817 103.114943,2.34530719 L104.847705,2.90583007 C105.81361,3.2185098 106.29761,4.10321569 105.984371,5.02975163 L105.561133,6.28256209 L105.176657,7.41929412 C104.608848,9.09563399 102.948371,9.83079739 101.416752,9.33406536 Z" id="Fill-42"></path>
                <path d="M110.888381,12.8973595 L109.755905,12.3357908 C109.689905,12.3033725 109.666857,12.2353987 109.698286,12.1695163 L110.249333,11.0338301 C110.28181,10.9658562 110.34781,10.9449412 110.41381,10.9773595 L111.546286,11.5389281 C111.612286,11.5713464 111.636381,11.6382745 111.603905,11.7052026 L111.052857,12.8408889 C111.021429,12.907817 110.954381,12.9297778 110.888381,12.8973595" id="Fill-44"></path>
                <path d="M119.20899,17.4173072 L117.699371,16.4248889 C116.849752,15.8675033 116.61299,14.8677647 117.139943,14.0593987 L117.416514,13.6348235 L118.451562,14.3145621 L118.140419,14.7914248 C118.006324,14.9984837 118.067086,15.2912941 118.253562,15.4136471 L119.9088,16.5012288 C120.095276,16.6225359 120.386514,16.5629281 120.52061,16.3548235 L121.04861,15.5464575 C121.183752,15.3383529 121.132419,15.0988758 121.018229,15.0235817 L119.382895,13.9495948 L120.031371,12.9529935 L121.666705,14.0280261 C121.779848,14.1022745 122.0208,14.0520784 122.154895,13.8450196 L122.6808,13.0366536 C122.814895,12.8295948 122.755181,12.5367843 122.567657,12.4154771 L120.912419,11.3268497 C120.725943,11.2044967 120.434705,11.2651503 120.30061,11.4732549 L119.93499,12.0337778 L118.90099,11.3529935 L119.23099,10.8447582 C119.757943,10.0353464 120.76261,9.85233987 121.611181,10.4097255 L123.121848,11.4021438 C123.970419,11.9595294 124.207181,12.959268 123.682324,13.767634 L123.229752,14.4641046 C122.994038,14.8248889 122.645181,15.0424052 122.274324,15.1375686 C122.335086,15.5203137 122.278514,15.9250196 122.041752,16.2889412 L121.590229,16.9833203 C121.063276,17.792732 120.05861,17.9746928 119.20899,17.4173072" id="Fill-46"></path>
                <path d="M131.877533,19.8999216 C132.04201,19.7148235 132.0242,19.4167843 131.855533,19.2693333 L130.364771,17.948549 C130.1982,17.801098 129.900676,17.8188758 129.7362,18.0039739 L129.0982,18.7265882 C128.942105,18.9033203 128.960962,19.2003137 129.127533,19.3488105 L130.943057,20.9571765 L131.877533,19.8999216 Z M126.910771,22.9399216 L126.179533,22.2915556 L126.941152,21.4298562 L127.645152,22.0541699 C128.349152,22.6763922 129.459629,22.6356078 130.090295,21.9224052 L130.17201,21.8293333 L128.421438,20.2774379 C127.661914,19.6050196 127.581248,18.5728627 128.220295,17.8502484 L128.770295,17.2290719 C129.409343,16.5064575 130.431819,16.470902 131.19239,17.1433203 L132.554295,18.3511634 C133.313819,19.0225359 133.411248,20.0348235 132.763819,20.7668497 L131.886962,21.759268 L131.090771,22.6586144 C129.919533,23.9835817 128.115533,24.0065882 126.910771,22.9399216 Z" id="Fill-48"></path>
                <path d="M133.196276,28.6254641 L133.906562,28.0272941 C135.638276,26.5663791 138.771705,29.0395817 139.623419,28.3211503 L139.963895,28.0335686 C140.153514,27.8735686 140.17761,27.5776209 140.034086,27.4082092 L138.882752,26.0476863 C138.739229,25.8782745 138.441705,25.8542222 138.252086,26.0131765 L137.836181,26.364549 L137.020086,25.400366 L137.352181,25.1201046 C138.079229,24.5072941 139.140467,24.5344837 139.805705,25.3187974 L140.877419,26.5831111 C141.515419,27.3391895 141.546848,28.3493856 140.7978,28.9810196 L140.41961,29.2999739 C138.943514,30.5454641 136.000752,28.2186667 134.940562,28.903634 L137.451705,31.8693856 L136.572752,32.6108235 L133.196276,28.6254641 Z" id="Fill-50"></path>
                <polygon id="Fill-52" points="140.066248 36.916915 140.996533 36.3260654 141.599962 37.2912941 145.174438 35.0209673 144.478819 34.8180915 144.687295 33.7754771 146.855867 34.2314248 147.388057 35.0805752 142.255771 38.3391373 142.872819 39.3263268 141.941486 39.9171765"></polygon>
                <path d="M153.088781,41.7198431 C153.133829,41.6978824 153.155829,41.6309542 153.12859,41.5765752 L152.814305,40.9459869 C152.787067,40.8895163 152.720019,40.8686013 152.674971,40.8895163 L152.031733,41.2074248 C151.97621,41.2346144 151.964686,41.295268 151.991924,41.3496471 L152.307257,41.981281 C152.333448,42.0367059 152.388971,42.0649412 152.445543,42.0377516 L153.088781,41.7198431 Z M151.71221,42.2876863 L151.3864,41.6340915 C151.198876,41.2586667 151.350781,40.811085 151.728971,40.6249412 L152.383733,40.3028497 C152.761924,40.1167059 153.221829,40.2610196 153.409352,40.6395817 L153.734114,41.2921307 C153.921638,41.6686013 153.765543,42.1318693 153.387352,42.3180131 L152.73259,42.6411503 C152.3544,42.8272941 151.899733,42.6641569 151.71221,42.2876863 Z" id="Fill-54"></path>
                <polygon id="Fill-56" points="149.193 54.6017255 151.249476 53.8812026 153.125762 50.1855163 148.237571 51.8953203 147.818524 50.7063007 154.598714 48.3355817 154.95281 49.3384575 152.922524 53.2966275 155.974238 52.2299608 156.393286 53.4189804 149.612048 55.7907451"></polygon>
                <path d="M155.573838,71.0836078 L155.398886,69.112366 C155.38841,69.0004706 155.465933,68.8938039 155.589552,68.8833464 L157.551743,68.6951111 C157.674314,68.6825621 157.781171,68.771451 157.791648,68.8833464 L157.9666,70.8535425 C157.977076,70.9654379 157.886981,71.0731503 157.76441,71.0856993 L155.802219,71.2739346 C155.679648,71.2843922 155.584314,71.1934118 155.573838,71.0836078" id="Fill-58"></path>
                <path d="M152.879048,88.8684967 L153.13781,87.0175163 C153.279238,86.0146405 154.080667,85.3819608 155.03819,85.5220915 L155.54,85.5952941 L155.36819,86.8198693 L154.804571,86.7372549 C154.559429,86.7016993 154.320571,86.8794771 154.29019,87.1001307 L154.006286,89.1205229 C153.975905,89.3411765 154.155048,89.5796078 154.40019,89.6151634 L155.883619,89.8326797 C156.252381,89.8870588 156.50381,89.6988235 156.539429,89.4415686 L156.97419,85.979085 L160.453333,86.5898039 L159.794381,91.2935948 L158.654571,91.1262745 L159.149048,87.5989542 L157.94219,87.3720261 L157.702286,89.4373856 C157.574476,90.5312418 156.645238,91.1942484 155.688762,91.0541176 L154.291238,90.8491503 C153.334762,90.7090196 152.737619,89.8724183 152.879048,88.8684967" id="Fill-60"></path>
                <path d="M153.643286,99.8703268 L153.850714,99.1717647 C153.901,99.0054902 154.058143,98.9113725 154.21319,98.9584314 L154.887857,99.1623529 C155.041857,99.2094118 155.121476,99.3746405 155.07119,99.5419608 L154.863762,100.240523 C154.813476,100.407843 154.656333,100.501961 154.502333,100.455948 L153.827667,100.249935 C153.672619,100.202876 153.593,100.036601 153.643286,99.8703268 Z M155.84119,101.687843 C156.077952,101.76 156.339857,101.619869 156.403762,101.406536 L157.003,99.3913725 C157.067952,99.1780392 156.925476,98.9155556 156.688714,98.8444444 L152.895286,97.6930719 C152.659571,97.6219608 152.397667,97.7610458 152.333762,97.9754248 L151.733476,99.9884967 C151.668524,100.20183 151.811,100.465359 152.04881,100.537516 L155.84119,101.687843 Z M150.655476,99.5722876 L151.206524,97.7223529 C151.496714,96.7508497 152.384048,96.2447059 153.309095,96.5260131 L156.983095,97.6397386 C157.907095,97.9210458 158.37119,98.8371242 158.081,99.8075817 L157.531,101.657516 C157.24081,102.630065 156.353476,103.136209 155.429476,102.854902 L151.754429,101.741176 C150.829381,101.460915 150.366333,100.543791 150.655476,99.5722876 Z" id="Fill-62"></path>
                <path d="M147.667562,107.966745 L148.173562,106.81119 C148.20499,106.743216 148.268895,106.718118 148.338038,106.748444 L149.490419,107.265046 C149.558514,107.294327 149.583657,107.360209 149.553276,107.428183 L149.046229,108.583739 C149.016895,108.651712 148.95299,108.67681 148.884895,108.645438 L147.732514,108.129882 C147.663371,108.099556 147.638229,108.034719 147.667562,107.966745" id="Fill-64"></path>
                <path d="M147.993895,119.602824 C148.206562,119.730405 148.496752,119.662431 148.616181,119.47315 L149.672181,117.784261 C149.790562,117.596026 149.721419,117.308444 149.5098,117.179817 L148.684276,116.678902 C148.484181,116.556549 148.191895,116.625569 148.073514,116.81485 L146.789133,118.870797 L147.993895,119.602824 Z M144.134467,115.266092 L144.654086,114.43681 L145.638848,115.032889 L145.139133,115.830797 C144.641514,116.62766 144.87199,117.707922 145.68599,118.202562 L145.7918,118.266353 L147.031133,116.283608 C147.56961,115.424 148.578467,115.167791 149.40399,115.66766 L150.113229,116.09851 C150.938752,116.599425 151.148276,117.59498 150.6098,118.454588 L149.64599,119.997072 C149.107514,120.857725 148.121705,121.126484 147.285705,120.62034 L146.152181,119.932235 L145.125514,119.310013 C143.611705,118.391843 143.282752,116.628706 144.134467,115.266092 Z" id="Fill-66"></path>
                <path d="M138.99401,127.204915 C139.185724,127.361778 139.473819,127.328314 139.61839,127.157856 L141.169914,125.326745 L140.081438,124.427399 C139.890771,124.268444 139.5922,124.295634 139.448676,124.466092 L138.176867,125.966745 C138.032295,126.137203 138.058486,126.432105 138.249152,126.588967 L138.99401,127.204915 Z M137.345057,125.167791 L138.504771,123.797856 C139.1522,123.033412 140.174676,122.89851 140.928962,123.522824 L141.949343,124.365699 L142.875438,125.13119 C144.239438,126.259556 144.310676,128.051974 143.271438,129.279686 L142.638676,130.025307 L141.75239,129.292235 L142.36001,128.57485 C142.960295,127.86583 142.895343,126.75315 142.16201,126.146614 L142.066676,126.068183 L140.569629,127.834458 C139.913819,128.608314 138.881914,128.717072 138.137057,128.101124 L137.496962,127.574065 C136.753152,126.958118 136.689248,125.941647 137.345057,125.167791 Z" id="Fill-68"></path>
                <path d="M133.545133,137.312105 C133.710657,137.496157 134.008181,137.511843 134.176848,137.364392 L135.66761,136.043608 C135.834181,135.896157 135.850943,135.599163 135.685419,135.416157 L135.039038,134.699817 C134.880848,134.524131 134.582276,134.507399 134.415705,134.655895 L132.600181,136.264261 L133.545133,137.312105 Z M131.092657,132.044654 L131.822848,131.397333 L132.594943,132.250667 L131.890943,132.873935 C131.186943,133.498248 131.098943,134.601516 131.736943,135.308444 L131.819705,135.400471 L133.570276,133.849621 C134.3298,133.176157 135.36799,133.216941 136.014371,133.934327 L136.570657,134.549229 C137.217038,135.265569 137.133229,136.283085 136.373705,136.954458 L135.010752,138.161255 C134.252276,138.834719 133.230848,138.812758 132.576086,138.087007 L131.6898,137.104 L130.884181,136.211974 C129.699324,134.89851 129.887895,133.110275 131.092657,132.044654 Z" id="Fill-70"></path>
                <path d="M124.725333,137.645072 L125.240762,138.416837 C126.49581,140.302327 123.665143,143.109124 124.283238,144.03566 L124.530476,144.406902 C124.667714,144.611869 124.961048,144.672523 125.146476,144.55017 L126.63619,143.571346 C126.822667,143.448993 126.882381,143.157229 126.745143,142.951216 L126.443429,142.498405 L127.497333,141.806118 L127.738286,142.16481 C128.267333,142.95749 128.115429,144.004288 127.257429,144.568993 L125.871429,145.479843 C125.04381,146.023634 124.03181,145.934745 123.489143,145.120105 L123.215714,144.71017 C122.144,143.10285 124.804952,140.465464 124.246571,139.338144 L120.996857,141.472523 L120.358857,140.514614 L124.725333,137.645072 Z" id="Fill-72"></path>
                <path d="M118.591,151.718797 C118.613,151.763765 118.680048,151.78468 118.734524,151.758536 L119.366238,151.443765 C119.42281,151.417621 119.443762,151.350693 119.421762,151.305725 L119.098048,150.665725 C119.07081,150.610301 119.010048,150.599843 118.954524,150.627033 L118.321762,150.940758 C118.267286,150.967948 118.239,151.023373 118.267286,151.079843 L118.591,151.718797 Z M118.009571,150.348863 L118.664333,150.02468 C119.042524,149.838536 119.491952,149.988078 119.681571,150.363503 L120.010524,151.015007 C120.200143,151.391477 120.056619,151.848471 119.679476,152.03566 L119.024714,152.359843 C118.648619,152.547033 118.180333,152.392261 117.991762,152.015791 L117.661762,151.365333 C117.47319,150.989908 117.633476,150.537098 118.009571,150.348863 Z" id="Fill-74"></path>
                <path d="M104.408229,149.667137 L104.781181,148.236549 L105.834038,147.866353 L106.99899,148.781386 L107.317467,147.344523 L108.381848,146.97119 L109.560419,147.855895 C109.934419,148.128837 110.22461,148.394458 110.398514,148.884915 L111.964705,153.314719 L110.76099,153.738248 L109.19061,149.296941 C109.041848,148.876549 108.543181,148.579556 108.20899,148.303477 C108.224705,148.717595 107.867467,149.381647 108.000514,149.753935 L108.9308,152.390275 L107.762705,152.800209 L106.831371,150.164915 C106.777943,150.013281 106.697276,149.936941 106.51499,149.791582 L105.73661,149.22583 C105.65699,149.633673 105.467371,150.132497 105.615086,150.553935 L107.185467,154.996288 L105.9828,155.418771 L104.415562,150.988967 C104.241657,150.49851 104.301371,150.110536 104.408229,149.667137" id="Fill-76"></path>
                <path d="M88.2366571,154.530301 L90.2051333,154.305464 C90.3172286,154.292915 90.426181,154.368209 90.4408476,154.490562 L90.6723714,156.44298 C90.6880857,156.566379 90.6011333,156.675137 90.4890381,156.687686 L88.5205619,156.911477 C88.4084667,156.925072 88.2995143,156.83932 88.2838,156.715922 L88.0512286,154.763503 C88.0376095,154.640105 88.1245619,154.543895 88.2366571,154.530301" id="Fill-78"></path>
                <path d="M80.2751714,15.4238954 C44.966219,15.4238954 16.2405048,44.0984052 16.2405048,79.3444183 C16.2405048,114.590431 44.966219,143.264941 80.2751714,143.264941 C115.584124,143.264941 144.309838,114.590431 144.309838,79.3444183 C144.309838,44.0984052 115.584124,15.4238954 80.2751714,15.4238954 M80.2751714,145.303111 C43.8400286,145.303111 14.1986952,115.714614 14.1986952,79.3444183 C14.1986952,42.9742222 43.8400286,13.3857255 80.2751714,13.3857255 C116.710314,13.3857255 146.351648,42.9742222 146.351648,79.3444183 C146.351648,115.714614 116.710314,145.303111 80.2751714,145.303111" id="Fill-80"></path>
                <path d="M97.0960571,43.8076863 L97.0918667,43.8108235 C97.0939619,43.8097778 97.0950095,43.808732 97.0960571,43.8076863 Z M75.5067238,44.8011503 L75.5130095,44.8095163 C75.5109143,44.8063791 75.508819,44.8042876 75.5067238,44.8011503 Z M52.2579619,57.2539608 L52.2600571,57.2686013 C52.2590095,57.2633725 52.2590095,57.2591895 52.2579619,57.2539608 Z M49.5100571,72.8356601 L49.5090095,72.8356601 L49.5100571,72.8356601 Z M49.5121524,73.3376209 L49.5132,73.3376209 L49.5121524,73.3376209 Z M73.7173905,126.052915 L77.0760571,128.170562 C77.1420571,128.212392 77.2269143,128.218667 77.2981524,128.189386 C77.3704381,128.159059 77.422819,128.095268 77.4406286,128.019974 L78.2273905,124.429908 L77.9791048,122.453438 C77.9550095,122.256837 77.9874857,122.05919 78.0744381,121.881412 L81.3094857,115.222065 C81.4414857,114.949124 81.6887238,114.74834 81.9852,114.676183 L85.4706286,113.82285 L89.0346286,109.120105 C89.8234857,108.075399 90.9591048,107.309908 92.2319619,106.965856 L96.7629143,105.744418 C97.0614857,105.663895 97.3244381,105.498667 97.5245333,105.26651 L99.8659619,102.547556 C100.022057,102.368732 100.114248,102.148078 100.137295,101.909647 L100.493486,97.9713464 C100.515486,97.7308235 100.455771,97.4850719 100.324819,97.2759216 L99.2719619,95.6121307 C98.5857714,94.528732 98.740819,93.1368366 99.6491048,92.2301699 L101.725486,90.1585359 L103.143962,80.141281 L101.343105,76.912 C101.243581,76.7342222 101.199581,76.5313464 101.21739,76.3274248 L102.178057,65.1828497 C102.188533,65.0646797 102.219962,64.9475556 102.270248,64.8408889 L103.560914,62.0727843 L103.979962,57.7423268 C103.995676,57.572915 104.054343,57.4097778 104.150724,57.2696471 L109.756533,48.9862484 C110.1012,48.4780131 110.07501,47.8160523 109.693676,47.337098 L108.522438,45.867817 C108.489962,45.8280784 108.438629,45.7998431 108.388343,45.8050719 C108.342248,45.8050719 108.295105,45.8259869 108.261581,45.8646797 L105.902343,48.5595817 C105.755676,48.726902 105.558724,48.8419346 105.341867,48.886902 L101.16501,49.7601046 C100.880057,49.8165752 100.584629,49.7559216 100.352057,49.5854641 C100.118438,49.4150065 99.9686286,49.1525229 99.9392952,48.8649412 L99.5998667,45.5174902 C99.576819,45.3031111 99.3976762,45.1399739 99.180819,45.1399739 L98.5292,45.1399739 C98.4799619,45.1399739 98.4296762,45.1368366 98.3793905,45.1295163 L96.601581,44.8659869 C95.963581,44.7697778 95.4544381,44.284549 95.330819,43.6550065 C95.2072,43.0254641 95.4952952,42.3823268 96.0505333,42.0560523 L100.280819,39.5378824 C100.318533,39.5148758 100.347867,39.4751373 100.356248,39.4301699 C100.363581,39.3904314 100.353105,39.3444183 100.326914,39.3099085 L99.1912952,37.8197124 C99.1598667,37.7768366 99.1074857,37.7517386 99.043581,37.7632418 L97.5454857,38.0016732 C97.2542476,38.0476863 96.9504381,37.9640261 96.7220571,37.7705621 C96.4947238,37.577098 96.3637714,37.2926536 96.3637714,36.9946144 L96.3637714,34.9323922 L95.5592,34.4252026 C95.3014857,34.2641569 95.1307238,33.9964444 95.0909143,33.695268 L94.9746286,32.8074248 L88.312819,30.8435033 C87.5113905,30.6061176 86.6460571,30.651085 85.870819,30.9731765 L76.3154857,34.9386667 C76.0546286,35.0474248 75.8629143,35.2753987 75.7990095,35.5504314 L75.4742476,36.9862484 C75.4344381,37.1577516 75.4480571,37.3344837 75.5140571,37.5007582 L76.8780571,40.9632418 C77.1609143,41.6795817 76.867581,42.5046797 76.1971048,42.8821961 L76.124819,42.9229804 L76.405581,45.0123922 C76.4872952,45.6429804 76.1363429,46.2516078 75.552819,46.495268 C74.9682476,46.7441569 74.2841524,46.5621961 73.8944381,46.0539608 L70.069581,41.1420654 L69.5887238,41.2957908 L69.6264381,43.0923922 C69.6452952,44.0576209 68.9046286,44.8576209 67.940819,44.9151373 L66.791581,44.9820654 C66.1420571,45.0228497 65.5711048,44.7059869 65.2452952,44.1653333 L64.4218667,42.7933072 C64.3652952,42.7002353 64.2521524,42.6657255 64.1484381,42.7127843 L60.4126286,44.5533072 L60.4126286,44.8607582 C60.4126286,45.206902 60.2366286,45.5300392 59.9443429,45.7182745 L58.7961524,46.4586667 L58.7961524,49.9065098 C58.7961524,50.9313464 57.9601524,51.7648105 56.9324381,51.7648105 L55.9351048,51.7648105 C55.7077714,51.7648105 55.4940571,51.8746144 55.3631048,52.0586667 L52.0976762,56.6202353 L52.1814857,56.9548758 L54.4401524,56.9548758 C55.0037714,56.9548758 55.4605333,57.4108235 55.4605333,57.9734379 L55.4605333,60.932915 C55.4605333,61.1096471 55.4144381,61.2842876 55.3264381,61.4380131 L53.574819,64.4968366 C53.393581,64.8136993 53.0541524,65.0103007 52.6885333,65.0103007 L50.4309143,65.0103007 C50.362819,65.0103007 50.2999619,65.055268 50.2779619,65.1201046 L49.9846286,65.9713464 C49.9018667,66.2097778 49.7321524,66.4105621 49.5100571,66.532915 L46.2467238,68.3253333 L46.2142476,69.5635033 L50.3544381,71.4793203 C50.9840571,71.7616732 51.391581,72.3933072 51.391581,73.084549 C51.391581,73.7747451 50.9882476,74.4042876 50.3607238,74.6908235 L48.4729143,75.5556601 L50.8489143,78.5266405 C51.2082476,78.9742222 51.8032952,79.1666405 52.3512,79.0233725 L55.9351048,78.0821961 C56.9041524,77.8270327 57.9350095,78.0048105 58.7626286,78.5716078 L60.372819,79.6759216 C61.5503429,80.4842876 62.4062476,81.686902 62.7833905,83.0631111 L66.1263429,95.2335686 C66.2206286,95.5786667 66.5087238,95.8327843 66.862819,95.8808889 C68.4405333,96.0984052 69.7060571,97.2947451 70.0098667,98.8550065 L70.971581,103.774222 C70.9956762,103.90285 70.9967238,104.034614 70.971581,104.163242 L70.1617714,108.332654 C70.1125333,108.594092 69.9606286,108.824157 69.7416762,108.975791 L68.2729143,109.994353 C68.0497714,110.148078 67.9450095,110.429386 68.0141524,110.692915 L70.1209143,118.875922 L73.7173905,126.052915 Z M77.2049143,130.247425 C76.779581,130.247425 76.3542476,130.128209 75.9844381,129.895007 L72.384819,127.62468 C72.2276762,127.525333 72.0998667,127.384157 72.0171048,127.217882 L68.2456762,119.689516 C68.2132,119.625725 68.1891048,119.557752 68.1702476,119.488732 L66.0352,111.20115 C65.7544381,110.114614 66.1860571,108.955922 67.1079619,108.318013 L68.2352,107.536837 L68.9287238,103.970824 L68.0047238,99.2450719 C67.8674857,98.5391895 67.2954857,97.9995817 66.5810095,97.901281 C65.4160571,97.7391895 64.4637714,96.903634 64.1557714,95.771085 L60.8138667,83.6006275 C60.5634857,82.688732 59.9956762,81.892915 59.2152,81.3574902 L57.6060571,80.2531765 C57.2697714,80.0231111 56.8496762,79.9509542 56.4557714,80.0534379 L52.8718667,80.9946144 C51.5351048,81.3470327 50.115581,80.8774902 49.2523429,79.7993203 L46.8166286,76.7530458 C46.4373905,76.2740915 46.3012,75.6644183 46.4394857,75.0767059 C46.5819619,74.482719 46.9790095,73.9985359 47.5321524,73.7433725 L48.9611048,73.088732 L45.407581,71.4793203 C44.6574857,71.139451 44.1724381,70.3886013 44.1724381,69.5635033 L44.1724381,68.3818039 C44.1724381,67.6163137 44.5883429,66.9114771 45.2598667,66.5402353 L48.1806286,64.9360523 L48.3472,64.4539608 C48.6572952,63.5650719 49.4943429,62.9721307 50.4309143,62.9721307 L52.095581,62.9721307 L53.4187238,60.6620654 L53.4187238,58.9930458 L51.8640571,58.9930458 C51.0982476,58.9930458 50.4434857,58.4743529 50.2706286,57.7308235 L50.1145333,57.063634 C49.9825333,56.5041569 50.0977714,55.9122614 50.4330095,55.4385359 L53.6994857,50.8759216 C54.2117714,50.1564444 55.0477714,49.7266405 55.9351048,49.7266405 L56.7543429,49.7266405 L56.7543429,45.9023268 C56.7543429,45.556183 56.9292952,45.2340915 57.2205333,45.0458562 L58.3697714,44.3054641 L58.3697714,43.9206275 C58.3697714,43.5326536 58.5897714,43.1781438 58.9386286,43.0066405 L63.2443429,40.8848105 C64.2898667,40.3671634 65.5763429,40.7488627 66.1745333,41.7454641 L66.8869143,42.9334379 L67.5793905,42.8936993 L67.5427238,41.1838954 C67.5291048,40.3661176 68.0403429,39.6508235 68.8166286,39.4019346 L69.6212,39.1446797 C70.3304381,38.9187974 71.1172,39.160366 71.5729143,39.7501699 L74.0683429,42.9533072 L74.007581,42.5088627 C73.9531048,42.0957908 74.1552952,41.6889935 74.5198667,41.4850719 L74.8226286,41.3156601 L73.611581,38.2463791 C73.3957714,37.6963137 73.3507238,37.1033725 73.4816762,36.5334379 L73.8074857,35.0976209 C74.0170095,34.1804967 74.6612952,33.4160523 75.5318667,33.055268 L85.0872,29.0897778 C86.2919619,28.5909542 87.6454857,28.5167059 88.8921524,28.8879477 L96.1909143,31.0390588 C96.5785333,31.1530458 96.8624381,31.484549 96.9137714,31.8850719 L97.0541524,32.9569673 L97.9299619,33.5091242 C98.2264381,33.6963137 98.405581,34.0204967 98.405581,34.3708235 L98.405581,35.7993203 L98.7261524,35.7491242 C99.5359619,35.627817 100.326914,35.9457255 100.816152,36.583634 L101.950724,38.0727843 C102.328914,38.5663791 102.480819,39.2042876 102.36139,39.8191895 C102.240914,40.432 101.865867,40.9663791 101.330533,41.2874248 L98.3479619,43.0631111 L98.6056762,43.1018039 L99.180819,43.1018039 C100.448438,43.1018039 101.501295,44.0513464 101.6312,45.3104314 L101.857486,47.5316078 L104.588629,46.9606275 L106.725771,44.5198431 C107.151105,44.0377516 107.753486,43.7658562 108.390438,43.7658562 C108.406152,43.7658562 108.423962,43.7658562 108.440724,43.766902 C109.100724,43.783634 109.711486,44.0858562 110.120057,44.5972288 L111.291295,46.0665098 C112.233105,47.2482092 112.295962,48.8795817 111.449486,50.1282092 L105.988248,58.196183 L105.577581,62.4429804 C105.566057,62.5580131 105.535676,62.6709542 105.486438,62.7744837 L104.198914,65.5373595 L103.280152,76.1914771 L105.095676,79.4489935 C105.204629,79.6435033 105.246533,79.8672941 105.215105,80.0879477 L103.701295,90.7818039 C103.669867,91.000366 103.568248,91.2032418 103.412152,91.3590588 L101.093771,93.6722614 C100.86539,93.9002353 100.826629,94.2495163 100.999486,94.5224575 L102.055486,96.1914771 C102.4232,96.7802353 102.590819,97.4767059 102.527962,98.1574902 L102.170724,102.094745 C102.109962,102.760889 101.848057,103.376837 101.412248,103.879843 L99.0739619,106.59566 C98.6077714,107.138405 97.992819,107.524288 97.2961524,107.713569 L92.7652,108.935007 C91.9292,109.160889 91.1822476,109.66285 90.6647238,110.347817 L86.8796762,115.341281 C86.7392952,115.528471 86.5371048,115.661281 86.3087238,115.716706 L82.9385333,116.54285 L80.0439619,122.500497 L80.2765333,124.350431 C80.2901524,124.465464 80.2849143,124.582588 80.2597714,124.694484 L79.4352952,128.455007 C79.2771048,129.181804 78.7711048,129.785203 78.0849143,130.071739 C77.8020571,130.188863 77.5034857,130.247425 77.2049143,130.247425 Z" id="Fill-82"></path>
            </g>
        </g>
    </g>
</svg>