<?xml version="1.0" encoding="UTF-8"?>
<svg width="160px" height="160px" viewBox="0 0 160 160" version="1.1" xmlns="http://www.w3.org/2000/svg" xmlns:xlink="http://www.w3.org/1999/xlink">
    <!-- Generator: Sketch 50.2 (55047) - http://www.bohemiancoding.com/sketch -->
    <title>Group 3</title>
    <desc>Created with Sketch.</desc>
    <defs>
        <polygon id="path-1" points="0.510545455 0.951688312 4.11781818 0.951688312 4.11781818 8.28238961 0.510545455 8.28238961"></polygon>
        <polygon id="path-3" points="0.555937987 0.343845053 7.84 0.343845053 7.84 6.10368396 0.555937987 6.10368396"></polygon>
    </defs>
    <g id="Page-1" stroke="none" stroke-width="1" fill="none" fill-rule="evenodd">
        <g id="honduras" transform="translate(-601.000000, -647.000000)">
            <g id="Group-3" transform="translate(601.000000, 647.000000)">
                <polygon id="Fill-1" fill="#FFFFFF" points="68.3046234 158.307532 66.1716364 157.955325 65.9815065 159.080519 71.5326753 160 71.7228052 158.873766 69.6012468 158.522597 70.5965714 152.622338 69.2989091 152.407273"></polygon>
                <g id="Group-82">
                    <path d="M58.7414026,156.412364 L56.4265974,155.661195 C56.2281558,155.596779 56.091013,155.306909 56.171013,155.060675 L56.4359481,154.255481 C56.571013,153.847169 56.7143896,153.764052 57.1465974,153.904312 L59.3315325,154.614961 L58.7414026,156.412364 Z M59.7003636,153.493922 L57.4572468,152.76561 C57.0832208,152.644052 57.0198442,152.481974 57.1611429,152.049766 L57.9060779,149.784831 L56.7143896,149.398338 L55.9195844,151.814961 C55.7471169,152.339636 55.8925714,152.721974 56.0536104,152.942234 C55.796987,153.053403 55.4364675,153.284052 55.2484156,153.857558 L55.0063377,154.593143 C54.7071169,155.502234 55.1902338,156.394701 56.1481558,156.70639 L59.5601039,157.814961 L61.7855584,151.045091 L60.6291948,150.670026 L59.7003636,153.493922 Z" id="Fill-2" fill="#FFFFFF"></path>
                    <path d="M49.6687792,146.652779 L47.9742338,145.810182 C47.0724156,145.36239 46.0937143,145.657455 45.6583896,146.511481 L43.1752727,151.383169 L44.3191688,151.952519 L46.8313766,147.025766 C46.9425455,146.806545 47.2241039,146.715117 47.4225455,146.81174 L49.1815065,147.686545 C49.380987,147.786286 49.4734545,148.063688 49.3612468,148.282909 L46.8500779,153.209662 L47.993974,153.776935 L50.4770909,148.906286 C50.9124156,148.053299 50.5705974,147.10161 49.6687792,146.652779" id="Fill-4" fill="#FFFFFF"></path>
                    <path d="M40.3338182,141.609143 L39.5296623,141.023169 C38.7151169,140.428883 37.7156364,140.582649 37.166026,141.352519 L34.6247273,144.913039 L33.8008312,144.311481 L33.166026,145.200831 L35.8953766,147.192519 L36.5301818,146.303169 L35.6273247,145.643429 L38.233039,141.993558 C38.3618701,141.812779 38.6278442,141.779532 38.8169351,141.917714 L39.7384935,142.589922 C39.9275844,142.727065 39.9795325,142.993039 39.8517403,143.173818 L39.4870649,143.682909 L40.4792727,144.407065 L40.7795325,143.987325 C41.3353766,143.208104 41.1473247,142.20239 40.3338182,141.609143" id="Fill-6" fill="#FFFFFF"></path>
                    <polygon id="Fill-8" fill="#FFFFFF" points="29.7138701 134.615481 30.4785455 135.327169 27.1278961 138.887688 26.3632208 138.176 25.5975065 138.991584 28.0255584 141.251325 28.7912727 140.436779 28.0359481 139.733403 31.3865974 136.172883 32.1419221 136.875221 32.9076364 136.061714 30.4795844 133.800935"></polygon>
                    <polygon id="Fill-10" fill="#FFFFFF" points="23.4014545 126.237818 22.5141818 126.958857 24.5183377 129.447169 19.8762597 133.222753 20.6783377 134.217039 26.2066494 129.722494"></polygon>
                    <polygon id="Fill-12" fill="#FFFFFF" points="17.603013 117.981922 16.6253506 118.573091 18.2513247 121.32426 13.1302857 124.419325 13.7796364 125.519584 19.8783377 121.832312"></polygon>
                    <path d="M12.7663377,112.650182 L9.13828571,114.164987 C8.91179221,114.259532 8.63958442,114.146286 8.55542857,113.94161 L7.68166234,111.804468 C7.59854545,111.598753 7.71283117,111.325506 7.93932468,111.229922 L11.5684156,109.716156 C11.7938701,109.620571 12.0660779,109.733818 12.1491948,109.939532 L13.022961,112.076675 C13.1071169,112.28239 12.9928312,112.555636 12.7663377,112.650182 M14.0442597,111.557195 L13.2359481,109.577974 C12.8556883,108.646026 11.929974,108.232519 11.0458182,108.60239 L7.53101299,110.069403 C6.64685714,110.438234 6.27906494,111.389922 6.66036364,112.323948 L7.46867532,114.30213 C7.84997403,115.235117 8.77464935,115.647584 9.65880519,115.277714 L13.1746494,113.810701 C14.0588052,113.44187 14.4265974,112.490182 14.0442597,111.557195" id="Fill-14" fill="#FFFFFF"></path>
                    <path d="M5.41444156,92.2575584 L3.48197403,92.534961 C3.35833766,92.5526234 3.27625974,92.6648312 3.29184416,92.7728831 L3.56405195,94.7198961 C3.5785974,94.830026 3.68872727,94.9131429 3.81236364,94.8944416 L5.74483117,94.617039 C5.86638961,94.6004156 5.93807792,94.4902857 5.92249351,94.3811948 L5.65028571,92.4341818 C5.6347013,92.3250909 5.536,92.2398961 5.41444156,92.2575584" id="Fill-16" fill="#FFFFFF"></path>
                    <polygon id="Fill-18" fill="#FFFFFF" points="7.22711688 76.2925714 4.25880519 75.9684156 4.58503896 73.1112727 7.55335065 73.4354286 7.69568831 72.1907532 0.612051948 71.4188052 0.469714286 72.6634805 3.41205195 72.9834805 3.08685714 75.8395844 0.143480519 75.5195844 0.000103896104 76.7642597 7.08374026 77.5362078"></polygon>
                    <path d="M3.07168831,63.2437403 L3.67428571,61.0141299 C3.73350649,60.8001039 3.98909091,60.6536104 4.22597403,60.716987 L8.0212987,61.7455584 C8.25818182,61.8089351 8.40571429,62.0655584 8.34753247,62.2785455 L7.7438961,64.5091948 C7.68571429,64.7221818 7.43012987,64.8686753 7.19324675,64.8052987 L3.39792208,63.7777662 C3.16103896,63.7133506 3.01350649,63.4567273 3.07168831,63.2437403 M3.1361039,64.9798442 L6.81298701,65.9741299 C7.7387013,66.2255584 8.60623377,65.6956883 8.86909091,64.7242597 L9.42805195,62.6598442 C9.69090909,61.6884156 9.20779221,60.7938701 8.28311688,60.5424416 L4.60623377,59.5471169 C3.68155844,59.2967273 2.81298701,59.8255584 2.55012987,60.798026 L1.99220779,62.8614026 C1.72831169,63.8338701 2.21142857,64.7294545 3.1361039,64.9798442" id="Fill-20" fill="#FFFFFF"></path>
                    <polygon id="Fill-22" fill="#FFFFFF" points="12.0550649 54.2522597 7.36519481 52.1566753 11.2238961 50.7592727 13.1979221 51.6403117 13.6997403 50.4922597 7.19376623 47.5862857 6.69090909 48.7343377 9.6187013 50.0413506 5.47012987 51.5270649 5.04727273 52.4943377 11.5532468 55.3992727"></polygon>
                    <path d="M11.8074805,40.9222857 L13.1789091,38.8391688 C13.3004675,38.6542338 13.5903377,38.593974 13.7970909,38.726961 L17.0978701,40.862026 C17.3046234,40.995013 17.3648831,41.2838442 17.2433247,41.4677403 L15.8718961,43.5508571 L11.8074805,40.9222857 Z M18.169039,42.140987 C18.7228052,41.2983896 18.5399481,40.302026 17.7357922,39.7815065 L14.5368312,37.7129351 C13.7326753,37.1924156 12.7394286,37.4292987 12.1856623,38.2698182 L10.1731948,41.3285195 L16.1565714,45.1986494 L18.169039,42.140987 Z" id="Fill-24" fill="#FFFFFF"></path>
                    <path d="M23.5587532,34.5556364 L24.8148571,33.1416104 C25.4839481,32.3862857 25.4496623,31.3701818 24.7348571,30.7301818 L20.6548571,27.0917403 L19.8081039,28.0475844 L23.9327792,31.7286234 C24.1166753,31.8917403 24.1332987,32.1878442 23.9868052,32.352 L22.6818701,33.8231688 C22.5353766,33.9883636 22.2392727,34.006026 22.0574545,33.8418701 L17.9317403,30.1618701 L17.0839481,31.1166753 L21.1618701,34.7561558 C21.8787532,35.3961558 22.8896623,35.3088831 23.5587532,34.5556364" id="Fill-26" fill="#FFFFFF"></path>
                    <path d="M27.0094545,22.0840519 L28.9034805,20.5578182 C29.0665974,20.4269091 29.3876364,20.4695065 29.5517922,20.670026 L30.089974,21.3245714 C30.3632208,21.656 30.3549091,21.8201558 30.0006234,22.1058701 L28.2115325,23.5458701 L27.0094545,22.0840519 Z M30.8494545,26.7531429 L28.9606234,24.457039 L30.7975065,22.9775584 C31.104,22.7313247 31.2754286,22.7656104 31.5652987,23.1167792 L33.0790649,24.9588571 L34.0546494,24.1723636 L32.4390649,22.2066494 C32.0878961,21.7806753 31.6847792,21.6954805 31.4104935,21.7110649 C31.4562078,21.4378182 31.4562078,21.0128831 31.0738701,20.5474286 L30.5814026,19.948987 C29.9736104,19.2092468 28.9543896,19.1313247 28.169974,19.763013 L25.3751688,22.0134026 L29.9019221,27.5167792 L30.8494545,26.7531429 Z" id="Fill-28" fill="#FFFFFF"></path>
                    <path d="M37.4082078,15.7457662 C37.4082078,15.7457662 37.8528831,14.0844675 37.857039,13.9681039 L39.6513247,14.4200519 C39.8539221,14.472 39.8965195,14.5187532 40.0274286,14.7400519 L40.5084675,15.5535584 L37.9910649,17.0423896 L37.510026,16.2288831 C37.3780779,16.0065455 37.3572987,15.9473247 37.4082078,15.7457662 Z M38.6196364,20.5395325 L39.6866494,19.9088831 L38.5427532,17.9732987 L41.0591169,16.4855065 L42.2040519,18.4200519 L43.2731429,17.7883636 L41.0632727,14.0564156 C40.8066494,13.6221299 40.5697662,13.3904416 40.0606753,13.2792727 L37.7811948,12.7566753 L36.8513247,13.3073247 L36.2113247,15.5545974 C36.0648312,16.0553766 36.1541818,16.3732987 36.4097662,16.8065455 L38.6196364,20.5395325 Z" id="Fill-30" fill="#FFFFFF"></path>
                    <path d="M46.5528312,10.6331429 C46.9154286,11.5339221 47.8556883,11.8663896 48.7897143,11.5235325 C49.6416623,11.2035325 50.8925714,10.4263896 51.1627013,11.0996364 L51.5055584,11.9536623 C51.5959481,12.1832727 51.4816623,12.4554805 51.276987,12.5385974 L49.3652987,13.3198961 C49.1616623,13.403013 48.8894545,13.2897662 48.798026,13.0601558 L48.6058182,12.5811948 L47.4681558,13.0456104 L47.6375065,13.4684675 C47.9949091,14.3588571 48.9382857,14.7287273 49.8702338,14.3484675 L51.622961,13.6326234 C52.5538701,13.2513247 52.9767273,12.3235325 52.6193247,11.4331429 L52.3221818,10.6923636 C51.9606234,9.79054545 51.0037403,9.45184416 50.0842597,9.80093506 C49.2385455,10.1344416 47.9886753,10.9115844 47.7185455,10.2372987 L47.3704935,9.37080519 C47.2790649,9.14327273 47.3943896,8.87002597 47.5990649,8.78690909 L49.3736104,8.06067532 C49.5782857,7.97651948 49.8494545,8.09288312 49.9408831,8.32041558 L50.1372468,8.81080519 L51.2749091,8.34638961 L51.1014026,7.9121039 C50.744,7.02275325 49.8016623,6.65184416 48.8686753,7.03314286 L47.2541299,7.69288312 C46.3201039,8.07418182 45.8982857,9.00405195 46.2556883,9.89236364 L46.5528312,10.6331429 Z" id="Fill-32" fill="#FFFFFF"></path>
                    <path d="M66.7842078,6.51885714 L68.7301818,6.24664935 C68.8403117,6.2321039 68.9265455,6.13236364 68.9099221,6.01080519 L68.6522597,4.07418182 C68.6356364,3.95158442 68.5265455,3.86950649 68.4164156,3.88509091 L66.4704416,4.1572987 C66.3613506,4.17184416 66.2761558,4.28301299 66.2917403,4.40561039 L66.5494026,6.34119481 C66.566026,6.46275325 66.6751169,6.53444156 66.7842078,6.51885714" id="Fill-34" fill="#FFFFFF"></path>
                    <g id="Group-38" transform="translate(83.116883, 0.000000)">
                        <mask id="mask-2" fill="white">
                            <use xlink:href="#path-1"></use>
                        </mask>
                        <g id="Clip-37"></g>
                        <polygon id="Fill-36" fill="#FFFFFF" mask="url(#mask-2)" points="4.11781818 7.1945974 2.97080519 7.06368831 3.60872727 1.06576623 2.62067532 0.951480519 0.92612987 2.35303896 1.60664935 3.16031169 2.19366234 2.74576623 1.75002597 6.92342857 0.626909091 6.79563636 0.510545455 7.88342857 4.00249351 8.28238961"></polygon>
                    </g>
                    <path d="M94.5287273,9.36581818 L96.3302857,9.80633766 C97.310026,10.0442597 98.1962597,9.5414026 98.4310649,8.61049351 L98.7728831,7.25361039 C99.0076883,6.32374026 98.4445714,5.33880519 97.3754805,5.10296104 L95.3588571,4.66244156 L95.7037922,3.49464935 L99.1406753,4.33309091 L99.4201558,3.22555844 L94.8362597,2.1065974 L93.8856104,5.47906494 L97.2632727,6.25205195 C97.5147013,6.31335065 97.6757403,6.57932468 97.5853506,6.93880519 L97.2217143,8.37984416 C97.1624935,8.61776623 96.9079481,8.77153247 96.6928831,8.71854545 L94.723013,8.23750649 C94.508987,8.18555844 94.3572987,7.93309091 94.4175584,7.69516883 L94.5547013,7.1465974 L93.361974,6.85568831 L93.2393766,7.344 C93.0045714,8.27387013 93.550026,9.1278961 94.5287273,9.36581818" id="Fill-39" fill="#FFFFFF"></path>
                    <path d="M105.154701,12.425974 C105.222234,12.452987 105.286649,12.427013 105.313662,12.3584416 L105.776,11.1927273 C105.803013,11.1241558 105.776,11.0607792 105.707429,11.0327273 L104.546909,10.5579221 C104.479377,10.5309091 104.414961,10.5568831 104.387948,10.6264935 L103.92561,11.7911688 C103.898597,11.8597403 103.92561,11.9241558 103.994182,11.9522078 L105.154701,12.425974 Z" id="Fill-41" fill="#FFFFFF"></path>
                    <path d="M114.235013,11.8384416 C114.041766,11.7303896 113.960727,11.4467532 114.073974,11.2431169 L114.539429,10.4046753 C114.658909,10.1906494 114.942545,10.1096104 115.135792,10.2166234 L116.862545,11.1828571 C117.054753,11.2909091 117.135792,11.5755844 117.017351,11.7896104 L116.336831,13.0145455 L114.235013,11.8384416 Z M116.842805,14.6342857 L117.421506,13.5922078 L118.060468,12.4431169 C118.531117,11.5953247 118.221506,10.6342857 117.342545,10.1418182 L115.765403,9.26181818 C114.885403,8.76935065 113.902545,9.02181818 113.437091,9.85922078 L113.037091,10.5792208 C112.572675,11.4166234 112.868779,12.3994805 113.748779,12.8909091 L115.775792,14.0244156 L115.716571,14.1314286 C115.257351,14.9584416 114.190338,15.2348052 113.374753,14.7787013 L112.559169,14.3236364 L112.005403,15.3231169 L112.852156,15.7958442 C114.246442,16.5750649 115.989818,16.1698701 116.842805,14.6342857 Z" id="Fill-43" fill="#FFFFFF"></path>
                    <polygon id="Fill-45" fill="#FFFFFF" points="123.905247 21.4509091 122.988883 20.7464935 126.621091 15.9319481 125.831481 15.3262338 123.657974 15.6576623 123.826286 16.6997403 124.543169 16.6457143 122.013299 20.0005195 121.115636 19.3116883 120.456935 20.1844156 123.246545 22.3236364"></polygon>
                    <polygon id="Fill-47" fill="#FFFFFF" points="131.069922 27.5578182 130.243948 26.7505455 134.461091 22.4367792 133.749403 21.7417143 131.542649 21.801974 131.580052 22.8523636 132.30213 22.8876883 129.363948 25.8913247 128.555636 25.1027532 127.790961 25.8840519 130.305247 28.3391169"></polygon>
                    <path d="M137.579636,32.7992727 C138.133403,32.3701818 139.091325,32.5904416 139.757299,32.710961 C140.612364,32.8574545 141.594182,33.0288831 142.302753,32.4782338 C142.527169,32.3047273 142.971844,31.8351169 142.971844,31.8351169 L139.899636,27.8288831 L138.996779,28.5291429 L141.30639,31.5410909 C140.626909,32.0688831 138.268468,30.6486234 136.773403,31.8070649 L135.015481,33.1701818 L135.793662,34.1842078 L137.579636,32.7992727 Z" id="Fill-49" fill="#FFFFFF"></path>
                    <path d="M147.703896,36.9978182 L148.315844,36.6331429 C148.358442,36.6082078 148.425974,36.6258701 148.457143,36.6778182 L148.813506,37.2814545 C148.844675,37.3344416 148.828052,37.401974 148.785455,37.4269091 L148.173506,37.7915844 C148.119481,37.8237922 148.063377,37.7988571 148.032208,37.7469091 L147.675844,37.1443117 C147.644675,37.0913247 147.650909,37.030026 147.703896,36.9978182 Z M147.468052,38.097039 C147.681039,38.4554805 148.14026,38.5822338 148.49974,38.3682078 L149.122078,37.9983377 C149.481558,37.7832727 149.602078,37.3115844 149.39013,36.9521039 L149.021299,36.3276883 C148.808312,35.9692468 148.343896,35.8591169 147.985455,36.0721039 L147.362078,36.4440519 C147.003636,36.657039 146.887273,37.1131429 147.099221,37.4726234 L147.468052,38.097039 Z" id="Fill-51" fill="#FFFFFF"></path>
                    <polygon id="Fill-53" fill="#FFFFFF" points="149.664623 46.1383896 148.081247 49.9378701 146.098909 50.8012468 146.600727 51.9503377 153.133714 49.1035844 152.630857 47.9544935 149.691636 49.2355325 151.410078 45.1638442 150.986182 44.1944935 144.453195 47.0412468 144.956052 48.1903377"></polygon>
                    <path d="M154.030026,67.5365195 L155.958338,67.2248312 C156.080935,67.2061299 156.160935,67.0928831 156.142234,66.9837922 L155.821195,65.0450909 C155.803532,64.936 155.691325,64.8539221 155.568727,64.8736623 L153.640416,65.1843117 C153.519896,65.2040519 153.450286,65.3152208 153.467948,65.4253506 L153.790026,67.363013 C153.807688,67.4721039 153.909506,67.5562597 154.030026,67.5365195" id="Fill-55" fill="#FFFFFF"></path>
                    <g id="Group-59" transform="translate(151.688312, 82.077922)">
                        <mask id="mask-4" fill="white">
                            <use xlink:href="#path-3"></use>
                        </mask>
                        <g id="Clip-58"></g>
                        <path d="M6.51532468,4.4907013 C6.49558442,4.71096104 6.26909091,4.90109091 6.0238961,4.87719481 L5.07012987,4.78992208 C4.82493506,4.7681039 4.67012987,4.58109091 4.68051948,4.44706494 L4.88935065,2.1094026 C4.90077922,1.97433766 5.08675325,1.81849351 5.33194805,1.84031169 L6.28571429,1.92758442 C6.53090909,1.95148052 6.72103896,2.17797403 6.7012987,2.39823377 L6.51532468,4.4907013 Z M3.50649351,4.33901299 C3.49506494,4.47303896 3.30909091,4.62888312 3.06493506,4.60602597 L2.11012987,4.51771429 C1.86493506,4.4958961 1.67584416,4.26836364 1.69454545,4.0481039 L1.88051948,1.95667532 C1.9012987,1.73641558 2.12675325,1.54628571 2.37194805,1.5681039 L3.32675325,1.65641558 C3.57090909,1.67927273 3.72571429,1.86628571 3.71428571,2.00135065 L3.50649351,4.33901299 Z M6.33454545,0.699532468 L5.51376623,0.623688312 C5.08675325,0.585246753 4.70337662,0.72238961 4.4,0.953038961 C4.1412987,0.670441558 3.78909091,0.465766234 3.36103896,0.426285714 L2.5412987,0.351480519 C1.58649351,0.264207792 0.823896104,0.933298701 0.735584416,1.93693506 L0.564155844,3.85901299 C0.475844156,4.86161039 1.10753247,5.66057143 2.06233766,5.74784416 L2.88207792,5.82264935 C3.31012987,5.86212987 3.69246753,5.72394805 3.99584416,5.50680519 C4.25454545,5.7758961 4.60779221,5.98264935 5.03480519,6.02109091 L5.85558442,6.0958961 C6.80935065,6.18420779 7.57194805,5.51303896 7.6612987,4.51044156 L7.83168831,2.58836364 C7.92103896,1.58472727 7.28831169,0.787844156 6.33454545,0.699532468 Z" id="Fill-57" fill="#FFFFFF" mask="url(#mask-4)"></path>
                    </g>
                    <path d="M154.140156,97.8905974 C154.078857,98.142026 153.811844,98.302026 153.453403,98.2126753 L152.011325,97.8511169 C151.773403,97.7918961 151.620675,97.5373506 151.672623,97.3233247 L152.153662,95.3544935 C152.206649,95.1394286 152.458078,94.9867013 152.696,95.046961 L153.244571,95.1841039 L153.535481,93.9903377 L153.047169,93.8677403 C152.118338,93.633974 151.263273,94.1804675 151.024312,95.1602078 L150.584831,96.9617662 C150.34587,97.9404675 150.850805,98.8267013 151.780675,99.0604675 L153.138597,99.4002078 C154.068468,99.633974 155.053403,99.0708571 155.288208,98.0007273 L155.729766,95.9841039 L156.897558,96.328 L156.060156,99.7659221 L157.167688,100.043325 L158.28561,95.4604675 L154.913143,94.5129351 L154.140156,97.8905974 Z" id="Fill-60" fill="#FFFFFF"></path>
                    <path d="M148.449662,104.628675 L147.975896,105.787117 C147.947844,105.856727 147.974857,105.919065 148.043429,105.947117 L149.208104,106.407377 C149.277714,106.43439 149.341091,106.407377 149.369143,106.338805 L149.842909,105.179325 C149.870961,105.110753 149.843948,105.047377 149.775377,105.020364 L148.610701,104.560104 C148.541091,104.532052 148.477714,104.560104 148.449662,104.628675" id="Fill-62" fill="#FFFFFF"></path>
                    <path d="M150.196364,115.769039 L149.231169,117.495792 C149.124156,117.689039 148.838442,117.770078 148.623377,117.650597 L147.399481,116.972156 L148.573506,114.870338 C148.681558,114.677091 148.966234,114.595013 149.170909,114.70826 L150.008312,115.172675 C150.223377,115.292156 150.304416,115.575792 150.196364,115.769039 M150.554805,114.070338 L149.833766,113.670338 C148.996364,113.206961 148.013506,113.505143 147.522078,114.384104 L146.388571,116.411117 L146.280519,116.352935 C145.453506,115.893714 145.177143,114.82774 145.632208,114.012156 L146.088312,113.196571 L145.088831,112.642805 L144.615065,113.490597 C143.835844,114.884883 144.242078,116.626182 145.778701,117.47813 L146.820779,118.055792 L147.970909,118.692675 C148.81974,119.163325 149.781818,118.853714 150.272208,117.973714 L151.154286,116.396571 C151.646753,115.518649 151.392208,114.535792 150.554805,114.070338" id="Fill-64" fill="#FFFFFF"></path>
                    <path d="M140.943065,126.217558 C140.786182,126.422234 140.476571,126.461714 140.184623,126.23626 L139.008519,125.327169 C138.813195,125.176519 138.775792,124.883532 138.910857,124.707948 L140.143065,123.098597 C140.27813,122.924052 140.571117,122.88561 140.765403,123.035221 L141.212156,123.381195 L141.959169,122.406649 L141.561247,122.098078 C140.801766,121.512104 139.800208,121.667948 139.18826,122.468987 L138.058909,123.941195 C137.445922,124.740156 137.550857,125.753143 138.310338,126.339117 L139.416831,127.19626 C140.175273,127.783273 141.305662,127.662753 141.950857,126.779636 L143.168519,125.112104 L144.100468,125.893403 L141.94774,128.701714 L142.851636,129.400935 L145.722286,125.657558 L143.011636,123.437299 L140.943065,126.217558 Z" id="Fill-66" fill="#FFFFFF"></path>
                    <path d="M136.720727,133.433455 L135.820987,134.270857 L136.27813,134.752935 C136.446442,134.929558 136.43813,135.224623 136.276052,135.375273 L134.837091,136.714494 C134.675013,136.865143 134.378909,136.855792 134.209558,136.67813 L133.549818,135.983065 C133.380468,135.804364 133.38774,135.562286 133.487481,135.469818 L134.90774,134.147221 L134.096312,133.292156 L132.675013,134.614753 C132.576312,134.707221 132.332156,134.699948 132.162805,134.521247 L131.503065,133.826182 C131.333714,133.647481 131.343065,133.353455 131.504104,133.202805 L132.944104,131.863584 C133.106182,131.712935 133.402286,131.722286 133.571636,131.899948 L133.960208,132.310338 L134.859948,131.472935 L134.512935,131.10826 C133.853195,130.413195 132.831896,130.406961 132.094234,131.092675 L130.782026,132.315532 C130.044364,133.002286 129.986182,134.013195 130.645922,134.70826 L131.213195,135.304623 C131.50826,135.617351 131.888519,135.765922 132.271896,135.796052 C132.27813,136.176312 132.405922,136.561766 132.700987,136.873455 L133.26826,137.470857 C133.928,138.165922 134.949299,138.171117 135.686961,137.483325 L137.000208,136.261506 C137.736831,135.575792 137.795013,134.565922 137.135273,133.870857 L136.720727,133.433455 Z" id="Fill-68" fill="#FFFFFF"></path>
                    <path d="M125.495688,143.644468 L124.184519,141.757714 L125.881143,140.580571 L126.022442,140.783169 L125.495688,143.644468 Z M123.526857,140.808104 L122.497247,139.324468 L121.467636,140.038234 L122.496208,141.52187 L121.810494,141.998753 L122.468156,142.946286 L123.155948,142.470442 L125.529974,145.892779 L126.397506,145.291221 L127.276468,140.436156 L126.232312,138.932779 L123.526857,140.808104 Z" id="Fill-70" fill="#FFFFFF"></path>
                    <path d="M119.761039,151.505662 L119.141818,151.831896 C119.087792,151.860987 119.021299,151.840208 118.998442,151.796571 L118.668052,151.165922 C118.64,151.110857 118.667013,151.054753 118.721039,151.026701 L119.341299,150.700468 C119.395325,150.671377 119.455584,150.680727 119.483636,150.735792 L119.814026,151.366442 C119.836883,151.410078 119.816104,151.47761 119.761039,151.505662 Z M120.054026,150.420987 C119.860779,150.051117 119.414026,149.910857 119.045195,150.105143 L118.403117,150.444883 C118.034286,150.639169 117.883636,151.094234 118.076883,151.464104 L118.412468,152.106182 C118.605714,152.47813 119.069091,152.621506 119.437922,152.427221 L120.08,152.088519 C120.448831,151.893195 120.582857,151.433974 120.388571,151.063065 L120.054026,150.420987 Z" id="Fill-72" fill="#FFFFFF"></path>
                    <path d="M109.700156,148.313766 L108.519896,147.44 L107.465351,147.811948 L107.158857,149.235325 L105.993143,148.33039 L104.950026,148.697143 L104.589506,150.113247 C104.487688,150.553766 104.432623,150.937143 104.609247,151.423377 L106.204052,155.810909 L107.396779,155.391169 L105.797818,150.991169 C105.64613,150.576623 105.832104,150.08 105.907948,149.676883 L106.68613,150.235844 C106.868987,150.38026 106.950026,150.457143 107.003013,150.604675 L107.952623,153.216623 L109.111065,152.807273 L108.162494,150.196364 C108.028468,149.828571 108.377558,149.16987 108.358857,148.761558 C108.693403,149.033766 109.192104,149.327792 109.343792,149.742338 L110.942753,154.141299 L112.136519,153.721558 L110.541714,149.334026 C110.365091,148.847792 110.073143,148.587013 109.700156,148.313766" id="Fill-74" fill="#FFFFFF"></path>
                    <path d="M89.8371948,154.997922 L87.8829091,155.221299 C87.7748571,155.233766 87.6865455,155.329351 87.7010909,155.451948 L87.9358961,157.390649 C87.9514805,157.513247 88.0605714,157.599481 88.1707013,157.587013 L90.1229091,157.363636 C90.233039,157.351169 90.3192727,157.242078 90.3036883,157.119481 L90.0699221,155.180779 C90.0543377,155.059221 89.9462857,154.984416 89.8371948,154.997922" id="Fill-76" fill="#FFFFFF"></path>
                    <path d="M79.8321039,144.045299 C44.814961,144.045299 16.3266494,115.556987 16.3266494,80.5398442 C16.3266494,45.5227013 44.814961,17.0343896 79.8321039,17.0343896 C114.849247,17.0343896 143.337558,45.5227013 143.337558,80.5398442 C143.337558,115.556987 114.849247,144.045299 79.8321039,144.045299 M145.363532,80.5398442 C145.363532,44.4058182 115.96613,15.0094545 79.8321039,15.0094545 C43.6980779,15.0094545 14.3006753,44.4058182 14.3006753,80.5398442 C14.3006753,116.67387 43.6980779,146.070234 79.8321039,146.070234 C115.96613,146.070234 145.363532,116.67387 145.363532,80.5398442" id="Fill-78" fill="#FFFFFF"></path>
                    <path d="M123.778909,71.7248831 C123.666701,71.7072208 123.552416,71.7082597 123.440208,71.729039 L121.413195,72.0957922 C121.189818,72.1363117 120.986182,72.2505974 120.835532,72.4199481 L119.564883,73.8516364 L118.487481,73.8516364 C118.384623,73.8516364 118.282805,73.8672208 118.185143,73.8973506 L108.910338,76.7908571 C108.770078,76.8344935 108.640208,76.9082597 108.531117,77.008 L107.710338,77.753974 C107.560727,77.889039 107.349818,77.9378701 107.156571,77.8796883 L104.875013,77.1981299 L103.05787,75.1804675 C102.55813,74.6235844 101.691636,74.5705974 101.127481,75.0589091 C101.080727,75.0983896 101.03813,75.142026 101.000727,75.1898182 L92.3056623,85.9628052 L88.6131948,88.1976104 C88.3160519,88.3773506 88.1321558,88.6963117 88.1248831,89.0433247 L88.1124156,89.6376104 L84.209039,87.0734545 C83.7851429,86.795013 83.220987,86.8729351 82.8885195,87.2542338 L80.1841039,90.3607273 C79.9867013,90.5872208 79.700987,90.7170909 79.3996883,90.7170909 L74.8604675,90.7170909 C74.1934545,90.7170909 73.5617662,91.0370909 73.1721558,91.5700779 C72.7752727,92.1030649 72.6557922,92.8022857 72.8521558,93.4402078 L73.2802078,94.8126753 L74.3804675,97.4973506 L73.8744935,98.235013 L73.726961,98.235013 C72.1467013,98.235013 70.8085195,99.3654026 70.5456623,100.921766 L70.4251429,101.632416 L70.1300779,101.968 C69.8215065,102.319169 69.3747532,102.520727 68.9051429,102.520727 L66.848,102.520727 L62.395013,98.2412468 L62.2028052,97.6105974 C61.833974,96.4126753 61.0381299,95.4028052 59.9617662,94.769039 L59.8641039,94.7108571 L60.7700779,91.8672208 C61.0267013,91.062026 60.7451429,90.182026 60.0687792,89.673974 L59.3435844,89.1316364 C58.926961,88.8199481 58.3918961,88.6817662 57.8807273,88.7586494 L56.075013,89.0412468 L55.4204675,88.1165714 C55.0381299,87.5763117 54.3752727,87.3196883 53.7321558,87.4651429 L52.5446234,87.7342338 C52.1061818,87.8298182 51.7041039,88.0500779 51.3799481,88.3731948 L50.6547532,89.0994286 C50.4947532,89.2594286 50.2724156,89.3518961 50.046961,89.3518961 L49.3259221,89.3518961 L49.3259221,88.6183896 C49.3259221,88.2402078 49.113974,87.8931948 48.7783896,87.7186494 L42.2682597,84.3534545 L39.8277403,81.7477403 C39.4537143,81.3498182 38.8272208,81.3196883 38.4157922,81.6833247 C38.2817662,81.8028052 38.0885195,81.8204675 37.9357922,81.7311169 L36.8604675,81.0952727 L37.6105974,80.2443636 C37.6438442,80.206961 37.6916364,80.1861818 37.7425455,80.1861818 L37.9991688,80.1861818 C39.0360519,80.1861818 39.8796883,79.3425455 39.8796883,78.3056623 L39.8796883,77.2251429 C39.8796883,76.6557922 39.6646234,76.1155325 39.275013,75.7030649 L38.7046234,75.0994286 L40.1072208,72.6672208 L52.3077403,63.5170909 C53.2822857,63.7674805 54.3212468,63.542026 55.1108571,62.9103377 L57.9721558,60.6142338 C58.0085195,60.5841039 58.0552727,60.5685195 58.1030649,60.5685195 L60.3825455,60.5685195 C60.4324156,60.5685195 60.4781299,60.5841039 60.5134545,60.6152727 L61.406961,61.3570909 C62.3254026,62.1217662 63.6230649,62.2931948 64.7098182,61.7934545 L65.2105974,61.5648831 L70.0926753,62.873974 C70.1778701,62.8978701 70.2661818,62.9092987 70.3555325,62.9092987 L78.9082597,62.9092987 C79.0713766,62.9092987 79.2313766,62.8708571 79.3747532,62.795013 L83.0318961,60.8989091 L85.6303377,60.4521558 C86.4074805,60.3160519 87.0256623,59.7789091 87.2864416,59.0755325 L91.8007273,60.4189091 C91.8942338,60.446961 91.9908571,60.4604675 92.0895584,60.4604675 L97.0983896,60.4604675 C97.2292987,60.4604675 97.3591688,60.4355325 97.4807273,60.3867013 L99.729039,59.4703377 L105.986701,61.4267013 C106.064623,61.4505974 106.144623,61.4661818 106.225662,61.4713766 L109.66774,61.6833247 L112.044883,63.8672208 C111.768519,64.048 111.58774,64.3596883 111.58774,64.713974 L111.58774,66.6329351 C111.59813,67.300987 111.973195,67.915013 112.564364,68.235013 L116.582026,70.4033247 C117.411117,70.8521558 118.432416,70.7264416 119.123325,70.0926753 L120.002286,69.2926753 C120.088519,69.2137143 120.210078,69.1918961 120.31813,69.2303377 L122.542545,70.0531948 C122.615273,70.0802078 122.675532,70.1321558 122.710857,70.1986494 C122.729558,70.233974 122.751377,70.2682597 122.774234,70.3004675 L123.778909,71.7248831 Z M126.49787,72.0687792 L124.459429,69.1752727 C124.189299,68.7087792 123.763325,68.3482597 123.251117,68.155013 L121.019429,67.3300779 C120.201766,67.0277403 119.292675,67.2022857 118.642286,67.7913766 L117.756052,68.5965714 C117.699948,68.6474805 117.615792,68.6599481 117.545143,68.6204675 L113.613714,66.4989091 L113.613714,65.726961 L114.462545,65.726961 C114.880208,65.726961 115.254234,65.4703377 115.405922,65.0817662 C115.55761,64.6921558 115.454753,64.2505974 115.147221,63.968 L110.774234,59.9482597 C110.603844,59.7913766 110.383584,59.6978701 110.151896,59.6822857 L106.473974,59.4557922 L99.9867013,57.4277403 C99.7612468,57.3591688 99.5191688,57.3674805 99.302026,57.4568312 L96.8999481,58.4355325 L92.2370909,58.4355325 L86.6973506,56.7867013 C86.3908571,56.6952727 86.0594286,56.7555325 85.8028052,56.9456623 C85.5461818,57.1368312 85.3955325,57.4381299 85.3955325,57.7581299 L85.3955325,58.3222857 C85.3955325,58.3887792 85.3456623,58.4459221 85.2822857,58.4563117 L82.5342338,58.929039 C82.4313766,58.9456623 82.3316364,58.9789091 82.2391688,59.0277403 L78.662026,60.8833247 L70.4885195,60.8833247 L65.3830649,59.5129351 C65.1544935,59.4505974 64.9124156,59.4703377 64.6983896,59.5711169 L63.8661818,59.9524156 C63.4796883,60.128 63.0256623,60.0677403 62.7025455,59.7986494 L61.808,59.0557922 C61.408,58.7243636 60.902026,58.5425455 60.3825455,58.5425455 L58.1030649,58.5425455 C57.5981299,58.5425455 57.1025455,58.7160519 56.7056623,59.0318961 L53.8443636,61.328 C53.5430649,61.5700779 53.1441039,61.6531948 52.7700779,61.5430649 L52.3752727,61.4318961 C52.073974,61.3487792 51.7446234,61.406961 51.4921558,61.5960519 L38.7264416,71.1711169 C38.6163117,71.2531948 38.5248831,71.3570909 38.4563117,71.4755325 L36.8708571,74.2235844 C36.4687792,74.9238442 36.5705974,75.7892987 37.1243636,76.3763117 L37.8017662,77.0942338 C37.835013,77.1285195 37.8526753,77.1752727 37.8526753,77.2251429 L37.8526753,78.1602078 L37.7425455,78.1602078 C37.1108571,78.1602078 36.5092987,78.4313766 36.0916364,78.9041039 L34.5311169,80.6734545 C34.3316364,80.8999481 34.2433247,81.2033247 34.2911169,81.5015065 C34.3378701,81.7996883 34.5155325,82.0615065 34.7752727,82.2152727 L36.9061818,83.4755325 C37.5181299,83.835013 38.235013,83.9067013 38.8802078,83.6999481 L40.9092987,85.8661818 C40.9882597,85.9503377 41.0807273,86.020987 41.1835844,86.073974 L47.2999481,89.2355325 L47.2999481,89.7664416 C47.2999481,90.6547532 48.020987,91.3768312 48.9082597,91.3768312 L50.046961,91.3768312 C50.8064416,91.3768312 51.5503377,91.0692987 52.0885195,90.5311169 L52.8105974,89.806961 C52.8583896,89.7591688 52.9176104,89.7259221 52.9841039,89.7113766 L53.9181299,89.5004675 L54.422026,90.2121558 C54.8531948,90.820987 55.5783896,91.1399481 56.3170909,91.0277403 L58.129039,90.7524156 L58.8396883,91.2511169 L57.6885195,94.8656623 C57.5451429,95.3165714 57.7321558,95.8059221 58.1394286,96.0459221 L58.9331948,96.5134545 C59.5731948,96.8916364 60.046961,97.4921558 60.2651429,98.2028052 L60.5342338,99.0848831 C60.5841039,99.2500779 60.6765714,99.4007273 60.8012468,99.5202078 L65.7383896,104.263065 C65.9274805,104.444883 66.1789091,104.545662 66.4407273,104.545662 L68.9051429,104.545662 C69.9576104,104.545662 70.9581299,104.093714 71.6511169,103.307221 L72.1363117,102.755532 C72.260987,102.613195 72.3441039,102.440727 72.3752727,102.255792 L72.5435844,101.259429 C72.6412468,100.680727 73.1389091,100.259948 73.726961,100.259948 L74.4074805,100.259948 C74.742026,100.259948 75.0547532,100.095792 75.2438442,99.8204675 L76.1352727,98.5207273 C76.4708571,98.0334545 76.5363117,97.4152727 76.3118961,96.8667013 L75.1856623,94.128 L74.7877403,92.8417662 L73.8204675,93.140987 L74.8604675,92.742026 L79.3996883,92.742026 C80.288,92.742026 81.1316364,92.3586494 81.7124156,91.6905974 L83.8360519,89.2521558 L87.435013,91.6168312 C87.9576104,91.9835844 88.633974,92.0272208 89.1929351,91.7352727 C89.7518961,91.4485195 90.1092987,90.8802078 90.1248831,90.2474805 L90.1383896,89.6428052 L93.5067013,87.6033247 C93.6074805,87.5430649 93.6968312,87.4641039 93.7705974,87.3737143 L102.061506,77.1015065 L103.560727,78.7638442 C103.684364,78.902026 103.844364,79.0038442 104.022026,79.0578701 L106.576831,79.8215065 C107.445403,80.0802078 108.401247,79.862026 109.072416,79.2531948 L109.728,78.6578701 L118.641247,75.8765714 L120.019948,75.8765714 C120.309818,75.8765714 120.585143,75.7529351 120.777351,75.5368312 L122.118649,74.0272208 L123.632416,73.7529351 L125.319688,74.0189091 C125.820468,74.0978701 126.309818,73.8557922 126.570597,73.4111169 C126.827221,72.9633247 126.77839,72.3981299 126.49787,72.0687792 Z" id="Fill-80" fill="#FFFFFF"></path>
                </g>
            </g>
        </g>
    </g>
</svg>