<?xml version="1.0" encoding="UTF-8"?>
<svg width="162px" height="160px" viewBox="0 0 162 160" version="1.1" xmlns="http://www.w3.org/2000/svg" xmlns:xlink="http://www.w3.org/1999/xlink">
    <!-- Generator: Sketch 50.2 (55047) - http://www.bohemiancoding.com/sketch -->
    <title>Group 3</title>
    <desc>Created with Sketch.</desc>
    <defs></defs>
    <g id="Page-1" stroke="none" stroke-width="1" fill="none" fill-rule="evenodd">
        <g id="borneo" transform="translate(-600.000000, -643.000000)" fill="#FFFFFF">
            <g id="Group-3" transform="translate(600.000000, 643.000000)">
                <path d="M124.768683,68.2675773 L122.238,67.7773951 C122.055362,67.742757 121.88532,67.6577361 121.747817,67.5328289 L120.288817,66.2165795 L114.382489,65.216272 C113.85347,65.1270525 113.411571,64.7775222 113.201643,64.2799925 C112.992765,63.779314 113.053644,63.2188059 113.360139,62.7769071 L113.662436,62.3434056 L112.961276,62.8262403 C112.663178,63.0309202 112.318896,63.1369339 111.964117,63.1369339 L110.964859,63.1369339 C110.514563,63.1369339 110.092608,62.9154597 109.836495,62.5428373 C109.579333,62.1649667 109.527901,61.6873802 109.696893,61.2654246 L111.05093,57.8855818 C111.132802,57.6819515 111.040433,57.4520802 110.841002,57.3618111 L109.301179,56.6690483 C108.228446,56.1872632 107.443315,55.2572816 107.146266,54.1184215 L106.749502,52.5859462 L104.066621,52.1482461 L103.599531,53.7919833 C103.559644,53.9315855 103.491418,54.0606913 103.398,54.1709036 L96.4504284,62.4273768 L97.6417705,64.690402 C97.7666777,64.9265712 97.7929188,65.2036763 97.716295,65.4608383 L97.2628502,66.9723208 C97.1085531,67.488744 96.5805838,67.8015369 96.0515649,67.6745304 L94.555827,67.3270993 C94.3742392,67.284064 94.2073463,67.1937949 94.074042,67.0646891 L92.674871,65.7022556 L92.9215366,68.3515486 C93.3172511,70.7688709 92.6276372,71.2517056 92.368376,71.4332935 C92.2739083,71.4983712 92.1699939,71.5487539 92.058732,71.5791935 L90.0602162,72.1418009 C89.5353959,72.4210053 88.898264,72.4052607 88.3818408,72.0882692 C88.0952889,71.9119296 87.6764823,71.5109669 87.4529089,71.2873934 L83.509409,67.649339 L83.0591132,69.2258992 C83.0234254,69.3487072 82.9656951,69.4652173 82.8880217,69.5659828 L78.1887806,75.7126783 C78.1614899,75.7483661 78.1310504,75.7830043 78.0995611,75.8144935 L73.7372547,80.1778496 L68.239237,86.1618509 C68.104883,86.3077509 67.9316923,86.4106157 67.7385584,86.4599488 L55.8062437,89.5070556 C55.6676911,89.543793 55.5448832,89.6382607 55.4735076,89.7673665 C55.405281,89.894373 55.3916356,90.0476205 55.4378198,90.1872227 L55.995179,91.8655981 C56.0424128,92.0104485 56.0581574,92.163696 56.0392639,92.3148443 L55.8188394,94.0782405 C55.7338185,94.7468616 55.2383881,95.294774 54.5855116,95.4469719 L53.2367234,95.7608145 C53.0876744,95.7965023 52.9659161,95.9067145 52.9176327,96.0515649 L51.5279085,100.220738 C51.438689,100.489446 51.2424062,100.70882 50.9852442,100.82743 C50.7280823,100.946039 50.4331333,100.952337 50.1707231,100.845274 L38.7611294,96.1943161 L38.7611294,98.6389291 L44.0849067,103.822055 C45.0159379,104.727894 46.4056622,104.913681 47.5413733,104.285996 L48.8922608,103.538652 C49.0738486,103.437886 49.2806279,103.3959 49.4874071,103.414794 L57.4520802,104.196776 L59.3634758,103.095703 L60.4687474,100.858919 C60.980972,99.825023 62.0127688,99.1847422 63.1631749,99.1847422 L67.2620216,99.1847422 C67.8634657,99.1847422 68.4208248,99.4565992 68.7902984,99.9289375 C68.9550919,100.138866 69.071602,100.376084 69.1377294,100.625899 L73.4076675,102.246544 C73.5010855,102.281182 73.6060496,102.266487 73.6858223,102.206658 L74.8950083,101.306066 C75.0723976,101.174861 75.2865242,101.103485 75.5069488,101.103485 L81.6998285,101.103485 L87.0855346,92.1154126 L86.5523172,91.5108196 C86.3150984,91.2431612 86.2353257,90.8694891 86.3413394,90.5283559 L87.043549,88.2726782 C87.3752354,87.2104419 88.3786919,86.4966862 89.4577225,86.5187287 L89.9164154,86.5239769 L91.2148209,83.0423189 L90.9755028,79.6225897 C90.9125244,78.6978563 91.2043245,77.7983143 91.7963218,77.0908565 L92.7966293,75.8932165 C93.8809081,74.5937614 95.5330425,73.9335375 97.2114178,74.1403167 L106.969927,75.3043681 C107.576619,75.3767933 108.152872,75.646551 108.593721,76.0632583 L109.113293,76.5502916 L109.872183,75.7483661 C110.43584,75.1511206 111.31229,74.9212493 112.099521,75.1721134 L114.449666,75.915259 L117.275299,75.5300409 L116.27709,75.1007379 C115.644157,74.8299306 115.16762,74.2925146 114.972387,73.628092 C114.778204,72.9689177 114.885267,72.2614599 115.267336,71.6883561 L115.757518,70.9578063 C116.373657,70.0372714 117.47683,69.582777 118.564257,69.799003 L120.094633,70.1065477 L124.768683,68.5772213 L124.768683,68.2675773 Z M126.815482,68.0482024 L126.815482,68.7714048 C126.815482,69.5470892 126.321102,70.2272564 125.583204,70.4644752 L120.475653,72.1365527 C120.30771,72.191134 120.128222,72.2016304 119.956081,72.1669923 L118.162245,71.8059159 C117.890388,71.7502849 117.612233,71.8667951 117.456886,72.097716 L116.968804,72.8261666 C116.925768,72.8880954 116.913173,72.9741659 116.936265,73.0507897 C116.958307,73.1263638 117.012888,73.1893423 117.083214,73.2197818 L119.28536,74.1665577 C119.977074,74.4657053 120.389582,75.1941559 120.290916,75.9373014 C120.184902,76.6888441 119.591855,77.2808415 118.846611,77.381607 L114.498999,77.9746539 C114.346801,77.9945971 114.195653,77.9820014 114.051852,77.9368669 L111.481282,77.124445 C111.436148,77.10975 111.391013,77.1223457 111.360574,77.1548846 L109.901573,78.695757 C109.894226,78.7020549 109.887928,78.7094024 109.88058,78.7167498 C109.491164,79.1061665 108.86033,79.1198118 108.456218,78.7398419 L107.191401,77.553748 C107.064394,77.4330393 106.899601,77.3574652 106.72641,77.3364724 L96.9689509,76.1713713 C95.9780901,76.0601094 95.0061229,76.4390297 94.3679414,77.2052673 L93.3665842,78.4029073 C93.1146704,78.7041542 92.9908129,79.0883226 93.0170539,79.4829875 L93.2721165,83.1199923 C93.2815633,83.266942 93.2605705,83.412842 93.2101877,83.550345 L91.5832448,87.9137011 C91.4320965,88.3188624 91.051077,88.61801 90.6112775,88.5791733 L89.4335807,88.5644783 C89.1995109,88.5833718 89.0578094,88.6904352 88.9979799,88.8825194 L88.4679114,90.5871358 L89.1155396,91.3208346 C89.4104886,91.6546203 89.4556232,92.1416536 89.2268015,92.5237228 L83.1567297,102.652755 C82.971993,102.961349 82.6392569,103.149235 82.2792302,103.149235 L75.8459827,103.149235 L74.9086536,103.848296 C74.2610253,104.329031 73.4286603,104.446591 72.6802665,104.158989 L67.7878915,102.303225 C67.3459928,102.136332 67.0814834,101.690234 67.1339654,101.230492 L63.1631749,101.230492 C62.8020985,101.230492 62.4641142,101.44042 62.3035192,101.765809 L61.0607447,104.280748 C60.9715253,104.461286 60.8298238,104.612434 60.6545338,104.714249 L58.1899776,106.134413 C58.0052408,106.242526 57.7900645,106.286611 57.5790867,106.266668 L49.6049668,105.483636 L48.5332837,106.076683 C47.770195,106.499688 46.9399292,106.705417 46.117011,106.705417 C44.8574422,106.705417 43.6146677,106.221533 42.6563458,105.288403 L37.0239741,99.8029806 C36.8255921,99.6098467 36.7143302,99.3453373 36.7143302,99.0703314 L36.7143302,94.6954292 C36.7038338,94.5348342 36.7300748,94.3700406 36.7993511,94.2136442 C36.8927691,94.0037161 37.0481159,93.8399721 37.2328526,93.7360577 C37.5204542,93.5723138 37.915119,93.5649663 38.2100681,93.7182138 L39.4140059,94.2514313 L49.9324547,98.537114 L50.9757975,95.4049863 C51.2466048,94.5915148 51.9341194,93.9638297 52.770683,93.7685966 L53.8255718,93.521931 L53.979869,92.2907025 L53.494935,90.8285531 C53.2713615,90.1515349 53.3385386,89.4073397 53.6786221,88.7849028 C54.0218546,88.1603666 54.6117526,87.7016737 55.2982176,87.5253341 L66.9376826,84.5527518 L72.2604103,78.7608348 L76.6038232,74.4153225 L81.143519,68.4775054 L81.9968768,65.4902282 C82.0944934,65.1480453 82.3632014,64.880387 82.7043346,64.7859193 C83.0454678,64.6893524 83.4138917,64.7775222 83.6752522,65.0178899 L88.8688741,69.810549 C89.0252705,69.9648462 89.1921634,70.1222923 89.3139217,70.228306 C89.3349145,70.2209585 89.3548577,70.2146607 89.3758505,70.2094125 L90.9828503,69.7559677 C90.9880985,69.4505223 90.95451,68.9939286 90.8925812,68.6108098 L90.577689,65.2624562 C90.5482991,64.9517625 90.6627099,64.6463171 90.887333,64.4300911 L91.8897398,63.4644218 C92.2875536,63.0823526 92.9183876,63.0844519 93.3130525,63.4675707 L95.2968733,65.3978598 L95.578177,65.4629375 L95.6359073,65.2729526 L94.3186083,62.7716589 C94.1254744,62.4032351 94.1737578,61.9539889 94.4414162,61.6359478 L101.690234,53.0215471 L102.347309,50.7102384 C102.490061,50.2106095 102.985491,49.8957173 103.496666,49.9807382 L107.737214,50.6724513 C108.138177,50.7375291 108.461466,51.0335277 108.563281,51.4260933 L109.126938,53.603048 C109.266541,54.1383647 109.636014,54.5760649 110.140891,54.8027872 L111.680714,55.4965997 C112.884652,56.0382143 113.442011,57.4216406 112.950779,58.6465712 L112.008202,60.9977663 L113.622549,59.8872465 C114.311113,59.4117593 115.25474,59.4841845 115.862482,60.0583379 C116.521657,60.6797252 116.624521,61.678983 116.119644,62.4000862 L115.474115,63.3248196 L120.924899,64.2485033 C121.116983,64.2799925 121.295422,64.3671127 121.440273,64.4972682 L122.90767,65.8229643 L125.375375,66.3005508 C126.20984,66.4621954 126.815482,67.1969439 126.815482,68.0482024 Z M145.362632,80.2429273 C145.362632,44.8658393 116.581486,16.0836435 81.2054478,16.0836435 C45.8273102,16.0836435 17.0472136,44.8658393 17.0472136,80.2429273 C17.0472136,115.620015 45.8273102,144.401162 81.2054478,144.401162 C116.581486,144.401162 145.362632,115.620015 145.362632,80.2429273 Z M81.2054478,146.446911 C44.6989465,146.446911 14.9993647,116.748379 14.9993647,80.2429273 C14.9993647,43.7374757 44.6989465,14.0378939 81.2054478,14.0378939 C117.70985,14.0378939 147.409432,43.7374757 147.409432,80.2429273 C147.409432,116.748379 117.70985,146.446911 81.2054478,146.446911 Z M93.3266979,155.265992 L91.3680684,155.590331 C91.2589058,155.609224 91.1738849,155.712089 91.1927784,155.833847 L91.4950749,157.78408 C91.5139685,157.906888 91.6273297,157.98876 91.7375419,157.969866 L93.6961714,157.644477 C93.8063836,157.626634 93.8903549,157.513272 93.8704117,157.390464 L93.5681152,155.440232 C93.5492217,155.318474 93.4379598,155.248148 93.3266979,155.265992 Z M107.45801,148.768716 L107.879965,149.843548 L111.082419,148.625965 L111.757338,150.347376 L109.273888,151.292052 L109.704241,152.389976 L112.18769,151.4453 L112.867858,153.179306 L109.664354,154.396889 L110.08526,155.471721 L114.447567,153.813289 L111.821366,147.110284 L107.45801,148.768716 Z M122.290482,151.362378 L121.947249,150.730495 C121.917859,150.674864 121.85593,150.665417 121.801349,150.693757 L121.175763,151.024394 C121.120132,151.052734 121.094941,151.109415 121.124331,151.165046 L121.467563,151.796929 C121.490655,151.841014 121.557832,151.860958 121.613463,151.831568 L122.239049,151.50198 C122.29363,151.47364 122.314623,151.406463 122.290482,151.362378 Z M122.871982,151.055883 C123.073513,151.427456 122.942308,151.888248 122.569686,152.085581 L121.922058,152.427763 C121.548386,152.624046 121.074998,152.480246 120.874516,152.109722 L120.526036,151.466293 C120.324505,151.09472 120.471454,150.638126 120.845126,150.440794 L121.492755,150.098611 C121.866427,149.901278 122.321971,150.040881 122.523502,150.412453 L122.871982,151.055883 Z M128.450822,140.430371 L128.305972,140.22779 L126.621299,141.45692 L127.977435,143.341025 L128.450822,140.430371 Z M128.627162,138.549415 L129.708292,140.051451 L128.918962,144.99001 L128.055108,145.618745 L125.598949,142.202164 L124.916682,142.699694 L124.236515,141.752918 L124.916682,141.256438 L123.851297,139.774346 L124.874697,139.028051 L125.940082,140.510144 L128.627162,138.549415 Z M137.312938,135.17587 L134.370796,132.115118 L135.188466,131.317391 L134.423278,130.521763 L131.883147,133.001015 L132.648335,133.797692 L133.4828,132.982121 L137.705504,137.376966 L138.425557,136.674757 L138.425557,134.435873 L137.36752,134.44637 L137.312938,135.17587 Z M145.192591,126.083883 L144.430551,125.487687 C144.244765,125.341787 143.950866,125.379574 143.814412,125.556963 L142.334419,127.487252 L143.447038,128.359504 C143.642271,128.512751 143.93827,128.474964 144.073674,128.297575 L145.289158,126.712618 C145.425611,126.535228 145.386774,126.23818 145.192591,126.083883 Z M146.144615,127.49355 L145.035144,128.941005 C144.415857,129.748178 143.415549,129.911922 142.644063,129.30628 L141.597571,128.48756 L140.649746,127.744414 C139.253724,126.650689 139.110973,124.83691 140.092387,123.556348 L140.688583,122.778564 L141.598621,123.489171 L141.024468,124.237565 C140.450314,124.987008 140.564725,126.101727 141.317317,126.690575 L141.414934,126.767199 L142.842445,124.906186 C143.461733,124.097963 144.481984,123.952063 145.242973,124.548259 L145.898999,125.060483 C146.661038,125.657729 146.764952,126.685327 146.144615,127.49355 Z M151.403314,115.794256 L150.559403,115.320868 C150.353674,115.204358 150.067122,115.28623 149.959009,115.480413 L148.771865,117.604886 L150.004143,118.297649 C150.220369,118.418357 150.507971,118.338585 150.616084,118.144401 L151.5912,116.398849 C151.701412,116.204665 151.61954,115.916014 151.403314,115.794256 Z M152.55582,117.041229 L151.665724,118.633534 C151.168195,119.52153 150.199376,119.831174 149.344969,119.350438 L148.187215,118.699661 L147.136525,118.108713 C145.590404,117.239611 145.184193,115.474115 145.971424,114.064448 L146.45006,113.208991 L147.455616,113.774747 L146.994824,114.598715 C146.535081,115.421633 146.811136,116.503813 147.644551,116.970903 L147.752664,117.032832 L148.898872,114.984983 C149.394302,114.095937 150.387262,113.798889 151.229074,114.273326 L151.955425,114.681637 C152.799336,115.155025 153.0523,116.152183 152.55582,117.041229 Z M149.933817,105.023893 L149.455181,106.194242 C149.427891,106.263519 149.454132,106.327547 149.523408,106.355887 L150.699005,106.825076 C150.768282,106.854466 150.83231,106.827176 150.86065,106.757899 L151.339286,105.585451 C151.366577,105.517224 151.340336,105.452146 151.272109,105.424856 L150.095462,104.953567 C150.026186,104.926277 149.962158,104.953567 149.933817,105.023893 Z M158.359283,95.0617538 L157.768335,94.9116552 L157.474436,96.1176923 L158.124163,96.2824859 C158.364531,96.343365 158.518828,96.6015766 158.466346,96.8178026 L157.995057,98.7480917 C157.942575,98.9643177 157.687513,99.1186149 157.447145,99.0566861 L156.509816,98.817368 C156.267349,98.7575385 156.141392,98.5455111 156.173931,98.4122067 L156.638922,96.507109 L155.483267,96.2132096 L155.018277,98.1183074 C154.985738,98.2505621 154.776859,98.3786182 154.536492,98.3166894 L153.597063,98.0773714 C153.357745,98.0164922 153.202398,97.7593303 153.25593,97.5431043 L153.726169,95.6128152 C153.779701,95.3965892 154.034763,95.242292 154.274081,95.3042208 L154.828292,95.4448727 L155.122191,94.2377859 L154.62886,94.1128787 C153.691531,93.8746103 152.828726,94.424622 152.587309,95.4123338 L152.158006,97.1736308 C151.916589,98.1613426 152.425664,99.059835 153.364043,99.2991531 L154.169117,99.5048826 C154.591073,99.6108963 154.992036,99.5332229 155.331069,99.3505855 C155.546246,99.6749244 155.866386,99.9352353 156.287292,100.042299 L157.093416,100.248028 C158.030745,100.486297 158.89355,99.9373346 159.133918,98.9485731 L159.56427,97.1883258 C159.804638,96.1985146 159.296612,95.3000222 158.359283,95.0617538 Z M158.886202,85.3966629 L159.305009,85.9907595 L155.084404,85.5362651 L155.214559,84.4016035 L154.115586,84.2840438 L153.712524,87.811886 L154.811497,87.9294457 L154.944802,86.7695928 L161.003327,87.4214196 L161.116689,86.4232114 L159.701773,84.7101979 L158.886202,85.3966629 Z M155.12429,75.8974151 L155.110645,74.7554061 L154.006423,74.7795478 L154.051558,78.3294324 L155.15578,78.3052907 L155.141085,77.1380903 L161.234248,77.001637 L161.221653,75.9960813 L159.601008,74.4804002 L158.878855,75.2665811 L159.369037,75.8029474 L155.12429,75.8974151 Z M153.910906,59.5534608 L155.816003,59.0401865 C155.935663,59.0076476 156.004939,58.8858893 155.976598,58.7777763 L155.458076,56.8621822 C155.427636,56.7530195 155.306928,56.6837433 155.186219,56.7152325 L153.282171,57.2295564 C153.161462,57.2620952 153.103732,57.3807046 153.133122,57.487768 L153.651644,59.4054614 C153.679985,59.5125248 153.790197,59.5859996 153.910906,59.5534608 Z M147.156468,38.2877415 L145.951481,42.2868723 L144.052681,43.3669525 L144.66987,44.4722241 L150.925728,40.9097438 L150.308539,39.8044722 L147.493403,41.4072734 L148.806503,37.1173922 L148.285882,36.1874106 L142.030023,39.7509405 L142.647212,40.8562121 L147.156468,38.2877415 Z M144.044284,29.4056824 L144.474636,29.9672402 C144.512423,30.0155236 144.572253,30.0333675 144.622636,29.9955805 L145.196789,29.5620789 C145.236675,29.5326889 145.246122,29.462363 145.208335,29.4140795 L144.777983,28.8525218 C144.740195,28.8031887 144.66987,28.7947916 144.631033,28.8241815 L144.05583,29.2576831 C144.006497,29.2954701 144.006497,29.3563493 144.044284,29.4056824 Z M143.50162,29.7992977 C143.245507,29.4644623 143.308486,28.9963226 143.64542,28.7423095 L144.23112,28.3014605 C144.568054,28.0484971 145.04879,28.1051777 145.304902,28.440013 L145.750999,29.0204643 C146.008161,29.3563493 145.942034,29.8412833 145.605099,30.0952963 L145.02045,30.5350957 C144.683515,30.7891088 144.203829,30.7156339 143.946667,30.3797489 L143.50162,29.7992977 Z M132.262068,28.2206381 C132.972674,28.9480391 133.998173,28.9868758 134.691986,28.3109072 L135.703839,27.3221458 C136.397652,26.6461772 136.437538,25.4978703 135.648208,24.7232355 L134.155619,23.267384 L135.068807,22.4434161 L137.566951,25.0013903 L138.391969,24.1952663 L135.062509,20.7849839 L132.462549,23.185512 L134.94285,25.6532171 C135.125487,25.8400532 135.121289,26.1570446 134.85468,26.4173555 L133.779848,27.4659465 C133.602459,27.6401869 133.303311,27.6359883 133.147964,27.4764429 L131.717304,26.010095 C131.560908,25.8505496 131.565106,25.5524516 131.742495,25.3792609 L132.150806,24.9803975 L131.283803,24.0913519 L130.919577,24.44718 C130.226814,25.1231486 130.24046,26.1517964 130.952116,26.8791974 L132.262068,28.2206381 Z M126.489044,17.8312951 L127.338203,16.6987329 C127.487252,16.5014004 127.446316,16.2033025 127.268927,16.0678989 L125.68397,14.852415 C125.50658,14.7149121 125.212681,14.7568977 125.063632,14.9552798 L124.483181,15.7288649 C124.341479,15.9178002 124.381366,16.2148485 124.558755,16.3513018 L126.489044,17.8312951 Z M122.626367,20.1258096 L121.849632,19.528564 L122.542395,18.6059299 L123.290789,19.1790337 C124.039183,19.7531871 125.140256,19.6282799 125.714409,18.8641415 L125.788934,18.7644256 L123.928971,17.337964 C123.120747,16.718676 122.961202,15.6889786 123.542703,14.9143438 L124.041282,14.2488716 C124.622783,13.4752865 125.638835,13.3619253 126.446009,13.9812133 L127.893463,15.0917331 C128.701687,15.711021 128.875927,16.7207753 128.287079,17.5048569 L127.490401,18.5660436 L126.767199,19.5296137 C125.702863,20.9497775 123.906928,21.1061739 122.626367,20.1258096 Z M116.462877,11.6195218 L117.130448,10.3714991 C117.246958,10.1542235 117.160888,9.86872126 116.962506,9.76480684 L115.195961,8.83167631 C114.997578,8.72671225 114.711027,8.81488206 114.594516,9.03425695 L114.137923,9.88761479 C114.026661,10.094394 114.113781,10.3798962 114.312163,10.4838107 L116.462877,11.6195218 Z M112.980169,14.4955372 L112.113166,14.0389435 L112.65688,13.0218417 L113.491344,13.4626908 C114.325808,13.9014406 115.40274,13.6001937 115.853036,12.7573323 L115.911815,12.6492193 L113.836676,11.5544441 C112.937134,11.0789569 112.618043,10.0964933 113.074637,9.2420858 L113.468252,8.50733735 C113.923796,7.65502916 114.916756,7.38002331 115.816298,7.85341124 L117.430645,8.70676907 C118.331237,9.180157 118.661874,10.1416278 118.200032,11.0044324 L117.573397,12.176881 L117.004491,13.2391173 C116.166878,14.8030819 114.406631,15.2502288 112.980169,14.4955372 Z M102.032417,10.1447767 L103.741232,10.7462208 C104.701653,11.0842051 105.637933,10.6643489 105.960173,9.75116151 L106.235178,8.96603031 C106.378979,8.55562082 106.339093,8.14836026 106.187945,7.79148244 C106.528028,7.60884497 106.81563,7.31494559 106.95943,6.90558574 L107.235486,6.12045455 C107.557726,5.20831684 107.088536,4.2930302 106.129165,3.95504592 L104.4193,3.35255219 C103.459929,3.01456791 102.522599,3.43442416 102.201409,4.34761151 L101.999878,4.9207153 L103.170228,5.33427371 L103.392752,4.70134041 C103.474624,4.46727055 103.744381,4.33816475 103.954309,4.41268923 L105.827918,5.07186355 C106.038896,5.14638804 106.168001,5.41614568 106.086129,5.65021554 L105.764939,6.5634029 C105.682018,6.79747276 105.460544,6.90348646 105.331438,6.85835191 L103.481971,6.20652508 L103.086256,7.3306902 L104.935723,7.98146739 C105.065879,8.02765158 105.171892,8.24912576 105.09002,8.48319562 L104.767781,9.39743261 C104.685909,9.63150247 104.416151,9.76060827 104.206223,9.68503415 L102.332615,9.02690947 C102.122686,8.95133534 101.992531,8.68262734 102.075453,8.44855748 L102.264388,7.91009183 L101.094039,7.49758306 L100.925046,7.97831847 C100.604906,8.89150583 101.071996,9.80679246 102.032417,10.1447767 Z M92.8575085,7.98461632 L94.0950348,8.25437396 C94.16746,8.27011857 94.2262399,8.23233151 94.2419845,8.15885666 L94.5012457,6.92028071 C94.5159407,6.84680587 94.477104,6.78802599 94.4046788,6.77123174 L93.1671525,6.50252374 C93.0947273,6.48677913 93.0359474,6.52456619 93.0202028,6.5969914 L92.7609416,7.83766663 C92.7462466,7.91009183 92.7850833,7.96992135 92.8575085,7.98461632 Z M84.7353892,4.18386757 L84.9075303,1.86836033 L82.673895,3.8049473 L82.6550015,4.05161285 L84.7353892,4.18386757 Z M84.6493187,5.34791904 L81.3293054,5.13694127 L81.4657587,3.29272267 L85.244465,0 L86.3098502,0.0671770007 L85.9981069,4.26364026 L86.8409684,4.31717194 L86.7548978,5.4812234 L85.9120364,5.42769173 L85.7776824,7.24671895 L84.5149647,7.16694626 L84.6493187,5.34791904 Z M63.9189162,6.3776165 L65.8701981,6.00394444 C65.9793607,5.98295162 66.0612327,5.8790372 66.0391902,5.75727889 L65.686511,3.81649335 C65.6644685,3.69263576 65.5490081,3.61391271 65.4398454,3.63490552 L63.4885635,4.00857759 C63.3794009,4.0295704 63.2996282,4.14608051 63.3216706,4.26888847 L63.6743499,6.21072364 C63.6963923,6.33248196 63.8097535,6.39860932 63.9189162,6.3776165 Z M44.6034292,11.546047 L45.0064912,12.4130502 L47.6830748,11.1629282 L47.2810624,10.295925 C47.1708502,10.0597559 47.1341128,10.0083235 46.9367803,9.9369479 L45.1786322,9.30506424 C45.1649869,9.42157435 44.5519968,11.049567 44.5519968,11.049567 C44.4785219,11.2468994 44.4953162,11.3098779 44.6034292,11.546047 Z M43.441477,12.0194349 C43.2273503,11.5586427 43.1706697,11.2280059 43.3680022,10.739923 L44.236055,8.54092585 L45.2248164,8.07803433 L47.4616006,8.82747775 C47.9622792,8.99122169 48.1774555,9.247334 48.3905326,9.70917588 L50.2347512,13.684165 L49.09904,14.2152831 L48.1428174,12.1537889 L45.4662338,13.4028613 L46.4224564,15.4643555 L45.2856956,15.994424 L43.441477,12.0194349 Z M34.9530332,15.4559584 L37.6474607,19.595741 L36.7752093,20.1688448 L37.3902987,21.1156207 L40.1907399,19.2724517 L39.5746009,18.3256759 L38.6939524,18.9061271 L35.9995249,14.7652948 L36.881223,14.1858932 L36.265084,13.2391173 L33.4646428,15.0822863 L34.0818314,16.0280125 L34.9530332,15.4559584 Z M25.6700114,24.8953766 C26.3155404,25.6343236 27.3221458,25.6374725 28.0988798,24.9961421 C28.802139,24.4062441 29.7342199,23.2453415 30.216005,23.7985021 L30.8279455,24.4996621 C30.9916894,24.6864981 30.9727959,24.9866953 30.8048534,25.1346947 L29.246137,26.5191707 C29.0781945,26.66717 28.7811462,26.6482765 28.6184519,26.4603908 L28.2762691,26.0678252 L27.3473371,26.8917931 L27.6496336,27.2371249 C28.2857159,27.9666251 29.3080658,28.0065114 30.0690553,27.3305429 L31.4997155,26.0615273 C32.2607049,25.3855588 32.3520237,24.3590102 31.7159415,23.62951 L31.1848233,23.0217681 C30.5413936,22.2828211 29.5158947,22.2796721 28.7570045,22.9189033 C28.0621424,23.5192977 27.1300615,24.6791506 26.6482765,24.1270397 L26.0279388,23.4164329 C25.8652445,23.2295969 25.8841381,22.9304493 26.0510309,22.78245 L27.499535,21.4966402 C27.6664279,21.3486409 27.9634762,21.3675344 28.1261705,21.5543705 L28.4767505,21.9563828 L29.4056824,21.1324149 L29.0949888,20.7776364 C28.4599562,20.0481361 27.4376062,20.0082498 26.6755671,20.6842184 L25.3582681,21.853518 C24.596229,22.5305362 24.5038606,23.5570848 25.1399429,24.2876347 L25.6700114,24.8953766 Z M18.5135615,33.9968106 L20.7450975,33.7984285 L22.6921809,35.4369175 L23.509851,34.4701985 L21.5627676,32.8317094 L21.3822294,30.6033224 C21.3475913,30.0868992 21.1932941,29.8276379 20.804927,29.5001501 L19.3312316,28.2626238 L18.5230083,29.219896 L19.9557678,30.4248835 C20.1541498,30.592826 20.1845894,30.6180173 20.1940362,30.8363426 L20.3577801,32.660618 L18.535604,32.7981209 C18.3172787,32.8254116 18.2868392,32.8012699 18.0884571,32.634377 L16.6556976,31.4272903 L15.8537722,32.3751158 L17.3253683,33.6136917 C17.714785,33.9411796 17.998188,34.0492926 18.5135615,33.9968106 Z M11.5282031,41.2928626 C11.5817348,41.3978267 11.9910946,43.0971949 11.9910946,43.0971949 C12.042527,43.3018748 12.0897608,43.3449101 12.3133343,43.4792641 L13.1299547,43.9736448 L14.6340897,41.4303655 L13.8164197,40.9359848 C13.5938959,40.8005812 13.5330167,40.780638 13.3304361,40.8310207 L11.5282031,41.2928626 Z M10.8417381,43.5023562 L10.322166,41.1878986 L10.8784755,40.2474205 L13.1415008,39.6134376 C13.6442786,39.4685872 13.9654687,39.5609556 14.4000199,39.8244154 L18.1503859,42.0926888 L17.513254,43.1706697 L15.5682699,41.9961218 L14.0651845,44.5394011 L16.009119,45.7149986 L15.3709375,46.7929795 L11.6205715,44.5257558 C11.1860203,44.2633456 10.9540497,44.0208786 10.8417381,43.5023562 Z M13.0312885,52.0810691 L11.9669529,51.6370711 L10.7462208,54.6243483 L5.16738085,52.2951958 L4.67929795,53.4907364 L11.3224735,56.263887 L13.0312885,52.0810691 Z M3.09748952,63.2324512 C3.17936149,63.3174721 4.06420854,64.8216071 4.06420854,64.8216071 C4.17337117,65.0021453 4.2311014,65.029436 4.4840648,65.093464 L5.40984784,65.3264843 L6.10995814,62.4567668 L5.1841751,62.2226969 C4.93121171,62.1597185 4.86718363,62.1565695 4.68874472,62.2646825 L3.09748952,63.2324512 Z M3.08279455,65.5458591 L1.91244524,63.4843649 L2.17065683,62.4231783 L4.153428,61.1573116 C4.59322742,60.8707598 4.92806279,60.8655116 5.42034424,60.9893691 L9.66928954,62.0621019 L9.37224124,63.279685 L7.16904554,62.7244251 L6.46893524,65.5941426 L8.67213093,66.1494025 L8.37508263,67.3680353 L4.12613734,66.2953026 C3.63280624,66.171445 3.3399565,66.0087507 3.08279455,65.5458591 Z M2.16435899,77.5191099 L3.79025234,76.3414131 L3.85742934,75.5751754 L2.46560585,74.1319195 L7.58470323,74.583265 L7.69596514,73.321597 L0.524820318,72.6897133 L0.433501583,73.7162619 C0.433501583,73.7162619 2.40787562,75.7473165 2.55272603,75.8102949 L0.0913187353,77.5726416 L0,78.6002397 L7.17114482,79.2310738 L7.28345637,77.9704554 L2.16435899,77.5191099 Z M5.88638469,94.3658421 L3.94140059,94.7006774 C3.81754299,94.7206206 3.73672066,94.8360811 3.7556142,94.9452437 L4.07995315,96.9049228 C4.09884668,97.015135 4.21115823,97.0959574 4.33501583,97.0749646 L6.27999992,96.7411788 C6.40175824,96.720186 6.47103452,96.6078745 6.45319063,96.4987119 L6.12885167,94.5379831 C6.10995814,94.4288205 6.008143,94.3458989 5.88638469,94.3658421 Z M15.2974626,113.94164 L13.2601102,114.860075 L12.0845126,114.463311 L14.2047867,110.948065 L13.1121108,110.215416 L10.9089151,113.944789 L7.67707161,112.719858 L7.28030745,113.919597 L11.6982449,115.563335 L8.72251368,116.904775 L9.23473831,118.075125 L15.8096873,115.111989 L15.2974626,113.94164 Z M18.5440011,125.540169 L16.920207,123.072464 L16.1203809,123.595185 C15.9020556,123.736886 15.8569211,123.782021 15.8149355,123.986701 L15.4433627,125.816224 C15.5609224,125.813076 17.2623899,126.186748 17.2623899,126.186748 C17.4670698,126.228733 17.5268993,126.204591 17.7452246,126.06289 L18.5440011,125.540169 Z M22.0508505,124.74769 L18.3823565,127.14402 C17.9562024,127.421125 17.6381612,127.525039 17.124887,127.400132 L14.8219754,126.858518 L14.221581,125.94638 L14.6414372,123.626674 C14.7317063,123.109201 14.9531805,122.859387 15.3793346,122.582282 L19.0478286,120.185952 L19.7374425,121.232444 L17.8354937,122.475218 L19.4592877,124.941874 L21.3612366,123.700149 L22.0508505,124.74769 Z M27.2003874,132.448904 L27.5856056,131.022442 L26.8235664,130.204772 L25.349871,130.425196 C24.8974759,130.50287 24.5133074,130.601536 24.1291389,130.953166 L20.6474809,134.135676 L21.5186827,135.073005 L25.0087378,131.881048 C25.3393746,131.579801 25.8788899,131.557759 26.2872001,131.468539 L26.0730734,132.404819 C26.0111446,132.628392 25.9723079,132.732307 25.8536985,132.842519 L23.7827575,134.733971 L24.6277182,135.64296 L26.6986592,133.751508 C26.9925586,133.4828 27.7482998,133.547877 28.1261705,133.370488 C28.0033625,133.786146 27.9267388,134.35925 27.5971516,134.660496 L24.1060468,137.851404 L24.9772486,138.787683 L28.4589066,135.604123 C28.843075,135.252494 28.9742801,134.88302 29.0792442,134.431675 L29.4287745,133.003114 L28.6593879,132.177047 L27.2003874,132.448904 Z M36.1023897,143.014586 L33.8005278,141.161971 L33.2085304,141.912464 C33.0468858,142.116094 33.0174958,142.172774 33.0426872,142.383752 L33.2610125,144.248964 C33.3712247,144.211177 35.0915857,144.034837 35.0915857,144.034837 C35.2994146,144.010695 35.3487477,143.969759 35.5093427,143.765079 L36.1023897,143.014586 Z M38.186976,140.37474 L39.1620921,141.160921 L36.4466718,144.600593 C36.1317796,144.999457 35.8641212,145.198888 35.3414002,145.239824 L32.9996519,145.441355 L32.1483934,144.75594 L31.8230048,142.405795 C31.746381,141.882024 31.8786358,141.57343 32.1945776,141.174566 L34.9099979,137.735944 L35.8851141,138.522124 L34.477546,140.305464 L36.7783582,142.15808 L38.186976,140.37474 Z M45.9427706,149.858243 L43.9169642,148.725681 C43.5160015,148.501058 43.3575057,148.55459 43.1444287,148.934559 L42.7245724,149.680854 C42.5965163,149.907576 42.6752393,150.222469 42.8599761,150.325333 L45.0043919,151.524023 L45.9427706,149.858243 Z M48.0011159,146.202345 L49.0738486,146.80169 L45.5418079,153.075392 L42.378191,151.306747 C41.4901951,150.810267 41.1868489,149.829903 41.6612865,148.987041 L42.0454549,148.305825 C42.3446025,147.774707 42.7466149,147.616211 43.0216207,147.557431 C42.9061603,147.307616 42.836884,146.899306 43.1108402,146.412273 L44.3714586,144.17339 L45.4767302,144.790578 L44.2958845,146.88986 C44.0702117,147.289773 44.1006513,147.461914 44.4470327,147.657147 L46.5274205,148.819099 L48.0011159,146.202345 Z M57.4111442,153.674737 L54.6495397,152.625096 L54.315754,153.520439 C54.2244352,153.763956 54.2149885,153.827984 54.3021087,154.019019 L55.0830413,155.724685 C55.1764593,155.653309 56.7614167,154.955298 56.7614167,154.955298 C56.9524513,154.868178 56.9849901,154.813597 57.0763089,154.57008 L57.4111442,153.674737 Z M58.5867417,150.522666 L59.7591903,150.968763 L58.2277646,155.073908 C58.0503754,155.550444 57.8551422,155.822301 57.3702082,156.022783 L55.200601,156.938069 L54.1803503,156.548653 L53.1464543,154.416833 C52.9123845,153.943445 52.9438737,153.610708 53.1223126,153.133122 L54.6537383,149.027977 L55.8261869,149.473025 L55.0316089,151.601696 L57.7932134,152.651337 L58.5867417,150.522666 Z M70.5274536,154.869228 L70.4340356,155.318474 L69.2154028,155.085454 L69.3203669,154.575328 C69.3707496,154.331812 69.205956,154.086196 68.9865811,154.04316 L66.9387323,153.651644 C66.7193574,153.608609 66.4684933,153.775502 66.4191602,154.017969 L66.2312745,154.930107 C66.0832752,155.648061 67.5727152,155.6806 68.470158,155.877932 C69.4494727,156.103605 70.0582642,156.901332 69.8609318,157.861753 L69.6992871,158.652132 C69.504054,159.601008 68.6297033,160.154168 67.6293958,159.962084 L65.8985384,159.631447 C64.8992805,159.439363 64.3093825,158.605948 64.5046156,157.658123 L64.6001329,157.196281 L65.8198154,157.429301 L65.7117024,157.952022 C65.6623693,158.196588 65.8261132,158.442204 66.0454881,158.48419 L67.9474369,158.848415 C68.1668118,158.890401 68.4176759,158.723508 68.467009,158.478942 L68.656994,157.556308 C68.8049933,156.839403 67.3155533,156.806864 66.4160112,156.622127 C65.4461433,156.41115 64.827905,155.596629 65.0252374,154.636207 L65.1879317,153.845828 C65.3821152,152.898002 66.2564659,152.345892 67.2567734,152.535876 L69.1345805,152.896953 C70.1338384,153.087987 70.7216371,153.921402 70.5274536,154.869228 Z" id="Fill-1"></path>
            </g>
        </g>
    </g>
</svg>