<?xml version="1.0" encoding="UTF-8"?>
<svg width="161px" height="159px" viewBox="0 0 161 159" version="1.1" xmlns="http://www.w3.org/2000/svg" xmlns:xlink="http://www.w3.org/1999/xlink">
    <!-- Generator: Sketch 50.2 (55047) - http://www.bohemiancoding.com/sketch -->
    <title>Group 4</title>
    <desc>Created with Sketch.</desc>
    <defs></defs>
    <g id="Page-1" stroke="none" stroke-width="1" fill="none" fill-rule="evenodd">
        <g id="tanzania" transform="translate(-601.000000, -685.000000)" fill="#FFFFFF">
            <g id="Group-4" transform="translate(601.000000, 685.000000)">
                <g id="Group-3">
                    <polygon id="Fill-1" points="71.4920519 151.967584 70.1891948 158.974338 68.9341299 158.734338 70.0291948 152.85174 66.8915325 152.249143 67.1003636 151.126026"></polygon>
                    <path d="M55.1481558,153.719896 C55.0660779,153.951584 55.1938701,154.217558 55.4027013,154.291325 L57.5814026,155.058078 C57.7891948,155.131844 58.0562078,155.003013 58.1382857,154.772364 L59.4442597,151.064312 C59.5252987,150.832623 59.3975065,150.566649 59.1897143,150.492883 L57.009974,149.725091 C56.8021818,149.652364 56.5351688,149.779117 56.4541299,150.011844 L55.1481558,153.719896 Z M57.4712727,148.676779 L59.4868571,149.38639 C60.4375065,149.720935 60.9008831,150.62587 60.5819221,151.530805 L59.3164675,155.123532 C58.9985455,156.02639 58.0707532,156.441974 57.1201039,156.107429 L55.1045195,155.396779 C54.1538701,155.062234 53.6904935,154.157299 54.0094545,153.253403 L55.2749091,149.661714 C55.5928312,148.756779 56.5206234,148.341195 57.4712727,148.676779 Z" id="Fill-3"></path>
                    <polygon id="Fill-5" points="46.3282078 143.925818 45.2892468 145.822961 46.350026 149.822961 48.8165195 145.316987 49.9095065 145.928935 46.4892468 152.179325 45.5666494 151.664 44.4466494 147.364779 42.9079481 150.178286 41.8139221 149.566338 45.2341818 143.314909"></polygon>
                    <path d="M36.8806234,137.928416 L38.4016623,139.09413 C39.2006234,139.707117 39.3564675,140.709714 38.7673766,141.465039 L36.4286753,144.471792 C35.8406234,145.227117 34.8245195,145.332052 34.0255584,144.718026 L32.5045195,143.552312 C31.7055584,142.939325 31.5497143,141.937766 32.1388052,141.182442 L32.4473766,140.784519 L33.4427013,141.547117 L33.0811429,142.012571 C32.9294545,142.206857 32.9668571,142.496727 33.1424416,142.631792 L34.7611429,143.873351 C34.9356883,144.007377 35.2297143,143.969974 35.3814026,143.775688 L37.8032208,140.664 C37.9538701,140.469714 37.9164675,140.177766 37.7419221,140.04374 L36.1232208,138.802182 C35.9476364,138.668156 35.6536104,138.706597 35.502961,138.899844 L34.649974,139.995948 L35.8104935,140.886338 L35.1081558,141.787117 L32.9533506,140.135169 L34.4775065,138.175688 C35.0665974,137.420364 36.0806234,137.31439 36.8806234,137.928416" id="Fill-7"></path>
                    <polygon id="Fill-9" points="30.6417662 132.796571 29.8324156 133.568519 29.1113766 132.829818 25.5747532 136.206442 26.2957922 136.945143 25.4874805 137.717091 23.1695584 135.344104 23.9778701 134.572156 24.7082597 135.319169 28.2448831 131.942545 27.5155325 131.195532 28.3248831 130.423584"></polygon>
                    <path d="M17.0292987,125.618182 C16.8287792,125.760519 16.7768312,126.051429 16.9025455,126.234286 L18.3238442,128.283117 L22.2781299,125.491429 L20.8568312,123.441558 C20.7311169,123.258701 20.4412468,123.208831 20.2407273,123.349091 L17.0292987,125.618182 Z M21.8261818,122.832727 L23.9113766,125.841558 L18.0911169,129.952727 L16.0048831,126.943896 C15.4303377,126.115844 15.5830649,125.105974 16.3654026,124.553247 L19.4770909,122.354805 C20.2594286,121.803117 21.2516364,122.004675 21.8261818,122.832727 Z" id="Fill-11"></path>
                    <path d="M10.3860779,114.662442 C10.1658182,114.770494 10.0702338,115.047896 10.1689351,115.246338 L11.1964675,117.314909 C11.2951688,117.512312 11.5756883,117.607896 11.7959481,117.500883 L15.3325714,115.781403 C15.5538701,115.67439 15.6484156,115.395948 15.5497143,115.198545 L14.5221818,113.128935 C14.4234805,112.931532 14.142961,112.835948 13.9216623,112.944 L10.3860779,114.662442 Z M15.5881558,112.707117 L16.5398442,114.621922 C16.9876364,115.524779 16.6852987,116.491013 15.824,116.909714 L12.3985455,118.575169 C11.5362078,118.99387 10.5793247,118.640623 10.1304935,117.737766 L9.17984416,115.822961 C8.73101299,114.921143 9.03231169,113.95387 9.89464935,113.535169 L13.3201039,111.869714 C14.1814026,111.451013 15.1403636,111.805299 15.5881558,112.707117 Z" id="Fill-13"></path>
                    <path d="M6.75584416,95.1088831 L7.12571429,97.0392727 C7.14649351,97.1483636 7.08103896,97.2605714 6.96051948,97.2844675 L5.04051948,97.646026 C4.92,97.6699221 4.80571429,97.590961 4.78493506,97.4829091 L4.41402597,95.5514805 C4.39324675,95.4434286 4.47116883,95.3291429 4.59168831,95.3052468 L6.51168831,94.9436883 C6.63220779,94.9197922 6.73506494,95.0008312 6.75584416,95.1088831" id="Fill-15"></path>
                    <polygon id="Fill-17" points="1.79085714 75.6973506 7.75968831 76.1264416 7.67657143 77.4386494 1.70774026 77.0105974 1.57163636 79.155013 0.431896104 79.073974 0.78825974 73.4583896 1.928 73.5394286"></polygon>
                    <path d="M5.14109091,63.384 C4.88966234,63.3258182 4.82732468,63.3247792 4.65277922,63.4359481 L3.10264935,64.4271169 C3.18576623,64.5091948 4.09901299,65.9814026 4.09901299,65.9814026 C4.21018182,66.158026 4.26732468,66.182961 4.51875325,66.2411429 L5.44031169,66.4541299 L6.06264935,63.596987 L5.14109091,63.384 Z M9.57122078,63.1336104 L9.30732468,64.3460779 L7.11615584,63.8401039 L6.49485714,66.6972468 L8.68498701,67.2032208 L8.42109091,68.4156883 L4.1945974,67.4401039 C3.70420779,67.3268571 3.41122078,67.171013 3.14524675,66.718026 L1.93797403,64.7014026 L2.16862338,63.6437403 L4.09693506,62.3491948 C4.52394805,62.0572468 4.85433766,62.0447792 5.34472727,62.158026 L9.57122078,63.1336104 Z" id="Fill-19"></path>
                    <polygon id="Fill-21" points="12.6547532 53.2226494 10.6516364 52.406026 6.82098701 53.9208312 11.5763117 55.8616104 11.1025455 57.0221299 4.5041039 54.3291429 4.9041039 53.3514805 9.02566234 51.7421299 6.05631169 50.5307013 6.53007792 49.3701818 13.1274805 52.0631688"></polygon>
                    <polygon id="Fill-23" points="15.5727792 46.2411429 14.8070649 45.7746494 12.3031688 40.1819221 10.4610909 43.1315325 9.48550649 42.5372468 12.2304416 38.1382857 12.9971948 38.6047792 15.5010909 44.1985455 17.3421299 41.2489351 18.3187532 41.8432208"></polygon>
                    <path d="M21.144,30.5775584 C20.9486753,30.4092468 20.8925714,30.3791169 20.6858182,30.3957403 L18.8447792,30.5547013 C18.8811429,30.6648312 19.0037403,32.3853506 19.0037403,32.3853506 C19.0214026,32.5921039 19.0598442,32.641974 19.2572468,32.8092468 L19.9762078,33.4222338 L21.864,31.1905455 L21.144,30.5775584 Z M25.198026,32.4040519 L24.396987,33.3515844 L22.6858182,31.8928831 L20.7990649,34.1245714 L22.5091948,35.5832727 L21.7081558,36.5308052 L18.4084156,33.7162597 C18.025039,33.390026 17.836987,33.1178182 17.8120519,32.5941818 L17.6821818,30.2565195 L18.3803636,29.4305455 L20.6993247,29.1801558 C21.2167273,29.1209351 21.5149091,29.2622338 21.8993247,29.5895065 L25.198026,32.4040519 Z" id="Fill-25"></path>
                    <polygon id="Fill-27" points="32.5005714 25.0267013 31.1000519 23.3789091 26.9992727 22.9529351 30.3239481 26.8667013 29.3670649 27.6760519 24.7551169 22.2454026 25.5603117 21.5628052 29.9644675 22.0386494 27.8886234 19.595013 28.8455065 18.7856623 33.4584935 24.2183896"></polygon>
                    <polygon id="Fill-29" points="38.4035325 20.2468571 37.8123636 19.2982857 38.6882078 18.7517922 36.1032727 14.6011429 35.2263896 15.1486753 34.6362597 14.1990649 37.4508052 12.4421818 38.0409351 13.3907532 37.1557403 13.9445195 39.7406753 18.0941299 40.6269091 17.5414026 41.2180779 18.491013"></polygon>
                    <path d="M48.7363117,9.57111688 C48.6334545,9.33319481 48.5981299,9.28332468 48.4048831,9.2054026 L46.6802078,8.53838961 C46.6635844,8.65371429 46.0183896,10.2505974 46.0183896,10.2505974 C45.9425455,10.4438442 45.955013,10.5061818 46.0578701,10.742026 L46.433974,11.6105974 L49.1134545,10.4376104 L48.7363117,9.57111688 Z M51.5768312,12.9944935 L50.4412468,13.4911169 L49.5435844,11.4298182 L46.8651429,12.6017662 L47.7617662,14.6641039 L46.6241039,15.1617662 L44.8963117,11.1825455 C44.6957922,10.7212468 44.646961,10.395013 44.8547532,9.91397403 L45.766961,7.75916883 L46.7570909,7.32592208 L48.9513766,8.12176623 C49.4428052,8.29631169 49.6485195,8.55397403 49.849039,9.01735065 L51.5768312,12.9944935 Z" id="Fill-31"></path>
                    <path d="M67.9342338,5.59179221 L65.9882597,5.86503896 C65.8781299,5.87958442 65.769039,5.8078961 65.7503377,5.68633766 L65.4677403,3.75387013 C65.449039,3.63127273 65.5321558,3.52218182 65.6422857,3.5065974 L67.5892987,3.23335065 C67.6983896,3.21880519 67.8095584,3.30192208 67.8272208,3.42451948 L68.1108571,5.35594805 C68.1285195,5.47854545 68.0433247,5.57620779 67.9342338,5.59179221" id="Fill-33"></path>
                    <path d="M83.7713247,7.01631169 L83.8793766,6.10098701 C84.1422338,3.8692987 88.0913247,3.52851948 88.2211948,2.4292987 L88.2731429,1.98981818 C88.3011948,1.7467013 88.1183377,1.51605195 87.8980779,1.49111688 L86.1401558,1.28955844 C85.9209351,1.26462338 85.6892468,1.44851948 85.6601558,1.69163636 L85.5967792,2.22981818 L84.3521039,2.08748052 L84.401974,1.66046753 C84.5131429,0.720207792 85.3006753,0.0189090909 86.3136623,0.134233766 L87.948987,0.321246753 C88.9256104,0.432415584 89.6341818,1.1441039 89.5209351,2.10825974 L89.4637922,2.59553247 C89.2393766,4.49890909 85.5261299,4.81787013 85.2227532,6.03241558 L89.0554805,6.47085714 L88.9224935,7.60436364 L83.7713247,7.01631169 Z" id="Fill-35"></path>
                    <path d="M96.7467013,8.91968831 L95.5363117,8.59241558 C95.4656623,8.57267532 95.4303377,8.51241558 95.448,8.44072727 L95.7628052,7.22825974 C95.7815065,7.15657143 95.8417662,7.12228571 95.9124156,7.14098701 L97.1228052,7.4692987 C97.1934545,7.48696104 97.2298182,7.54825974 97.2111169,7.61994805 L96.8963117,8.83241558 C96.8776104,8.9041039 96.8163117,8.93942857 96.7467013,8.91968831" id="Fill-37"></path>
                    <path d="M108.022545,8.21350649 C107.384623,8.44311688 106.443325,8.73506494 106.179429,9.38441558 L105.325403,11.4768831 L104.142026,10.9937662 L104.982545,8.93350649 C105.696312,7.18285714 108.454753,7.2212987 108.778909,6.42545455 L105.264104,4.98857143 L105.695273,3.93194805 L110.369558,5.84155844 C110.369558,5.84155844 110.220987,6.46805195 110.112935,6.73194805 C109.775273,7.56207792 108.837091,7.90909091 108.022545,8.21350649" id="Fill-39"></path>
                    <polygon id="Fill-41" points="113.463896 14.9545974 114.017662 14.0112208 114.991169 14.5868052 117.116883 10.9629091 116.409351 11.1010909 116.120519 10.0881039 118.245195 9.50420779 119.101299 10.0091429 116.048831 15.2122597 117.043117 15.8003117 116.489351 16.7447273"></polygon>
                    <path d="M124.640312,22.1908571 L123.195117,21.0272208 C122.410701,20.3955325 122.275636,19.3877403 122.877195,18.6407273 L123.192,18.249039 L124.149922,19.0189091 L123.795636,19.4594286 C123.64187,19.6516364 123.673039,19.9446234 123.845506,20.0838442 L125.423688,21.3544935 C125.596156,21.4937143 125.890182,21.4615065 126.044987,21.2703377 L126.976935,20.1129351 C127.208623,19.8261818 127.174338,19.5144935 126.973818,19.3524156 L124.244468,17.2183896 L126.515636,14.5513766 L130.190442,17.5103377 L129.473558,18.4017662 L126.718234,16.1815065 L125.917195,17.0989091 L127.556675,18.355013 C128.423169,19.022026 128.518753,20.1555325 127.918234,20.9025455 L127.040312,21.9934545 C126.438753,22.7394286 125.424727,22.8225455 124.640312,22.1908571" id="Fill-43"></path>
                    <path d="M136.207896,27.2334545 C135.536727,27.1628052 134.567377,27.0131948 134.047896,27.4828052 L132.373091,29.0017662 L131.525299,28.046961 L133.173091,26.553974 C134.574649,25.2822857 137.025558,26.5248831 137.661403,25.9482597 L135.142961,23.1087792 L135.989714,22.342026 L139.341403,26.1196883 C139.341403,26.1196883 138.932052,26.6204675 138.722182,26.8105974 C138.058286,27.4121558 137.069195,27.3155325 136.207896,27.2334545" id="Fill-45"></path>
                    <path d="M145.893922,31.6541299 C145.934442,31.6260779 145.946909,31.5564675 145.911584,31.5065974 L145.512623,30.9320519 C145.477299,30.8811429 145.409766,30.8686753 145.369247,30.8967273 L144.784312,31.302961 C144.733403,31.3382857 144.731325,31.3995844 144.766649,31.4504935 L145.16561,32.025039 C145.200935,32.0759481 145.258078,32.0967273 145.308987,32.0603636 L145.893922,31.6541299 Z M144.627429,32.4146494 L144.214961,31.8182857 C143.977039,31.4754286 144.060156,31.0130909 144.403013,30.7751688 L144.998338,30.3616623 C145.341195,30.1216623 145.812883,30.1995844 146.050805,30.5424416 L146.463273,31.1388052 C146.701195,31.4816623 146.614961,31.9606234 146.272104,32.1985455 L145.676779,32.6120519 C145.333922,32.851013 144.865351,32.7575065 144.627429,32.4146494 Z" id="Fill-47"></path>
                    <path d="M144.106701,45.0763636 L143.223584,43.4025974 C142.752935,42.5111688 143.031377,41.5397403 143.883325,41.1002597 L144.287481,40.8914286 L144.860987,41.9781818 L144.402805,42.2150649 C144.183584,42.3272727 144.095273,42.6067532 144.19813,42.8031169 L145.162286,44.6285714 C145.265143,44.8238961 145.548779,44.9142857 145.766961,44.8 L146.585662,44.3781818 C147.229818,44.0457143 146.335273,42.8758442 145.932156,42.0602597 C145.500987,41.1636364 145.739948,40.1963636 146.602286,39.7506494 L147.312935,39.3838961 C148.163844,38.9454545 149.131117,39.2758442 149.600727,40.1662338 L150.415273,41.7101299 C150.884883,42.6005195 150.607481,43.5750649 149.755532,44.0145455 L149.339948,44.2285714 L148.766442,43.1418182 L149.236052,42.8987013 C149.454234,42.7864935 149.542545,42.505974 149.439688,42.3106494 L148.545143,40.6150649 C148.442286,40.4197403 148.158649,40.3303896 147.940468,40.4425974 L147.111377,40.8706494 C146.466182,41.2031169 147.361766,42.372987 147.774234,43.1833766 C148.211636,44.0633766 147.967481,45.0483117 147.105143,45.492987 L146.394494,45.8597403 C145.543584,46.2992208 144.576312,45.9667532 144.106701,45.0763636" id="Fill-49"></path>
                    <path d="M153.385766,62.3186494 L152.968104,60.3965714 C152.944208,60.2895584 153.007584,60.1752727 153.127065,60.1492987 L155.035636,59.7357922 C155.157195,59.7087792 155.273558,59.7846234 155.296416,59.8916364 L155.715117,61.8137143 C155.737974,61.9207273 155.664208,62.0370909 155.543688,62.0630649 L153.635117,62.4786494 C153.514597,62.5056623 153.409662,62.4267013 153.385766,62.3186494" id="Fill-51"></path>
                    <path d="M152.876987,81.7463896 L152.944519,79.9531429 C152.984,78.9474286 153.710234,78.2450909 154.668156,78.2928831 L155.171013,78.3167792 L155.12426,79.5448312 L154.560104,79.5167792 C154.314909,79.5053506 154.097766,79.7027532 154.089455,79.9240519 L154.014649,81.8887273 C154.006338,82.110026 154.207896,82.3292468 154.453091,82.3406753 L155.409974,82.3884675 C155.655169,82.4009351 155.83387,82.2378182 155.839065,82.1017143 L155.912831,80.163013 L157.091013,80.2201558 L157.017247,82.1598961 C157.011013,82.294961 157.177247,82.4757403 157.422442,82.4882078 L158.379325,82.536 C158.625558,82.5474286 158.841662,82.348987 158.851013,82.1287273 L158.924779,80.1640519 C158.933091,79.9437922 158.732571,79.7235325 158.486338,79.7110649 L157.824519,79.6788571 L157.871273,78.4508052 L158.471792,78.4798961 C159.429714,78.5276883 160.100883,79.3006753 160.062442,80.3063896 L159.994909,82.0996364 C159.956468,83.1053506 159.229195,83.8076883 158.271273,83.7598961 L157.449455,83.7193766 C157.020364,83.6985974 156.658805,83.5074286 156.385558,83.2372987 C156.09361,83.4804156 155.719584,83.6331429 155.289455,83.6123636 L154.467636,83.5718442 C153.509714,83.5240519 152.838545,82.7531429 152.876987,81.7463896" id="Fill-53"></path>
                    <path d="M154.065039,94.2687792 C154.305039,94.3196883 154.542961,94.1565714 154.589714,93.9404675 L155.096727,91.6100779 L153.725299,91.3222857 C153.48426,91.2713766 153.235948,91.4334545 153.189195,91.6495584 L152.77361,93.5570909 C152.726857,93.7731948 152.885818,94.0204675 153.126857,94.0713766 L154.065039,94.2687792 Z M151.673351,93.2381299 L152.052571,91.4978701 C152.265558,90.5243636 153.096727,89.9342338 154.047377,90.1347532 L155.33361,90.4048831 L156.500364,90.6521558 C158.219844,91.0137143 159.11439,92.5586494 158.774649,94.1181299 L158.567896,95.0677403 L157.451013,94.8308571 L157.649455,93.9186494 C157.845818,93.0189091 157.272312,92.0692987 156.346597,91.873974 L156.226078,91.849039 L155.737766,94.0942338 C155.522701,95.0781299 154.669714,95.6516364 153.732571,95.4542338 L152.926338,95.2848831 C151.988156,95.0864416 151.459325,94.222026 151.673351,93.2381299 Z" id="Fill-55"></path>
                    <path d="M149.295377,102.427221 L149.710961,101.244883 C149.735896,101.176312 149.798234,101.146182 149.867844,101.170078 L151.048104,101.591896 C151.117714,101.61787 151.147844,101.680208 151.122909,101.749818 L150.706286,102.931117 C150.68239,103.001766 150.620052,103.030857 150.550442,103.005922 L149.370182,102.584104 C149.30161,102.559169 149.271481,102.496831 149.295377,102.427221" id="Fill-57"></path>
                    <path d="M149.022961,113.735065 C148.85361,113.081558 148.653091,112.119481 148.030753,111.798442 L146.022442,110.760519 L146.618805,109.63013 L148.59387,110.651429 C150.275948,111.52 149.97361,114.253506 150.736208,114.648312 L152.507636,111.289351 L153.522701,111.815065 L151.166338,116.280519 C151.166338,116.280519 150.55439,116.074805 150.301922,115.944935 C149.505039,115.532468 149.249455,114.571429 149.022961,113.735065" id="Fill-59"></path>
                    <path d="M142.38587,122.765091 L142.812883,122.179117 C142.914701,122.040935 143.093403,122.004571 143.222234,122.099117 L143.78639,122.513662 C143.915221,122.608208 143.933922,122.788987 143.833143,122.928208 L143.405091,123.514182 C143.304312,123.652364 143.12561,123.690805 142.996779,123.595221 L142.432623,123.180675 C142.303792,123.08613 142.284052,122.903273 142.38587,122.765091 Z M143.840416,125.190026 C144.038857,125.336519 144.329766,125.291844 144.459636,125.113143 L145.691844,123.424831 C145.821714,123.24613 145.777039,122.954182 145.577558,122.807688 L142.409766,120.480416 C142.211325,120.333922 141.920416,120.379636 141.789506,120.559377 L140.559377,122.24561 C140.428468,122.424312 140.474182,122.71626 140.672623,122.862753 L143.840416,125.190026 Z M139.688727,121.499636 L140.819117,119.951584 C141.412364,119.137039 142.410805,118.95626 143.183792,119.524571 L146.253922,121.779117 C147.024831,122.347429 147.154701,123.35626 146.560416,124.171844 L145.432104,125.719896 C144.836779,126.533403 143.838338,126.714182 143.067429,126.147948 L139.997299,123.891325 C139.225351,123.324052 139.096519,122.314182 139.688727,121.499636 Z" id="Fill-61"></path>
                    <path d="M134.843325,127.928416 L135.489558,128.585039 C137.06774,130.187117 134.841247,133.459844 135.616312,134.248416 L135.926961,134.563221 C136.099429,134.738805 136.395532,134.741922 136.553455,134.586078 L137.819948,133.350753 C137.97787,133.195948 137.980987,132.900883 137.808519,132.726338 L137.42826,132.340883 L138.325922,131.465039 L138.62826,131.771532 C139.290078,132.446857 139.342026,133.495169 138.611636,134.207896 L137.434494,135.358026 C136.730078,136.044779 135.729558,136.147636 135.048,135.455688 L134.703065,135.105558 C133.358649,133.740364 135.452156,130.665039 134.694753,129.668675 L131.935273,132.364779 L131.134234,131.550234 L134.843325,127.928416 Z" id="Fill-63"></path>
                    <path d="M126.033455,141.230961 C126.175792,140.563948 126.425143,139.607065 126.016831,139.037714 L124.699429,137.199792 L125.732156,136.447584 L127.028779,138.255377 C128.131117,139.792 126.643325,142.123429 127.144104,142.82161 L130.212156,140.584727 L130.87813,141.512519 L126.79813,144.489143 C126.79813,144.489143 126.346182,144.027844 126.182026,143.799273 C125.65839,143.069922 125.859948,142.086026 126.033455,141.230961" id="Fill-65"></path>
                    <path d="M120.560623,150.384831 C120.583481,150.428468 120.651013,150.449247 120.706078,150.419117 L121.32426,150.092883 C121.379325,150.063792 121.400104,149.998338 121.376208,149.954701 L121.038545,149.327169 C121.009455,149.273143 120.949195,149.263792 120.89413,149.291844 L120.274909,149.620156 C120.220883,149.648208 120.19387,149.703273 120.224,149.757299 L120.560623,150.384831 Z M119.949714,149.040416 L120.590753,148.702753 C120.960623,148.507429 121.410494,148.644571 121.608935,149.013403 L121.951792,149.650286 C122.149195,150.019117 122.019325,150.47626 121.650494,150.670545 L121.009455,151.010286 C120.639584,151.204571 120.172052,151.062234 119.974649,150.694442 L119.630753,150.056519 C119.433351,149.687688 119.580883,149.23574 119.949714,149.040416 Z" id="Fill-67"></path>
                    <polygon id="Fill-69" points="110.706701 145.848519 113.254234 152.503065 108.936312 154.144623 108.526961 153.078649 111.69787 151.873455 111.03813 150.152935 108.580987 151.086961 108.163325 149.996052 110.621506 149.062026 109.966961 147.352935 106.797091 148.557091 106.388779 147.490078"></polygon>
                    <path d="M89.6951688,154.239377 L91.6421818,153.96613 C91.7512727,153.952623 91.8603636,154.023273 91.878026,154.144831 L92.1471169,156.079377 C92.1647792,156.201974 92.0806234,156.312104 91.9704935,156.326649 L90.0245195,156.598857 C89.9154286,156.614442 89.8032208,156.531325 89.7865974,156.409766 L89.5175065,154.47626 C89.5008831,154.353662 89.5871169,154.254961 89.6951688,154.239377" id="Fill-71"></path>
                </g>
                <path d="M80.2912208,16.2036364 C45.2740779,16.2036364 16.7857662,44.6919481 16.7857662,79.7090909 C16.7857662,114.726234 45.2740779,143.214545 80.2912208,143.214545 C115.308364,143.214545 143.796675,114.726234 143.796675,79.7090909 C143.796675,44.6919481 115.308364,16.2036364 80.2912208,16.2036364 M80.2912208,145.239481 C44.1571948,145.239481 14.7597922,115.843117 14.7597922,79.7090909 C14.7597922,43.5750649 44.1571948,14.1787013 80.2912208,14.1787013 C116.425247,14.1787013 145.822649,43.5750649 145.822649,79.7090909 C145.822649,115.843117 116.425247,145.239481 80.2912208,145.239481" id="Fill-74"></path>
                <path d="M69.5987532,51.9513766 L69.6091429,51.9513766 L69.5987532,51.9513766 Z M86.273039,110.492675 C86.539013,110.492675 86.806026,110.546701 87.0553766,110.655792 L87.8636883,111.009039 C88.3239481,111.207481 88.7156364,111.560727 88.9639481,112.002286 L89.1727792,112.374234 L97.6621299,111.57839 L97.7712208,111.206442 C98.1431688,109.925403 99.4958961,109.169039 100.787325,109.523325 L102.569143,110.016831 L107.094857,109.046442 L113.448104,105.495273 L111.303688,104.118649 C110.331221,103.493195 109.635117,102.486442 109.395117,101.353974 L106.758234,88.9654026 C106.728104,88.8272208 106.728104,88.6838442 106.757195,88.5467013 L107.054338,87.1295584 C107.277714,86.0656623 107.776416,85.0744935 108.495377,84.2599481 L105.523948,81.5274805 C104.935896,80.9872208 104.543169,80.2859221 104.388364,79.5015065 L104.091221,77.9711169 C103.942649,77.2105974 103.993558,76.4147532 104.239792,75.6729351 L106.263688,69.5783896 L96.724987,62.5238442 C96.3353766,62.235013 96.2044675,61.7124156 96.4122597,61.275013 L96.8029091,60.4511169 C96.9878442,60.0615065 96.8486234,59.6022857 96.4777143,59.3841039 L75.313039,46.9092987 L71.2434286,51.6012468 L72.7353766,51.6012468 C73.2953766,51.6012468 73.7483636,52.0552727 73.7483636,52.6142338 L73.7483636,53.3072208 C73.7483636,53.6147532 73.6081039,53.9056623 73.3681039,54.0978701 L71.9000519,55.2718961 C71.2205714,55.8163117 70.3416104,56.020987 69.4896623,55.8318961 L67.6444675,55.4215065 L66.9629091,55.9254026 C66.617974,56.182026 66.1504416,56.1913766 65.7940779,55.9524156 L64.2553766,54.9165714 L63.2361558,54.9165714 L63.2361558,55.3861818 C63.2361558,55.7903377 62.9961558,56.1560519 62.6252468,56.3160519 L61.0408312,56.9986494 C60.5629091,57.1981299 60.0351169,57.1492987 59.6164156,56.8698182 C59.2008312,56.5986494 58.9462857,56.129039 58.9462857,55.6189091 L58.9462857,54.9903377 L58.2210909,54.0531948 C58.030961,53.806961 57.9644675,53.486961 58.0403117,53.1846234 L59.4335584,47.6874805 L59.4335584,46.6215065 L53.8636883,46.6215065 L53.7556364,46.6838442 C54.2636883,46.6848831 54.6917403,47.060987 54.7582338,47.5648831 L55.4075844,52.5383896 C55.550961,53.5783896 54.9234286,54.5695584 53.9156364,54.8854026 L52.7686234,55.2459221 L52.6501818,57.0651429 L53.3483636,57.0651429 C54.1732987,57.0651429 54.8444675,57.7352727 54.8444675,58.5612468 L54.8444675,59.4443636 C54.8444675,59.6313766 54.7935584,59.8142338 54.6948571,59.9742338 L50.7925195,66.3357922 C50.7010909,66.4854026 50.5712208,66.609039 50.4174545,66.6931948 L47.5270649,68.2796883 L47.5270649,69.2594286 L48.513039,70.8282597 C48.5795325,70.9342338 48.6252468,71.0526753 48.6491429,71.1763117 L49.3961558,75.0672208 C49.6600519,75.9586494 49.390961,76.928 48.699013,77.5565714 L48.6397922,77.6105974 L48.6397922,78.8334545 C48.6397922,78.9674805 48.7301818,79.0817662 48.859013,79.113974 L50.2678442,79.4578701 C50.4777143,79.5087792 50.6647273,79.6261818 50.8039481,79.7913766 L53.4969351,83.0111169 C53.5665455,83.0952727 53.6226494,83.1877403 53.6621299,83.2895584 L57.4262857,92.8386494 L73.0158961,99.2448831 L73.0158961,98.7648831 C73.0158961,98.3638442 73.2517403,98.0012468 73.6174545,97.8391688 C73.9831688,97.6760519 74.4112208,97.7446234 74.7073247,98.0126753 L77.630961,100.652675 C78.6553766,101.576312 79.2808312,102.843844 79.393039,104.221506 L79.8148571,109.444364 L81.4865455,111.568 L83.9353766,111.568 L85.2704416,110.770078 C85.5758961,110.587221 85.9239481,110.492675 86.273039,110.492675 Z M89.2538182,114.444883 C88.4943377,114.444883 87.7868052,114.038649 87.4096623,113.369558 L87.1977143,112.994494 C87.1655065,112.937351 87.1156364,112.892675 87.0574545,112.86774 L86.2439481,112.512416 L84.7343377,113.449558 C84.5774545,113.544104 84.3987532,113.592935 84.2148571,113.592935 L80.9951169,113.592935 C80.6844675,113.592935 80.3914805,113.450597 80.1992727,113.207481 L78.033039,110.45839 C77.9104416,110.300468 77.8356364,110.111377 77.8200519,109.911896 L77.3732987,104.384623 C77.3036883,103.525403 76.913039,102.733714 76.2740779,102.156052 L75.0086234,101.014234 C74.9462857,101.250078 74.8008312,101.45787 74.593039,101.597091 C74.3114805,101.785143 73.9551169,101.822545 73.6444675,101.692675 L56.2574545,94.5487792 C56.0018701,94.4438442 55.8013506,94.2402078 55.6995325,93.9835844 L51.8377143,84.1851429 L49.4636883,81.3467013 L48.3800519,81.0817662 C47.3410909,80.8303377 46.6138182,79.9056623 46.6138182,78.8334545 L46.6138182,77.1638442 C46.6138182,76.8781299 46.7343377,76.6059221 46.9442078,76.4147532 L47.3358961,76.0573506 C47.4553766,75.9492987 47.5000519,75.782026 47.4501818,75.6303377 C47.4366753,75.5898182 47.4252468,75.5472208 47.4169351,75.5046234 L46.6958961,71.7446234 L45.6569351,70.0905974 C45.5551169,69.9295584 45.5010909,69.7425455 45.5010909,69.5513766 L45.5010909,67.6802078 C45.5010909,67.3103377 45.7026494,66.9695584 46.0268052,66.7918961 L49.2070649,65.0464416 L52.8184935,59.0900779 L52.4787532,59.0900779 C51.9644675,59.0900779 51.4688831,58.8760519 51.1177143,58.502026 C50.7655065,58.1238442 50.5836883,57.6147532 50.6169351,57.1015065 L50.7582338,54.9352727 C50.804987,54.2048831 51.2870649,53.5877403 51.9883636,53.3674805 L53.3078442,52.9529351 C53.3681039,52.9342338 53.4086234,52.8718961 53.3992727,52.8074805 L52.8642078,48.7067013 C52.5203117,48.6828052 52.2096623,48.4854026 52.0434286,48.1789091 L51.3317403,46.8677403 C51.0678442,46.3825455 51.2423896,45.7747532 51.7244675,45.5025455 L53.1000519,44.7264416 C53.2517403,44.6412468 53.4231688,44.5965714 53.5977143,44.5965714 L59.5686234,44.5965714 C60.6117403,44.5965714 61.4595325,45.4443636 61.4595325,46.4874805 L61.4595325,47.8142338 C61.4595325,47.8983896 61.4491429,47.9815065 61.4283636,48.0625455 L60.1255065,53.2043636 L60.7603117,54.0241039 C60.8974545,54.2017662 60.9722597,54.4199481 60.9722597,54.6443636 L60.9722597,54.822026 L61.2101818,54.7191688 L61.2101818,53.9035844 C61.2101818,53.3446234 61.6642078,52.8905974 62.2231688,52.8905974 L64.5639481,52.8905974 C64.7655065,52.8905974 64.9629091,52.9508571 65.1301818,53.0630649 L66.3312208,53.8724156 L66.8091429,53.5181299 C67.044987,53.3415065 67.3452468,53.2781299 67.633039,53.3425455 L69.9281039,53.8537143 C70.1764156,53.9108571 70.4351169,53.8474805 70.6345974,53.6905974 L70.7135584,53.6261818 L69.5987532,53.6261818 C69.0387532,53.6261818 68.5857662,53.1731948 68.5857662,52.6142338 L68.5857662,51.9513766 C68.5857662,51.7082597 68.6740779,51.4713766 68.8340779,51.2874805 L74.3364156,44.9456623 C74.6553766,44.5768312 75.1956364,44.4885195 75.6153766,44.7368312 L97.5052468,57.6396883 C98.7873247,58.3929351 99.2725195,59.9763117 98.6335584,61.3207273 L98.6003117,61.3903377 L108.059013,68.3856623 C108.411221,68.6464416 108.555636,69.1046234 108.417455,69.5202078 L106.16187,76.3108571 C106.025766,76.7222857 105.997714,77.1628052 106.079792,77.5835844 L106.376935,79.1129351 C106.447584,79.4682597 106.626286,79.7892987 106.894338,80.0355325 L110.600312,83.4422857 C111.006545,83.8163117 111.038753,84.446961 110.672,84.8604675 L110.025766,85.5877403 C109.531221,86.1425455 109.189403,86.820987 109.036675,87.5461818 L108.784208,88.7524156 L111.376416,100.933195 C111.505247,101.539948 111.877195,102.079169 112.398753,102.413714 L115.964468,104.702545 C116.263688,104.894753 116.440312,105.230338 116.429922,105.585662 C116.418494,105.942026 116.22213,106.265143 115.911481,106.438649 L107.950961,110.889558 C107.862649,110.93839 107.767065,110.974753 107.668364,110.995532 L102.749922,112.050078 C102.588883,112.084364 102.423688,112.07813 102.267844,112.035532 L100.248104,111.476571 C100.023688,111.416312 99.7816104,111.54826 99.7151169,111.774753 L99.4127792,112.807481 C99.2964156,113.203325 98.9514805,113.489039 98.5410909,113.530597 L89.4616104,114.435532 C89.392,114.441766 89.3223896,114.444883 89.2538182,114.444883 Z" id="Fill-76"></path>
            </g>
        </g>
    </g>
</svg>