<?xml version="1.0" encoding="UTF-8"?>
<svg width="160px" height="161px" viewBox="0 0 160 161" version="1.1" xmlns="http://www.w3.org/2000/svg" xmlns:xlink="http://www.w3.org/1999/xlink">
    <!-- Generator: Sketch 51.1 (57501) - http://www.bohemiancoding.com/sketch -->
    <title>Artboard</title>
    <desc>Created with Sketch.</desc>
    <defs>
        <polygon id="path-1" points="0.0833523864 0.154771242 5.80907267 0.154771242 5.80907267 7.49582883 0.0833523864 7.49582883"></polygon>
        <polygon id="path-3" points="0 0.202558443 7.27508497 0.202558443 7.27508497 6.28653595 0 6.28653595"></polygon>
    </defs>
    <g id="Artboard" stroke="none" stroke-width="1" fill="none" fill-rule="evenodd">
        <g id="emblem-philippines">
            <path d="M152.177255,43.4405763 L152.824575,43.1320796 C152.869542,43.1101188 152.935425,43.1341711 152.961569,43.1916874 L153.259608,43.8285502 C153.285752,43.883975 153.261699,43.9509031 153.216732,43.9718181 L152.569412,44.2803149 C152.512941,44.3064587 152.458562,44.2782234 152.432418,44.220707 L152.134379,43.5838443 C152.109281,43.5263279 152.120784,43.4667201 152.177255,43.4405763 Z M151.835294,44.5187462 C152.013072,44.9004456 152.460654,45.0709031 152.841307,44.8910338 L153.500131,44.5783541 C153.879739,44.3963933 154.044967,43.9352168 153.86719,43.5524717 L153.558693,42.8915567 C153.380915,42.5109031 152.928105,42.3582234 152.547451,42.5380927 L151.888627,42.8507724 C151.507974,43.0316874 151.34902,43.4771776 151.525752,43.8567855 L151.835294,44.5187462 Z" id="Fill-2" fill="#FFFFFF" fill-rule="nonzero"></path>
            <polygon id="Fill-4" fill="#FFFFFF" fill-rule="nonzero" points="18.1832157 41.0977789 17.2085752 40.4891515 15.5050458 43.2175175 10.3975948 40.027975 9.71681046 41.118694 15.7999477 44.9168639"></polygon>
            <polygon id="Fill-6" fill="#FFFFFF" fill-rule="nonzero" points="16.8259346 32.4325763 20.6523399 35.5280012 20.0008366 36.3363672 20.875085 37.044341 22.9697255 34.4446025 22.0944314 33.7366286 21.4345621 34.5554521 17.6092026 31.4589815 18.2690719 30.6412038 17.392732 29.9332299 15.2991373 32.5340142 16.1744314 33.2409423"></polygon>
            <g id="Group" transform="translate(36.713365, 9.378769)" fill="#FFFFFF" fill-rule="nonzero">
                <polygon id="Fill-6" transform="translate(5.134431, 4.488785) rotate(14.000000) translate(-5.134431, -4.488785) " points="2.8259346 3.4325763 6.6523399 6.5280012 6.0008366 7.3363672 6.875085 8.044341 8.9697255 5.4446025 8.0944314 4.7366286 7.4345621 5.5554521 3.6092026 2.4589815 4.2690719 1.6412038 3.392732 0.9332299 1.2991373 3.5340142 2.1744314 4.2409423"></polygon>
            </g>
            <path d="M22.943268,25.3032691 L24.5976471,23.6875828 C24.7566013,23.5328116 25.052549,23.5369946 25.2240523,23.7158181 L25.9163399,24.4394783 C26.0794771,24.6099358 26.0721569,24.907975 25.9132026,25.063792 L24.2588235,26.6784325 L22.943268,25.3032691 Z M27.1231373,29.6734652 L25.0546405,27.5098051 L26.6473203,25.9547724 C27.3720261,25.2457528 27.4075817,24.2104587 26.7414379,23.5129423 L26.1673203,22.9147724 C25.5011765,22.2183018 24.4836601,22.2266678 23.7579085,22.9346417 L21.2805229,25.354511 L26.2384314,30.5372561 L27.1231373,29.6734652 Z" id="Fill-8" fill="#FFFFFF" fill-rule="nonzero"></path>
            <path d="M31.0896732,17.9442103 L32.9584314,16.5815959 C33.1383007,16.450877 33.4300654,16.4979358 33.5754248,16.6987201 L34.1620915,17.5112691 C34.2980392,17.7015959 34.2509804,17.9954521 34.0721569,18.1261711 L32.2023529,19.4887855 L31.0896732,17.9442103 Z M34.6253595,22.8498312 L32.8768627,20.4226417 L34.6745098,19.1112691 C35.4933333,18.5141449 35.6732026,17.4934913 35.1095425,16.7123149 L34.6253595,16.0388508 C34.0616993,15.2566286 33.048366,15.1238181 32.2295425,15.7198966 L29.4332026,17.760158 L33.6266667,23.5797659 L34.6253595,22.8498312 Z" id="Fill-10" fill="#FFFFFF" fill-rule="nonzero"></path>
            <path d="M154.848837,69.9744325 L155.024523,71.9456744 C155.033935,72.0554783 155.129098,72.1454129 155.252497,72.1328639 L157.209098,71.9362626 C157.331451,71.9237136 157.421386,71.8160012 157.411974,71.7041057 L157.236288,69.7339096 C157.226876,69.6220142 157.119163,69.5331253 156.99681,69.5456744 L155.040209,69.7422757 C154.915765,69.7548247 154.839425,69.8625371 154.848837,69.9744325" id="Fill-12" fill="#FFFFFF" fill-rule="nonzero"></path>
            <path d="M112.465255,14.8620665 C112.530092,14.8965763 112.59702,14.876707 112.631529,14.8108247 L113.211922,13.6918704 C113.246431,13.6238966 113.224471,13.5569685 113.159634,13.5245502 L112.042771,12.9337005 C111.977935,12.8991907 111.911007,12.9201057 111.876497,12.9870338 L111.296105,14.1059881 C111.262641,14.1739619 111.283556,14.2387985 111.349438,14.2743541 L112.465255,14.8620665 Z" id="Fill-14" fill="#FFFFFF" fill-rule="nonzero"></path>
            <path d="M145.082771,113.475295 L144.465778,114.576472 C144.431268,114.640263 144.450092,114.708236 144.514928,114.743792 L145.619242,115.352419 C145.684078,115.389021 145.752052,115.369151 145.787608,115.304315 L146.403556,114.202093 C146.439111,114.138302 146.420288,114.071374 146.355451,114.034772 L145.250092,113.426145 C145.185255,113.390589 145.118327,113.410459 145.082771,113.475295" id="Fill-16" fill="#FFFFFF" fill-rule="nonzero"></path>
            <path d="M103.275085,9.28413187 L103.771817,7.96439331 L106.013908,8.81877239 C106.222013,8.89615801 106.348549,9.15759592 106.260706,9.38870703 L105.921882,10.2911907 C105.834039,10.5223018 105.56319,10.6446547 105.355085,10.5651776 L103.517699,9.86661553 C103.309595,9.78818416 103.187242,9.51733448 103.275085,9.28413187 M103.193516,10.9730208 L104.869856,11.6109293 C105.818353,11.9717136 106.759529,11.5753737 107.099399,10.67289 L107.392209,9.89694233 C107.732078,8.99445867 107.289725,8.05851095 106.342275,7.69877239 L104.180706,6.87576586 L104.223582,6.76177893 C104.560314,5.87079854 105.592471,5.44204037 106.459399,5.77354363 L107.33783,6.10609265 L107.74149,5.03001422 L106.829595,4.68282468 C105.32685,4.11289004 103.651556,4.77066782 103.029333,6.42713841 L102.605804,7.55027566 L102.140444,8.78739984 C101.796392,9.70243252 102.256523,10.6174652 103.193516,10.9730208" id="Fill-18" fill="#FFFFFF" fill-rule="nonzero"></path>
            <polygon id="Fill-20" fill="#FFFFFF" fill-rule="nonzero" points="50.5545621 13.2505632 48.6952157 8.42860246 52.4526013 10.2011515 53.2358693 12.2309554 54.4144314 11.7844195 51.8356078 5.09056324 50.656 5.54023644 51.8167843 8.5509554 47.788549 6.6288639 46.795085 7.00638024 49.376 13.7002364"></polygon>
            <path d="M136.45532,30.5177005 C136.995974,30.0659358 137.974797,30.2458051 138.65349,30.3399227 C139.523556,30.4507724 140.52434,30.5814913 141.217673,30.0021449 C141.436235,29.8191384 141.866039,29.3318181 141.866039,29.3318181 L138.583425,25.4499881 L137.70081,26.1882887 L140.168784,29.1059358 C139.504732,29.6612299 137.057673,28.3383541 135.596758,29.559792 L133.878588,30.995609 L134.708915,31.9775698 L136.45532,30.5177005 Z" id="Fill-22" fill="#FFFFFF" fill-rule="nonzero"></path>
            <path d="M120.007111,15.5760012 L120.146196,15.3720796 L123.014693,14.848158 L121.714824,16.759792 L120.007111,15.5760012 Z M120.039529,19.2246286 L121.074824,19.94306 L122.096523,18.4392691 L122.78881,18.9192691 L123.442405,17.9571776 L122.750118,17.4782234 L125.107242,14.0115567 L124.234039,13.4060665 L119.374431,14.3095959 L118.337046,15.8332561 L121.061229,17.7218835 L120.039529,19.2246286 Z" id="Fill-24" fill="#FFFFFF" fill-rule="nonzero"></path>
            <path d="M129.651765,21.2233737 C129.48549,21.0759227 129.468758,20.779975 129.627712,20.6063802 L130.276078,19.8931776 C130.442353,19.7101711 130.740392,19.6934391 130.906667,19.8419358 L132.395817,21.1616744 C132.562092,21.3101711 132.578824,21.605073 132.412549,21.7880796 L131.464052,22.8317397 L129.651765,21.2233737 Z M131.598954,24.5216744 L132.406275,23.634877 L133.295163,22.6550077 C133.952941,21.9313476 133.863007,20.927426 133.104837,20.2539619 L131.745359,19.0471645 C130.986144,18.3747462 129.957124,18.4040273 129.308758,19.1172299 L128.752418,19.7310861 C128.104052,20.4453345 128.177255,21.4680796 128.935425,22.1415436 L130.682876,23.6923933 L130.599216,23.7833737 C129.959216,24.4892561 128.843399,24.5227201 128.140654,23.8994521 L127.437908,23.2761842 L126.664052,24.127426 L127.393987,24.7747462 C128.596601,25.8424587 130.41098,25.8309554 131.598954,24.5216744 Z" id="Fill-26" fill="#FFFFFF" fill-rule="nonzero"></path>
            <g id="Group-30" transform="translate(67.973856, 0.327792)">
                <g id="Fill-28-Clipped">
                    <mask id="mask-2" fill="white">
                        <use xlink:href="#path-1"></use>
                    </mask>
                    <g id="path-1"></g>
                    <path d="M2.07518954,4.45469281 C2.98813072,4.39822222 4.4176732,4.02279739 4.48669281,4.74959477 L4.5734902,5.67299346 C4.59649673,5.9187451 4.40616993,6.14671895 4.18551634,6.16658824 L2.1149281,6.34959477 C1.89322876,6.3705098 1.6652549,6.17913725 1.64224837,5.93338562 L1.59414379,5.41573856 L0.361202614,5.52449673 L0.404078431,5.98044444 C0.494013072,6.9414902 1.30028758,7.57730719 2.31048366,7.48737255 L4.20643137,7.31900654 C5.2176732,7.2290719 5.8900915,6.46253595 5.80120261,5.5014902 L5.72486275,4.70044444 C5.6328366,3.72998693 4.80564706,3.12031373 3.81636601,3.18201307 C2.90447059,3.25103268 1.4749281,3.62750327 1.4059085,2.90070588 L1.31806536,1.96475817 C1.29505882,1.71900654 1.48538562,1.48998693 1.70603922,1.47011765 L3.62708497,1.29966013 C3.84983007,1.2808366 4.07884967,1.47011765 4.10185621,1.71691503 L4.15100654,2.24606536 L5.38290196,2.13626144 L5.33898039,1.66881046 C5.24904575,0.708810458 4.44381699,0.0740392157 3.43362092,0.162928105 L1.68512418,0.318745098 C0.673882353,0.407633987 0.00146405229,1.17521569 0.0913986928,2.13521569 L0.16669281,2.93521569 C0.258718954,3.90881046 1.07231373,4.50593464 2.07518954,4.45469281" id="Fill-28" fill="#FFFFFF" fill-rule="nonzero" mask="url(#mask-2)"></path>
                </g>
            </g>
            <path d="M87.156915,4.99487697 L89.1166536,5.26990965 C89.2264575,5.28455017 89.3362614,5.21343906 89.3529935,5.09108612 L89.6133856,3.14285082 C89.6301176,3.01736063 89.5454118,2.90755671 89.4356078,2.89187043 L87.4748235,2.6178835 C87.3639739,2.60219723 87.2541699,2.68585736 87.2374379,2.80925605 L86.976,4.75749135 C86.9603137,4.88089004 87.0471111,4.97919069 87.156915,4.99487697" id="Fill-31" fill="#FFFFFF" fill-rule="nonzero"></path>
            <polygon id="Fill-33" fill="#FFFFFF" fill-rule="nonzero" points="63.705098 9.01443252 63.4426144 7.89443252 60.1265359 8.70384429 59.7061438 6.91038024 62.2776471 6.28292925 62.0088889 5.13783122 59.4373856 5.76632795 59.014902 3.96031488 62.3309804 3.15090311 62.0684967 2.03090311 57.5508497 3.13417108 59.1884967 10.1177005"></polygon>
            <path d="M142.921725,37.1864587 L145.77349,37.8557397 L143.810614,39.0813606 L142.711529,37.3182234 L142.921725,37.1864587 Z M142.824471,39.6952168 L141.283033,40.6573083 L141.950222,41.728158 L143.492706,40.7660665 L143.938196,41.4792691 L144.923294,40.8643672 L144.477804,40.1511645 L148.034405,37.9310338 L147.471791,37.0285502 L142.633098,35.9085502 L141.069699,36.8852822 L142.824471,39.6952168 Z" id="Fill-35" fill="#FFFFFF" fill-rule="nonzero"></path>
            <path d="M49.3841569,153.478328 L47.1661176,152.443034 C46.9757908,152.354145 46.8743529,152.046694 46.9831111,151.810354 L47.3438954,151.037544 C47.5258562,150.644341 47.6795817,150.58055 48.0936993,150.772968 L50.1893856,151.751792 L49.3841569,153.478328 Z M50.6892549,150.674668 L48.5381438,149.6697 C48.1815425,149.50238 48.1376209,149.332968 48.3300392,148.918851 L49.3433725,146.743687 L48.1993203,146.210354 L47.1190588,148.530877 C46.8837647,149.034929 46.9841569,149.436498 47.1169673,149.675975 C46.8492549,149.754406 46.461281,149.942642 46.2061176,150.493753 L45.8767059,151.198589 C45.4699085,152.072838 45.8442876,153.025517 46.7624575,153.455321 L50.0346144,154.982119 L53.0631111,148.480681 L51.9535686,147.963034 L50.6892549,150.674668 Z" id="Fill-37" fill="#FFFFFF" fill-rule="nonzero"></path>
            <path d="M135.474928,132.249779 L136.925386,130.764812 L137.105255,130.936315 L137.141856,133.852916 L135.474928,132.249779 Z M136.951529,129.073831 L134.636235,131.44455 L133.325908,130.184419 L132.446431,131.087949 L133.754667,132.34808 L133.166954,132.949387 L134.005647,133.754616 L134.593359,133.152263 L137.614536,136.059452 L138.35702,135.299191 L138.279634,130.350694 L136.951529,129.073831 Z" id="Fill-39" fill="#FFFFFF" fill-rule="nonzero"></path>
            <path d="M112.619503,90.0847593 L111.531922,90.5438443 C110.288523,91.0709031 109.450876,92.2327332 109.343163,93.5733868 L108.924863,98.7205763 L108.014013,93.6486809 C107.952314,93.3098574 107.723294,93.0243672 107.405386,92.890511 L106.603294,92.5527332 L104.556758,86.6086809 C104.319373,85.9111645 103.754667,85.3694652 103.055059,85.1613606 C102.352314,84.9480273 101.584732,85.0892038 100.999111,85.538877 L100.147869,86.1977005 C99.4995033,86.6975698 99.1659085,87.5132561 99.2757124,88.3320796 L99.3949281,89.1760012 C99.4221176,89.3684195 99.3666928,89.5671123 99.2432941,89.719792 L96.8673464,92.6667201 C95.0310065,94.9401842 95.0717908,98.2071123 96.9646013,100.433517 L99.2663007,103.14306 C99.5894379,103.523714 99.7672157,104.006851 99.7672157,104.504629 L99.7672157,107.71404 C99.7672157,108.188812 99.6040784,108.655217 99.3081307,109.025413 L96.0683922,113.176001 L94.5018562,111.173387 L95.2589804,107.582276 C95.4315294,106.763452 95.0320523,105.926851 94.2916601,105.552472 L93.6610719,105.228289 C92.7585882,104.769204 91.6448627,105.122668 91.1753203,106.016785 L89.9402876,108.371818 C89.7896993,108.658354 89.4529673,108.775478 89.1570196,108.651034 L79.180549,104.403191 C77.8859085,103.85208 76.9175425,102.705936 76.591268,101.338093 L75.172183,95.3950861 C75.1188497,95.1692038 74.9902222,94.9694652 74.8061699,94.8261972 L74.1808105,94.3409685 L75.2694379,90.2343018 L76.5201569,89.6319489 C76.6916601,89.5493345 76.8359739,89.420707 76.9384575,89.2617528 L78.8061699,86.3336482 C78.9431634,86.1182234 78.995451,85.8599227 78.9504837,85.6089423 L78.7570196,84.5140404 C78.671268,84.0256744 78.2487843,83.6711645 77.753098,83.6711645 L76.9781961,83.6711645 L75.4649935,80.8612299 C75.3426405,80.6343018 75.1397647,80.4627985 74.8971503,80.3791384 L70.700549,78.9454129 L69.1465621,77.547243 C68.5891765,77.0452822 67.8393725,76.7932561 67.0958431,76.8685502 L65.4466928,77.0233214 C64.8234248,77.0818835 64.2681307,77.4416221 63.963817,77.9791384 C63.6950588,78.4444979 63.6364967,78.9966547 63.795451,79.5017528 L63.795451,81.1174391 L62.0093072,81.6162626 C61.9298301,81.6350861 61.8608105,81.6037136 61.8252549,81.538877 L60.7962353,79.6052822 C60.4877386,79.0238443 59.8728366,78.692341 59.2140131,78.7446286 C58.5604183,78.8021449 58.0061699,79.2455436 57.8032941,79.8761319 L56.7230327,83.30306 L55.664732,83.5414913 L55.1815948,80.0685502 C55.0310065,79.0029293 54.1055163,78.2008378 53.0315294,78.2008378 L50.8981961,78.2008378 C50.0668235,78.2008378 49.2971503,78.6871123 48.936366,79.4410992 L43.4168889,91.0750861 C43.3311373,91.2560012 43.172183,91.3961319 42.9860392,91.4578312 C42.7936209,91.5247593 42.5844706,91.5027985 42.4056471,91.4097266 L41.4425098,90.8983541 C41.1308758,90.7331253 40.9802876,90.3671123 41.0848627,90.0282887 L44.3695686,79.5017528 C45.0252549,77.3987462 46.7664314,75.787243 48.915451,75.2957397 L55.6281307,73.7626678 C57.1664314,73.4112953 58.3313987,72.1804456 58.5959739,70.6264587 L58.9253856,68.6897266 C59.0655163,67.8771776 59.7076078,67.2643672 60.5264314,67.1650208 L67.020549,66.3754783 C67.9491765,66.2635828 68.8140131,66.860707 69.0388497,67.7652822 L69.8200261,70.9244979 C70.2529673,72.6625371 71.9711373,73.7658051 73.732183,73.4343018 L75.8770196,73.0275044 C77.1423791,72.7911645 78.1766275,71.8353476 78.5144052,70.5940404 L79.4733595,67.0782234 C79.5057778,66.9610992 79.5936209,66.8680273 79.7086536,66.8303802 L81.1632941,66.3618835 C81.2333595,66.3399227 81.3128366,66.3545632 81.3703529,66.4016221 L83.6406797,68.2160012 C84.3883922,68.8120796 85.4801569,68.7294652 86.1295686,68.0214913 L86.7068235,67.3877659 C87.0696993,66.9935175 87.2694379,66.4800534 87.2694379,65.9414913 L87.2401569,60.2850208 L87.6626405,59.9901188 L89.8409412,61.850511 C90.7978039,62.6693345 92.1583268,62.7728639 93.2249935,62.1077659 L96.9938824,59.7673737 C98.4286536,58.8763933 99.1732288,57.1655436 98.8469542,55.509073 L97.3661699,47.9608378 C97.3483922,47.8740404 97.3839477,47.7851515 97.4571503,47.7328639 C97.5293072,47.6816221 97.6276078,47.6795306 97.6997647,47.7203149 L103.622902,51.14306 L109.555451,58.8063279 L110.143163,60.9469815 C110.210092,61.1895959 110.11702,61.4510338 109.913098,61.5953476 L107.222379,63.4829293 C106.633621,63.8939096 106.283294,64.570511 106.283294,65.2899881 L106.283294,65.7051515 C106.283294,66.3106417 106.536366,66.8952168 106.976627,67.3124717 L110.75702,70.8669815 C111.563294,71.6261972 111.910484,72.7650208 111.664732,73.8431907 L111.219242,75.7935175 C110.900288,77.1822757 111.423163,78.6452822 112.550484,79.5184848 L113.459242,80.2222757 L114.32617,86.3409685 L112.619503,90.0847593 Z M115.036235,78.86489 L113.800157,77.9059358 C113.29715,77.5169162 113.066039,76.8664587 113.207216,76.2484195 L113.65166,74.2970469 C114.059503,72.5182234 113.485386,70.6348247 112.15519,69.3820142 L108.374797,65.8285502 C108.341333,65.7950861 108.32251,65.7511645 108.32251,65.7051515 L108.32251,65.2899881 C108.32251,65.235609 108.349699,65.1833214 108.392575,65.1519489 L111.085386,63.2633214 C111.992052,62.6243672 112.404078,61.4761319 112.110222,60.4063279 L111.468131,58.0722103 C111.432575,57.9435828 111.372967,57.8222757 111.290353,57.7177005 L105.112052,49.736524 C105.031529,49.6309031 104.931137,49.54306 104.81715,49.4782234 L98.7183268,45.9540404 C97.9476078,45.5127332 96.9876078,45.5608378 96.2702222,46.0743018 C95.5507451,46.5888116 95.1951895,47.4829293 95.3646013,48.3529946 L96.8453856,55.9022757 C97.0085229,56.7315567 96.6362353,57.589073 95.9167582,58.035609 L92.148915,60.3760012 C91.8393725,60.5684195 91.4451242,60.5380927 91.163817,60.300707 L88.9876078,58.4403149 C88.3486536,57.892341 87.4283922,57.8086809 86.6984575,58.2374391 L86.2059085,58.5271123 C85.6046013,58.8816221 85.231268,59.5341711 85.231268,60.2316874 L85.2030327,66.010511 L84.7575425,66.4978312 L82.6440784,64.8078966 C82.0500915,64.3331253 81.2657778,64.1867201 80.5389804,64.4209685 L79.0832941,64.8894652 C78.3083922,65.1393998 77.719634,65.7574391 77.5063007,66.5417528 L76.5463007,70.0596613 C76.4134902,70.5511645 76.0025098,70.9307724 75.4995033,71.0238443 L73.3536209,71.4306417 C72.6665621,71.5582234 71.9711373,71.1242364 71.799634,70.4329946 L71.0184575,67.2748247 C70.544732,65.3694652 68.7178039,64.115609 66.7747974,64.3519489 L60.2806797,65.1404456 C58.5614641,65.3485502 57.2093072,66.6358704 56.915451,68.3467201 L56.5860392,70.2834521 C56.4595033,71.0217528 55.9063007,71.6073737 55.1742745,71.774694 L48.4615948,73.3088116 C45.6077386,73.9603149 43.2934902,76.1009685 42.4234248,78.8952168 L39.1366275,89.4227985 C38.7423791,90.696524 39.3091765,92.0748247 40.4866928,92.7001842 L41.4487843,93.2094652 C42.1117908,93.5629293 42.9034248,93.6319489 43.6260392,93.3945632 C44.3413333,93.1561319 44.936366,92.6301188 45.2595033,91.9503802 L50.7768889,80.3184848 C50.8009412,80.2682887 50.8459085,80.2390077 50.8981961,80.2390077 L53.0315294,80.2390077 C53.096366,80.2390077 53.1528366,80.2892038 53.1622484,80.3519489 L53.6443399,83.8238443 C53.7227712,84.3760012 54.0302222,84.8779619 54.4924444,85.2052822 C54.9536209,85.5284195 55.5319216,85.6444979 56.0757124,85.5252822 L57.1476078,85.2962626 C57.858719,85.1446286 58.4359739,84.620707 58.6576732,83.9263279 L59.4524444,81.4217528 L60.0255163,82.4978312 C60.5149281,83.4139096 61.5533595,83.8604456 62.557281,83.5812299 L65.0890458,82.8732561 C65.5293072,82.7498574 65.8336209,82.3493345 65.8336209,81.8912953 L65.8336209,79.315609 C65.8336209,79.2214913 65.8210719,79.1284195 65.7959739,79.0384848 L67.2861699,78.8993998 C67.467085,78.8826678 67.6469542,78.9422757 67.7818562,79.0625371 L69.4916601,80.6008378 C69.593098,80.6928639 69.7144052,80.7629293 69.8440784,80.8078966 L73.8597647,82.178877 L75.4723137,85.1739096 C75.6490458,85.5043672 75.9951895,85.7093345 76.3695686,85.7093345 L76.784732,85.7093345 L75.3750588,87.9210992 L73.9622484,88.599792 C73.6934902,88.7294652 73.4958431,88.9699881 73.4195033,89.2575698 L72.0359739,94.4706417 C71.9313987,94.8669815 72.0736209,95.2873737 72.3967582,95.5383541 L73.2720523,96.2170469 L74.6074771,101.811818 C75.0832941,103.806067 76.4950588,105.477178 78.3826405,106.280315 L88.3591111,110.528158 C89.6234248,111.064629 91.1115294,110.533387 91.7463007,109.319269 L92.8955817,107.128419 L93.2344052,107.302014 L92.4082614,111.217308 C92.3455163,111.511165 92.4176732,111.818616 92.6027712,112.056001 L94.4631634,114.431949 C94.8406797,114.916132 95.4095686,115.194302 96.0192418,115.196393 L96.0338824,115.196393 C96.6404183,115.196393 97.2061699,114.924498 97.5857778,114.447635 L100.90081,110.298093 C101.485386,109.568158 101.805386,108.649988 101.805386,107.71404 L101.805386,104.504629 C101.805386,103.523714 101.456105,102.571034 100.821333,101.824367 L98.519634,99.1137789 C97.2595033,97.6329946 97.2323137,95.4599227 98.4537516,93.9467201 L100.830745,91.0008378 C101.306562,90.4110338 101.519895,89.6424064 101.414275,88.8915567 L101.296105,88.0539096 C101.283556,87.9608378 101.321203,87.8677659 101.395451,87.8112953 L102.244601,87.1535175 C102.307346,87.1064587 102.387869,87.0918181 102.467346,87.1137789 C102.541595,87.1367855 102.602248,87.1932561 102.627346,87.2695959 L104.823425,93.6476351 C104.917542,93.9226678 105.124601,94.1433214 105.392314,94.2552168 L106.104471,94.5543018 L107.403294,101.782537 C107.475451,102.195609 107.726431,102.55221 108.083033,102.757178 C108.449046,102.972602 108.887216,103.01025 109.284601,102.862799 L109.833621,102.659923 C110.346039,102.467504 110.704732,101.992733 110.748654,101.449988 L111.376105,93.736524 C111.422118,93.1550861 111.787085,92.6510338 112.327739,92.4220142 L113.779242,91.808158 C114.014536,91.7088116 114.204863,91.5247593 114.309438,91.2915567 L116.303686,86.9161319 C116.385255,86.7393998 116.41349,86.5427985 116.387346,86.3503802 L115.421072,79.5268508 C115.383425,79.2643672 115.245386,79.0269815 115.036235,78.86489 Z" id="Fill-41" fill="#FFFFFF" fill-rule="nonzero"></path>
            <path d="M129.271843,142.106825 C128.737464,141.428132 130.123085,139.008263 128.945569,137.510746 L127.562039,135.752838 L126.560209,136.559112 L127.966745,138.347348 C128.402824,138.901596 128.195765,139.878328 128.083869,140.557021 C127.948967,141.427086 127.79315,142.425779 128.350536,143.134799 C128.526222,143.358589 129.000993,143.801988 129.000993,143.801988 L132.959163,140.613491 L132.249098,139.709962 L129.271843,142.106825 Z" id="Fill-43" fill="#FFFFFF" fill-rule="nonzero"></path>
            <polygon id="Fill-45" fill="#FFFFFF" fill-rule="nonzero" points="101.318379 150.216524 101.663477 151.313517 104.911582 150.2594 105.463739 152.017308 102.94766 152.83404 103.300078 153.955086 105.817203 153.138354 106.373542 154.90672 103.127529 155.960838 103.473673 157.057831 107.895111 155.622014 105.740863 148.780707"></polygon>
            <path d="M123.219974,145.986459 L122.090562,146.548027 L122.331085,147.036393 C122.440889,147.258093 122.345725,147.5394 122.145987,147.638746 L120.551216,148.43038 C120.352523,148.530772 120.07017,148.435609 119.961412,148.21391 L119.763765,147.814433 C119.271216,146.81574 122.419974,144.367635 121.418144,142.338877 L121.008209,141.507504 L116.333699,143.829073 L116.84298,144.860184 L120.320105,143.132602 C120.730039,144.323714 117.769516,146.623321 118.62285,148.35404 L118.842458,148.797439 C119.276444,149.672733 120.262588,149.886067 121.149386,149.446851 L122.632261,148.70855 C123.551477,148.251557 123.832784,147.227766 123.411346,146.374433 L123.219974,145.986459 Z" id="Fill-47" fill="#FFFFFF" fill-rule="nonzero"></path>
            <path d="M114.883556,154.433204 L114.238327,154.715557 C114.181856,154.739609 114.11702,154.715557 114.096105,154.669544 L113.807477,154.012812 C113.781333,153.956341 113.813752,153.901962 113.869176,153.87791 L114.514405,153.595557 C114.571922,153.570459 114.631529,153.584053 114.656627,153.640524 L114.946301,154.297256 C114.96617,154.343269 114.941072,154.408106 114.883556,154.433204 Z M115.252706,153.366537 C115.082248,152.9817 114.643033,152.810197 114.25715,152.978563 L113.588915,153.271374 C113.204078,153.440785 113.021072,153.884184 113.190484,154.270067 L113.48434,154.93621 C113.653752,155.322093 114.110745,155.49987 114.496627,155.330459 L115.165908,155.037648 C115.550745,154.870328 115.715974,154.419609 115.546562,154.034772 L115.252706,153.366537 Z" id="Fill-49" fill="#FFFFFF" fill-rule="nonzero"></path>
            <path d="M79.8703268,144.238171 C44.6243137,144.238171 15.9498039,115.563661 15.9498039,80.3176482 C15.9498039,45.0716351 44.6243137,16.3971253 79.8703268,16.3971253 C115.11634,16.3971253 143.791895,45.0716351 143.791895,80.3176482 C143.791895,115.563661 115.11634,144.238171 79.8703268,144.238171 M79.8703268,14.3589554 C43.5001307,14.3589554 13.911634,43.9474521 13.911634,80.3176482 C13.911634,116.687844 43.5001307,146.276341 79.8703268,146.276341 C116.240523,146.276341 145.830065,116.687844 145.830065,80.3176482 C145.830065,43.9474521 116.240523,14.3589554 79.8703268,14.3589554" id="Fill-51" fill="#FFFFFF" fill-rule="nonzero"></path>
            <path d="M157.128261,94.9856744 L156.708915,94.8810992 L156.40983,96.1067201 L156.936889,96.2374391 C157.177412,96.2980927 157.331137,96.5522103 157.279895,96.7686809 L156.857412,98.4973083 C156.804078,98.7137789 156.549961,98.8685502 156.310484,98.8078966 L155.878588,98.7012299 C154.797281,98.4324717 154.956235,94.4450208 152.760157,93.9001842 L151.859765,93.6763933 L150.622641,98.7461972 L151.739503,99.0222757 L152.659765,95.2512953 C153.834144,95.707243 153.683556,99.4552168 155.555451,99.9205763 L156.035451,100.039792 C156.982902,100.276132 157.782902,99.6591384 158.018196,98.6980927 L158.410353,97.0876351 C158.652967,96.0910338 158.052706,95.2157397 157.128261,94.9856744" id="Fill-53" fill="#FFFFFF" fill-rule="nonzero"></path>
            <path d="M145.771085,124.220812 L144.525595,125.92957 C144.394876,126.109439 144.098928,126.156498 143.898144,126.012184 L143.115922,125.448524 C142.915137,125.303165 142.876444,125.064733 142.956967,124.952838 L144.349908,123.044341 C144.429386,122.935583 144.669908,122.895844 144.872784,123.041204 L145.655007,123.603818 C145.854745,123.749178 145.901804,124.040942 145.771085,124.220812 Z M141.992784,124.259504 C141.913307,124.370354 141.669647,124.409047 141.469908,124.263687 L140.686641,123.701073 C140.48481,123.556759 140.438797,123.262903 140.570562,123.083034 L141.817098,121.375321 C141.947817,121.195452 142.241673,121.148393 142.441412,121.293753 L143.225725,121.856367 C143.42651,122.000681 143.465203,122.241204 143.385725,122.351008 L141.992784,124.259504 Z M146.333699,122.56957 L145.661281,122.084341 C145.309908,121.833361 144.907294,121.755975 144.523503,121.799897 C144.445072,121.42238 144.245333,121.066825 143.893961,120.813753 L143.221542,120.32957 C142.437229,119.76591 141.43017,119.954145 140.832,120.772968 L139.688993,122.341596 C139.089778,123.160419 139.22468,124.172707 140.007948,124.736367 L140.681412,125.219504 C141.032784,125.472576 141.435399,125.548916 141.812915,125.515452 C141.896575,125.881465 142.096314,126.239112 142.447686,126.491138 L143.120105,126.976367 C143.902327,127.537936 144.913569,127.3497 145.509647,126.530877 L146.654745,124.96225 C147.251869,124.143426 147.115922,123.132184 146.333699,122.56957 Z" id="Fill-55" fill="#FFFFFF" fill-rule="nonzero"></path>
            <polygon id="Fill-57" fill="#FFFFFF" fill-rule="nonzero" points="158.437542 85.6995044 157.627085 86.3771515 158.043294 86.9753214 153.841464 86.4890469 153.971137 85.3585894 152.878327 85.2320534 152.476758 88.7447332 153.569569 88.8712691 153.702379 87.7178051 159.733229 88.4153214 159.847216 87.4197659"></polygon>
            <polygon id="Fill-59" fill="#FFFFFF" fill-rule="nonzero" points="152.882928 51.9924195 151.003712 55.6650992 148.943582 56.3678443 149.363974 57.5568639 156.150902 55.240524 155.732601 54.0515044 152.677961 55.0941188 154.714039 51.1589554 154.360575 50.1560796 147.572601 52.4724195 147.990902 53.6624848"></polygon>
            <path d="M150.830222,107.8114 L151.615582,105.888263 L151.845647,105.981334 L152.975059,108.679374 L150.830222,107.8114 Z M151.005908,104.308132 L149.752052,107.376367 L148.066301,106.694537 L147.590484,107.862642 L149.276235,108.543426 L148.957281,109.322511 L150.034405,109.757544 L150.352314,108.979504 L154.239373,110.551269 L154.641987,109.567217 L152.713621,104.999374 L151.005908,104.308132 Z" id="Fill-61" fill="#FFFFFF" fill-rule="nonzero"></path>
            <polygon id="Fill-63" fill="#FFFFFF" fill-rule="nonzero" points="71.9035817 155.246067 70.9362614 156.034563 69.1260654 152.409988 67.9182222 152.952733 69.8654118 156.759269 67.0899869 158.854955 67.8837124 159.816001 71.6515556 156.93391 71.1726013 160.150642 72.4337778 160.327374 73.4931242 153.220446 72.230902 153.044759"></polygon>
            <path d="M13.2506144,123.005439 C13.1324444,122.816158 13.1993725,122.526485 13.4074771,122.39472 L16.7612026,120.292759 C16.9703529,120.160995 17.2600261,120.227923 17.3781961,120.416158 L18.7073464,122.546354 L14.5797647,125.134589 L13.2506144,123.005439 Z M18.3852549,119.857727 C17.8477386,118.998119 16.8574118,118.742955 16.0406797,119.255374 L12.7936209,121.291452 C11.9758431,121.804916 11.7719216,122.809884 12.3094379,123.669491 L14.2608105,126.795243 L20.3355817,122.983478 L18.3852549,119.857727 Z" id="Fill-65" fill="#FFFFFF" fill-rule="nonzero"></path>
            <path d="M10.4013595,114.656785 C10.1639739,114.762406 10.1012288,114.776001 9.90671895,114.699661 C9.90671895,114.699661 8.30253595,114.05757 8.18750327,114.040838 L8.85573856,112.29757 C8.93207843,112.102014 8.98436601,112.065413 9.22070588,111.959792 L10.0907712,111.574955 L11.2714248,114.271949 L10.4013595,114.656785 Z M14.3354771,112.913517 L12.2659346,113.830642 L11.0863268,111.134694 L13.1558693,110.21757 L12.6549542,109.073517 L8.66332026,110.841884 C8.20005229,111.046851 7.93966013,111.256001 7.76606536,111.752733 L6.97024837,113.971818 L7.40528105,114.969465 L9.57103268,115.876132 C10.0520784,116.082145 10.3804444,116.030903 10.8447582,115.825936 L14.8353464,114.058616 L14.3354771,112.913517 Z" id="Fill-67" fill="#FFFFFF" fill-rule="nonzero"></path>
            <path d="M4.58541176,87.6521319 L4.46096732,85.676707 C4.45364706,85.5658574 4.36057516,85.4727855 4.23717647,85.4801057 L2.27534641,85.5982757 C2.15090196,85.6066417 2.05887582,85.7101711 2.06619608,85.8210208 L2.19064052,87.7964456 C2.19796078,87.9072953 2.3014902,88.0014129 2.42698039,87.9930469 L4.38881046,87.874877 C4.51220915,87.8675567 4.59273203,87.7629815 4.58541176,87.6521319" id="Fill-69" fill="#FFFFFF" fill-rule="nonzero"></path>
            <path d="M88.7500131,155.397282 L86.784,155.622119 C86.6741961,155.635714 86.5853072,155.732968 86.5968105,155.855321 L86.8028235,157.810877 C86.8153725,157.935321 86.9251765,158.021073 87.0339346,158.007478 L89.0009935,157.782642 C89.1118431,157.771138 89.1996863,157.66238 89.1860915,157.537936 L88.9811242,155.583426 C88.9685752,155.461073 88.859817,155.384733 88.7500131,155.397282" id="Fill-71" fill="#FFFFFF" fill-rule="nonzero"></path>
            <g id="Group-75" transform="translate(0.000000, 66.210145)">
                <g id="Fill-73-Clipped">
                    <mask id="mask-4" fill="white">
                        <use xlink:href="#path-3"></use>
                    </mask>
                    <g id="path-3"></g>
                    <path d="M3.18933333,4.38117647 L1.31220915,4.06640523 L1.68972549,1.78562092 C1.7263268,1.56601307 1.96684967,1.39346405 2.21155556,1.43424837 L3.1987451,1.59947712 C3.42985621,1.63816993 3.60345098,1.88078431 3.56684967,2.09934641 L3.18933333,4.38117647 Z M7.27508497,5.06718954 L4.32501961,4.57254902 L4.68894118,2.37647059 C4.85416993,1.37568627 4.26750327,0.524444444 3.31691503,0.365490196 L2.49913725,0.22745098 C1.54854902,0.068496732 0.730771242,0.684444444 0.565542484,1.68522876 L-0.000209150327,5.09960784 L7.0732549,6.28653595 L7.27508497,5.06718954 Z" id="Fill-73" fill="#FFFFFF" fill-rule="nonzero" mask="url(#mask-4)"></path>
                </g>
            </g>
            <polygon id="Fill-76" fill="#FFFFFF" fill-rule="nonzero" points="9.18295425 61.2959489 6.31864052 60.3871907 7.21171242 57.6347724 10.0760261 58.5435306 10.4660915 57.3430077 3.62896732 55.1741188 3.23890196 56.3756874 6.08020915 57.2760796 5.18713725 60.0284979 2.34687582 59.1281057 1.95681046 60.3265371 8.79288889 62.4943802"></polygon>
            <polygon id="Fill-78" fill="#FFFFFF" fill-rule="nonzero" points="9.4740915 100.064263 8.36873203 100.383217 9.28585621 103.467138 3.49971242 105.140341 3.86781699 106.371191 10.7572288 104.379034"></polygon>
            <path d="M61.6350327,152.842093 L60.4972549,156.631897 C60.4261438,156.868236 60.1636601,157.010459 59.9503268,156.946668 L57.7228758,156.283661 C57.5095425,156.21987 57.3673203,155.958433 57.4373856,155.722093 L58.5751634,151.932289 C58.6473203,151.694903 58.9108497,151.554772 59.1231373,151.617517 L61.351634,152.280524 C61.5639216,152.343269 61.705098,152.604707 61.6350327,152.842093 M61.5994771,151.15425 L59.5362092,150.540393 C58.5636601,150.251766 57.650719,150.715034 57.3735948,151.639478 L56.2713725,155.311112 C55.9932026,156.234511 56.5024837,157.121308 57.4739869,157.409936 L59.5372549,158.023792 C60.5098039,158.312419 61.4216993,157.849151 61.6998693,156.925753 L62.8010458,153.255165 C63.0792157,152.329674 62.5720261,151.442877 61.5994771,151.15425" id="Fill-80" fill="#FFFFFF" fill-rule="nonzero"></path>
            <path d="M22.9564444,132.870642 C22.7598431,133.037962 22.7044183,133.068289 22.495268,133.052602 C22.495268,133.052602 20.772915,132.891557 20.6568366,132.907243 L20.8021961,131.049988 C20.8199739,130.840838 20.8586667,130.791687 21.0573595,130.623321 L21.7820654,130.007374 L23.6832418,132.254694 L22.9564444,132.870642 Z M26.2390588,130.086851 L24.5125229,131.549857 L22.6134379,129.302537 L24.3389281,127.839531 L23.5326536,126.885805 L20.2029804,129.709334 C19.817098,130.0377 19.6267712,130.311687 19.6006275,130.836655 L19.467817,133.187504 L20.1705621,134.018877 L22.5067712,134.27404 C23.0275556,134.332602 23.3297778,134.192472 23.7167059,133.864106 L27.0453333,131.040576 L26.2390588,130.086851 Z" id="Fill-82" fill="#FFFFFF" fill-rule="nonzero"></path>
            <polygon id="Fill-84" fill="#FFFFFF" fill-rule="nonzero" points="7.1170719 49.0501972 11.5772026 51.1301972 11.1379869 52.0724195 12.156549 52.5482364 13.5693595 49.522877 12.5497516 49.04706 12.1053072 49.998694 7.64517647 47.9176482 8.09066667 46.9660142 7.07001307 46.4901972 5.65720261 49.514511 6.67785621 49.9903279"></polygon>
            <polygon id="Fill-86" fill="#FFFFFF" fill-rule="nonzero" points="30.4238431 141.064106 30.2617516 136.918746 31.7038431 135.289465 30.7605752 134.451818 26.007634 139.822799 26.950902 140.6594 29.0894641 138.242668 29.245281 142.695478 30.0400523 143.400315 34.7929935 138.03038 33.8486797 137.192733"></polygon>
            <path d="M41.7585359,144.664001 L39.5906928,147.974851 C39.4547451,148.180864 39.1640261,148.241517 38.9778824,148.119165 L37.0348758,146.841256 C36.8497778,146.718903 36.7901699,146.427138 36.9250719,146.22008 L39.0939608,142.910276 C39.2288627,142.703217 39.5195817,142.642563 39.7057255,142.765962 L41.6476863,144.042825 C41.8327843,144.165178 41.8944837,144.457988 41.7585359,144.664001 M42.2071634,143.033674 L40.4095163,141.851975 C39.5614118,141.293544 38.5553987,141.475504 38.0262484,142.282825 L35.9263791,145.489099 C35.3972288,146.296419 35.6314771,147.293021 36.4774902,147.850406 L38.2751373,149.034197 C39.1221961,149.591583 40.1271634,149.408576 40.6563137,148.603348 L42.7572288,145.396027 C43.2863791,144.588707 43.0531765,143.592106 42.2071634,143.033674" id="Fill-88" fill="#FFFFFF" fill-rule="nonzero"></path>
        </g>
    </g>
</svg>