<?xml version="1.0" encoding="UTF-8"?>
<svg width="80px" height="80px" viewBox="0 0 80 80" version="1.1" xmlns="http://www.w3.org/2000/svg" xmlns:xlink="http://www.w3.org/1999/xlink">
    <!-- Generator: Sketch 51 (57462) - http://www.bohemiancoding.com/sketch -->
    <title>logo</title>
    <desc>Created with Sketch.</desc>
    <defs></defs>
    <g id="Page-1" stroke="none" stroke-width="1" fill="none" fill-rule="evenodd">
        <g id="logo" fill="#FFFFFF" fill-rule="nonzero">
            <path d="M40.951424,65.9278492 L65.2555803,65.9278492 L65.2555803,39.2471315 C65.2555803,24.5342539 53.2855599,12.5664138 38.5748626,12.5664138 C23.861985,12.5664138 11.8919646,24.5342539 11.8919646,39.2471315 C11.8919646,53.9578287 23.861985,65.9278492 38.5748626,65.9278492 L40.951424,65.8777016 L40.951424,65.9278492 Z M68.7179469,69.3902157 L37.4890575,69.3705928 C21.369866,68.7971656 8.429598,55.5036839 8.429598,39.2471315 C8.429598,22.6264637 21.9541949,9.10404724 38.5748626,9.10404724 C54.8335953,9.10404724 68.1292574,22.0421349 68.7005043,38.1635067 L68.7026845,38.2529003 C68.7135863,38.5821304 68.7179469,38.9135408 68.7179469,39.2471315 L68.7135863,39.4433614 L68.7179469,39.89469 L68.7179469,69.3902157 Z" id="Fill-1"></path>
            <path d="M39.5185101,3.96413355 C19.542312,3.96413355 3.2923007,20.2163253 3.2923007,40.190343 C3.2923007,60.166541 19.542312,76.4165524 39.5185101,76.4165524 C59.4925279,76.4165524 75.7447195,60.166541 75.7447195,40.190343 C75.7447195,20.2163253 59.4925279,3.96413355 39.5185101,3.96413355 M39.5185101,79.708853 C17.7282761,79.708853 0,61.9805769 0,40.190343 C0,18.400109 17.7282761,0.671832841 39.5185101,0.671832841 C61.308744,0.671832841 79.0370202,18.400109 79.0370202,40.190343 C79.0370202,61.9805769 61.308744,79.708853 39.5185101,79.708853" id="Fill-4"></path>
            <path d="M26.8198229,51.8014807 C26.6083306,51.8014807 26.3990189,51.7208085 26.2376744,51.559464 C25.9149852,51.2389552 25.9149852,50.717856 26.2376744,50.3951669 L49.6675176,26.9827662 C49.9880264,26.6600772 50.5113059,26.6600772 50.8318146,26.9827662 C51.1523234,27.3054554 51.1523234,27.8243742 50.8318146,28.1470634 L27.4019714,51.5616444 C27.2406269,51.7208085 27.031315,51.8014807 26.8198229,51.8014807" id="Fill-7"></path>
            <path d="M47.0602771,53.7177743 C50.6316602,53.7177743 53.003861,51.9909516 53.003861,49.08675 L53.003861,49.047504 C53.003861,46.3853191 50.9042016,45.3300386 47.5443108,44.6192505 C45.481717,44.1722825 44.9802408,43.8888394 44.9802408,43.2391006 L44.9802408,43.1976744 C44.9802408,42.6700341 45.4642744,42.2841154 46.4519646,42.2841154 C47.7514422,42.2841154 49.2209857,42.7507064 50.5662502,43.6860686 L52.6048604,40.9039655 C51.0088576,39.6633568 49.0552805,39.013618 46.5566205,39.013618 C43.0244833,39.013618 40.8615944,40.9235885 40.8615944,43.56397 L40.8615944,43.603216 C40.8615944,46.5074176 43.2795821,47.3621076 46.4061776,48.0510924 C48.4251646,48.5176834 48.9091983,48.8229299 48.9091983,49.4334226 L48.9091983,49.4726686 C48.9091983,50.0831615 48.3183284,50.4472769 47.204179,50.4472769 C45.5035204,50.4472769 43.9096979,49.8585874 42.4401545,48.7422575 L40.1704292,51.3608358 C41.9975471,52.9263139 44.4547809,53.7177743 47.0602771,53.7177743" id="Fill-9"></path>
            <path d="M26.2119464,41.69608 L30.1779696,41.69608 L30.1779696,37.494581 L32.3234159,37.494581 C35.9580286,37.494581 38.6267545,35.6674631 38.6267545,32.1811129 L38.6267545,32.1396866 C38.6267545,28.9040745 36.2305701,26.9919237 32.534908,26.9919237 L26.2119464,26.9919237 L26.2119464,41.69608 Z M30.1779696,34.3025755 L30.1779696,30.4172246 L32.2187599,30.4172246 C33.6686805,30.4172246 34.5713377,31.0669634 34.5713377,32.3271951 L34.5713377,32.3708017 C34.5713377,33.5241971 33.6686805,34.3025755 32.2405632,34.3025755 L30.1779696,34.3025755 Z" id="Fill-11"></path>
        </g>
    </g>
</svg>